%TF.GenerationSoftware,KiCad,Pcbnew,6.0.6-3a73a75311~116~ubuntu20.04.1*%
%TF.CreationDate,2022-07-12T22:33:22+02:00*%
%TF.ProjectId,LEDBoard_template,4c454442-6f61-4726-945f-74656d706c61,rev?*%
%TF.SameCoordinates,Original*%
%TF.FileFunction,Legend,Top*%
%TF.FilePolarity,Positive*%
%FSLAX46Y46*%
G04 Gerber Fmt 4.6, Leading zero omitted, Abs format (unit mm)*
G04 Created by KiCad (PCBNEW 6.0.6-3a73a75311~116~ubuntu20.04.1) date 2022-07-12 22:33:22*
%MOMM*%
%LPD*%
G01*
G04 APERTURE LIST*
%ADD10C,0.300000*%
%ADD11C,0.150000*%
%ADD12C,0.152000*%
%ADD13C,0.114300*%
%ADD14C,0.109220*%
%ADD15C,0.120000*%
%ADD16C,0.127000*%
%ADD17C,0.099060*%
G04 APERTURE END LIST*
D10*
X310190476Y-124714285D02*
X310095238Y-124809523D01*
X309809523Y-124904761D01*
X309619047Y-124904761D01*
X309333333Y-124809523D01*
X309142857Y-124619047D01*
X309047619Y-124428571D01*
X308952380Y-124047619D01*
X308952380Y-123761904D01*
X309047619Y-123380952D01*
X309142857Y-123190476D01*
X309333333Y-123000000D01*
X309619047Y-122904761D01*
X309809523Y-122904761D01*
X310095238Y-123000000D01*
X310190476Y-123095238D01*
X312190476Y-124714285D02*
X312095238Y-124809523D01*
X311809523Y-124904761D01*
X311619047Y-124904761D01*
X311333333Y-124809523D01*
X311142857Y-124619047D01*
X311047619Y-124428571D01*
X310952380Y-124047619D01*
X310952380Y-123761904D01*
X311047619Y-123380952D01*
X311142857Y-123190476D01*
X311333333Y-123000000D01*
X311619047Y-122904761D01*
X311809523Y-122904761D01*
X312095238Y-123000000D01*
X312190476Y-123095238D01*
X313047619Y-124142857D02*
X314571428Y-124142857D01*
X316190476Y-123857142D02*
X316476190Y-123952380D01*
X316571428Y-124047619D01*
X316666666Y-124238095D01*
X316666666Y-124523809D01*
X316571428Y-124714285D01*
X316476190Y-124809523D01*
X316285714Y-124904761D01*
X315523809Y-124904761D01*
X315523809Y-122904761D01*
X316190476Y-122904761D01*
X316380952Y-123000000D01*
X316476190Y-123095238D01*
X316571428Y-123285714D01*
X316571428Y-123476190D01*
X316476190Y-123666666D01*
X316380952Y-123761904D01*
X316190476Y-123857142D01*
X315523809Y-123857142D01*
X317904761Y-123952380D02*
X317904761Y-124904761D01*
X317238095Y-122904761D02*
X317904761Y-123952380D01*
X318571428Y-122904761D01*
X319238095Y-124142857D02*
X320761904Y-124142857D01*
X321619047Y-124809523D02*
X321904761Y-124904761D01*
X322380952Y-124904761D01*
X322571428Y-124809523D01*
X322666666Y-124714285D01*
X322761904Y-124523809D01*
X322761904Y-124333333D01*
X322666666Y-124142857D01*
X322571428Y-124047619D01*
X322380952Y-123952380D01*
X322000000Y-123857142D01*
X321809523Y-123761904D01*
X321714285Y-123666666D01*
X321619047Y-123476190D01*
X321619047Y-123285714D01*
X321714285Y-123095238D01*
X321809523Y-123000000D01*
X322000000Y-122904761D01*
X322476190Y-122904761D01*
X322761904Y-123000000D01*
X323523809Y-124333333D02*
X324476190Y-124333333D01*
X323333333Y-124904761D02*
X324000000Y-122904761D01*
X324666666Y-124904761D01*
X325333333Y-124142857D02*
X326857142Y-124142857D01*
X327809523Y-124904761D02*
X327809523Y-122904761D01*
X328952380Y-124904761D01*
X328952380Y-122904761D01*
X331047619Y-124714285D02*
X330952380Y-124809523D01*
X330666666Y-124904761D01*
X330476190Y-124904761D01*
X330190476Y-124809523D01*
X330000000Y-124619047D01*
X329904761Y-124428571D01*
X329809523Y-124047619D01*
X329809523Y-123761904D01*
X329904761Y-123380952D01*
X330000000Y-123190476D01*
X330190476Y-123000000D01*
X330476190Y-122904761D01*
X330666666Y-122904761D01*
X330952380Y-123000000D01*
X331047619Y-123095238D01*
X309952380Y-117500000D02*
X309761904Y-117404761D01*
X309476190Y-117404761D01*
X309190476Y-117500000D01*
X309000000Y-117690476D01*
X308904761Y-117880952D01*
X308809523Y-118261904D01*
X308809523Y-118547619D01*
X308904761Y-118928571D01*
X309000000Y-119119047D01*
X309190476Y-119309523D01*
X309476190Y-119404761D01*
X309666666Y-119404761D01*
X309952380Y-119309523D01*
X310047619Y-119214285D01*
X310047619Y-118547619D01*
X309666666Y-118547619D01*
X310904761Y-119404761D02*
X310904761Y-118071428D01*
X310904761Y-118452380D02*
X311000000Y-118261904D01*
X311095238Y-118166666D01*
X311285714Y-118071428D01*
X311476190Y-118071428D01*
X312904761Y-119309523D02*
X312714285Y-119404761D01*
X312333333Y-119404761D01*
X312142857Y-119309523D01*
X312047619Y-119119047D01*
X312047619Y-118357142D01*
X312142857Y-118166666D01*
X312333333Y-118071428D01*
X312714285Y-118071428D01*
X312904761Y-118166666D01*
X313000000Y-118357142D01*
X313000000Y-118547619D01*
X312047619Y-118738095D01*
X314619047Y-119309523D02*
X314428571Y-119404761D01*
X314047619Y-119404761D01*
X313857142Y-119309523D01*
X313761904Y-119119047D01*
X313761904Y-118357142D01*
X313857142Y-118166666D01*
X314047619Y-118071428D01*
X314428571Y-118071428D01*
X314619047Y-118166666D01*
X314714285Y-118357142D01*
X314714285Y-118547619D01*
X313761904Y-118738095D01*
X315571428Y-118071428D02*
X315571428Y-119404761D01*
X315571428Y-118261904D02*
X315666666Y-118166666D01*
X315857142Y-118071428D01*
X316142857Y-118071428D01*
X316333333Y-118166666D01*
X316428571Y-118357142D01*
X316428571Y-119404761D01*
X318333333Y-119404761D02*
X317380952Y-119404761D01*
X317380952Y-117404761D01*
X319000000Y-119404761D02*
X319000000Y-118071428D01*
X319000000Y-117404761D02*
X318904761Y-117500000D01*
X319000000Y-117595238D01*
X319095238Y-117500000D01*
X319000000Y-117404761D01*
X319000000Y-117595238D01*
X320809523Y-118071428D02*
X320809523Y-119690476D01*
X320714285Y-119880952D01*
X320619047Y-119976190D01*
X320428571Y-120071428D01*
X320142857Y-120071428D01*
X319952380Y-119976190D01*
X320809523Y-119309523D02*
X320619047Y-119404761D01*
X320238095Y-119404761D01*
X320047619Y-119309523D01*
X319952380Y-119214285D01*
X319857142Y-119023809D01*
X319857142Y-118452380D01*
X319952380Y-118261904D01*
X320047619Y-118166666D01*
X320238095Y-118071428D01*
X320619047Y-118071428D01*
X320809523Y-118166666D01*
X321761904Y-119404761D02*
X321761904Y-117404761D01*
X322619047Y-119404761D02*
X322619047Y-118357142D01*
X322523809Y-118166666D01*
X322333333Y-118071428D01*
X322047619Y-118071428D01*
X321857142Y-118166666D01*
X321761904Y-118261904D01*
X323285714Y-118071428D02*
X324047619Y-118071428D01*
X323571428Y-117404761D02*
X323571428Y-119119047D01*
X323666666Y-119309523D01*
X323857142Y-119404761D01*
X324047619Y-119404761D01*
X326238095Y-119404761D02*
X326238095Y-117404761D01*
X327000000Y-117404761D01*
X327190476Y-117500000D01*
X327285714Y-117595238D01*
X327380952Y-117785714D01*
X327380952Y-118071428D01*
X327285714Y-118261904D01*
X327190476Y-118357142D01*
X327000000Y-118452380D01*
X326238095Y-118452380D01*
X328523809Y-119404761D02*
X328333333Y-119309523D01*
X328238095Y-119119047D01*
X328238095Y-117404761D01*
X330142857Y-119404761D02*
X330142857Y-118357142D01*
X330047619Y-118166666D01*
X329857142Y-118071428D01*
X329476190Y-118071428D01*
X329285714Y-118166666D01*
X330142857Y-119309523D02*
X329952380Y-119404761D01*
X329476190Y-119404761D01*
X329285714Y-119309523D01*
X329190476Y-119119047D01*
X329190476Y-118928571D01*
X329285714Y-118738095D01*
X329476190Y-118642857D01*
X329952380Y-118642857D01*
X330142857Y-118547619D01*
X331095238Y-118071428D02*
X331095238Y-119404761D01*
X331095238Y-118261904D02*
X331190476Y-118166666D01*
X331380952Y-118071428D01*
X331666666Y-118071428D01*
X331857142Y-118166666D01*
X331952380Y-118357142D01*
X331952380Y-119404761D01*
X332619047Y-118071428D02*
X333380952Y-118071428D01*
X332904761Y-117404761D02*
X332904761Y-119119047D01*
X333000000Y-119309523D01*
X333190476Y-119404761D01*
X333380952Y-119404761D01*
X309357142Y-112857142D02*
X308690476Y-112857142D01*
X308690476Y-113904761D02*
X308690476Y-111904761D01*
X309642857Y-111904761D01*
X311261904Y-112571428D02*
X311261904Y-113904761D01*
X310785714Y-111809523D02*
X310309523Y-113238095D01*
X311547619Y-113238095D01*
X312309523Y-113904761D02*
X312309523Y-111904761D01*
X313261904Y-113904761D02*
X313261904Y-111904761D01*
X313261904Y-112857142D02*
X314404761Y-112857142D01*
X314404761Y-113904761D02*
X314404761Y-111904761D01*
X315166666Y-111904761D02*
X316500000Y-113904761D01*
X316500000Y-111904761D02*
X315166666Y-113904761D01*
D11*
%TO.C,D109*%
X278890476Y-173247619D02*
X278890476Y-174247619D01*
X278652380Y-174247619D01*
X278509523Y-174200000D01*
X278414285Y-174104761D01*
X278366666Y-174009523D01*
X278319047Y-173819047D01*
X278319047Y-173676190D01*
X278366666Y-173485714D01*
X278414285Y-173390476D01*
X278509523Y-173295238D01*
X278652380Y-173247619D01*
X278890476Y-173247619D01*
X277366666Y-173247619D02*
X277938095Y-173247619D01*
X277652380Y-173247619D02*
X277652380Y-174247619D01*
X277747619Y-174104761D01*
X277842857Y-174009523D01*
X277938095Y-173961904D01*
X276747619Y-174247619D02*
X276652380Y-174247619D01*
X276557142Y-174200000D01*
X276509523Y-174152380D01*
X276461904Y-174057142D01*
X276414285Y-173866666D01*
X276414285Y-173628571D01*
X276461904Y-173438095D01*
X276509523Y-173342857D01*
X276557142Y-173295238D01*
X276652380Y-173247619D01*
X276747619Y-173247619D01*
X276842857Y-173295238D01*
X276890476Y-173342857D01*
X276938095Y-173438095D01*
X276985714Y-173628571D01*
X276985714Y-173866666D01*
X276938095Y-174057142D01*
X276890476Y-174152380D01*
X276842857Y-174200000D01*
X276747619Y-174247619D01*
X275938095Y-173247619D02*
X275747619Y-173247619D01*
X275652380Y-173295238D01*
X275604761Y-173342857D01*
X275509523Y-173485714D01*
X275461904Y-173676190D01*
X275461904Y-174057142D01*
X275509523Y-174152380D01*
X275557142Y-174200000D01*
X275652380Y-174247619D01*
X275842857Y-174247619D01*
X275938095Y-174200000D01*
X275985714Y-174152380D01*
X276033333Y-174057142D01*
X276033333Y-173819047D01*
X275985714Y-173723809D01*
X275938095Y-173676190D01*
X275842857Y-173628571D01*
X275652380Y-173628571D01*
X275557142Y-173676190D01*
X275509523Y-173723809D01*
X275461904Y-173819047D01*
X278821190Y-165454166D02*
X278518809Y-165454166D01*
X278881666Y-165272738D02*
X278670000Y-165907738D01*
X278458333Y-165272738D01*
%TO.C,J104*%
X356952380Y-124185714D02*
X357666666Y-124185714D01*
X357809523Y-124233333D01*
X357904761Y-124328571D01*
X357952380Y-124471428D01*
X357952380Y-124566666D01*
X357952380Y-123185714D02*
X357952380Y-123757142D01*
X357952380Y-123471428D02*
X356952380Y-123471428D01*
X357095238Y-123566666D01*
X357190476Y-123661904D01*
X357238095Y-123757142D01*
X356952380Y-122566666D02*
X356952380Y-122471428D01*
X357000000Y-122376190D01*
X357047619Y-122328571D01*
X357142857Y-122280952D01*
X357333333Y-122233333D01*
X357571428Y-122233333D01*
X357761904Y-122280952D01*
X357857142Y-122328571D01*
X357904761Y-122376190D01*
X357952380Y-122471428D01*
X357952380Y-122566666D01*
X357904761Y-122661904D01*
X357857142Y-122709523D01*
X357761904Y-122757142D01*
X357571428Y-122804761D01*
X357333333Y-122804761D01*
X357142857Y-122757142D01*
X357047619Y-122709523D01*
X357000000Y-122661904D01*
X356952380Y-122566666D01*
X357285714Y-121376190D02*
X357952380Y-121376190D01*
X356904761Y-121614285D02*
X357619047Y-121852380D01*
X357619047Y-121233333D01*
D12*
%TO.C,C207*%
X322716666Y-188750000D02*
X322683333Y-188783333D01*
X322583333Y-188816666D01*
X322516666Y-188816666D01*
X322416666Y-188783333D01*
X322350000Y-188716666D01*
X322316666Y-188650000D01*
X322283333Y-188516666D01*
X322283333Y-188416666D01*
X322316666Y-188283333D01*
X322350000Y-188216666D01*
X322416666Y-188150000D01*
X322516666Y-188116666D01*
X322583333Y-188116666D01*
X322683333Y-188150000D01*
X322716666Y-188183333D01*
X322983333Y-188183333D02*
X323016666Y-188150000D01*
X323083333Y-188116666D01*
X323250000Y-188116666D01*
X323316666Y-188150000D01*
X323350000Y-188183333D01*
X323383333Y-188250000D01*
X323383333Y-188316666D01*
X323350000Y-188416666D01*
X322950000Y-188816666D01*
X323383333Y-188816666D01*
X323816666Y-188116666D02*
X323883333Y-188116666D01*
X323950000Y-188150000D01*
X323983333Y-188183333D01*
X324016666Y-188250000D01*
X324050000Y-188383333D01*
X324050000Y-188550000D01*
X324016666Y-188683333D01*
X323983333Y-188750000D01*
X323950000Y-188783333D01*
X323883333Y-188816666D01*
X323816666Y-188816666D01*
X323750000Y-188783333D01*
X323716666Y-188750000D01*
X323683333Y-188683333D01*
X323650000Y-188550000D01*
X323650000Y-188383333D01*
X323683333Y-188250000D01*
X323716666Y-188183333D01*
X323750000Y-188150000D01*
X323816666Y-188116666D01*
X324283333Y-188116666D02*
X324750000Y-188116666D01*
X324450000Y-188816666D01*
D13*
%TO.C,R203*%
X342299809Y-168411628D02*
X342057904Y-168564028D01*
X342299809Y-168672885D02*
X341791809Y-168672885D01*
X341791809Y-168498714D01*
X341816000Y-168455171D01*
X341840190Y-168433400D01*
X341888571Y-168411628D01*
X341961142Y-168411628D01*
X342009523Y-168433400D01*
X342033714Y-168455171D01*
X342057904Y-168498714D01*
X342057904Y-168672885D01*
X341840190Y-168237457D02*
X341816000Y-168215685D01*
X341791809Y-168172142D01*
X341791809Y-168063285D01*
X341816000Y-168019742D01*
X341840190Y-167997971D01*
X341888571Y-167976200D01*
X341936952Y-167976200D01*
X342009523Y-167997971D01*
X342299809Y-168259228D01*
X342299809Y-167976200D01*
X341791809Y-167693171D02*
X341791809Y-167649628D01*
X341816000Y-167606085D01*
X341840190Y-167584314D01*
X341888571Y-167562542D01*
X341985333Y-167540771D01*
X342106285Y-167540771D01*
X342203047Y-167562542D01*
X342251428Y-167584314D01*
X342275619Y-167606085D01*
X342299809Y-167649628D01*
X342299809Y-167693171D01*
X342275619Y-167736714D01*
X342251428Y-167758485D01*
X342203047Y-167780257D01*
X342106285Y-167802028D01*
X341985333Y-167802028D01*
X341888571Y-167780257D01*
X341840190Y-167758485D01*
X341816000Y-167736714D01*
X341791809Y-167693171D01*
X341791809Y-167388371D02*
X341791809Y-167105342D01*
X341985333Y-167257742D01*
X341985333Y-167192428D01*
X342009523Y-167148885D01*
X342033714Y-167127114D01*
X342082095Y-167105342D01*
X342203047Y-167105342D01*
X342251428Y-167127114D01*
X342275619Y-167148885D01*
X342299809Y-167192428D01*
X342299809Y-167323057D01*
X342275619Y-167366600D01*
X342251428Y-167388371D01*
D11*
%TO.C,U202*%
X338214285Y-201547619D02*
X338214285Y-200738095D01*
X338166666Y-200642857D01*
X338119047Y-200595238D01*
X338023809Y-200547619D01*
X337833333Y-200547619D01*
X337738095Y-200595238D01*
X337690476Y-200642857D01*
X337642857Y-200738095D01*
X337642857Y-201547619D01*
X337214285Y-201452380D02*
X337166666Y-201500000D01*
X337071428Y-201547619D01*
X336833333Y-201547619D01*
X336738095Y-201500000D01*
X336690476Y-201452380D01*
X336642857Y-201357142D01*
X336642857Y-201261904D01*
X336690476Y-201119047D01*
X337261904Y-200547619D01*
X336642857Y-200547619D01*
X336023809Y-201547619D02*
X335928571Y-201547619D01*
X335833333Y-201500000D01*
X335785714Y-201452380D01*
X335738095Y-201357142D01*
X335690476Y-201166666D01*
X335690476Y-200928571D01*
X335738095Y-200738095D01*
X335785714Y-200642857D01*
X335833333Y-200595238D01*
X335928571Y-200547619D01*
X336023809Y-200547619D01*
X336119047Y-200595238D01*
X336166666Y-200642857D01*
X336214285Y-200738095D01*
X336261904Y-200928571D01*
X336261904Y-201166666D01*
X336214285Y-201357142D01*
X336166666Y-201452380D01*
X336119047Y-201500000D01*
X336023809Y-201547619D01*
X335309523Y-201452380D02*
X335261904Y-201500000D01*
X335166666Y-201547619D01*
X334928571Y-201547619D01*
X334833333Y-201500000D01*
X334785714Y-201452380D01*
X334738095Y-201357142D01*
X334738095Y-201261904D01*
X334785714Y-201119047D01*
X335357142Y-200547619D01*
X334738095Y-200547619D01*
D13*
%TO.C,R214*%
X323729809Y-158011628D02*
X323487904Y-158164028D01*
X323729809Y-158272885D02*
X323221809Y-158272885D01*
X323221809Y-158098714D01*
X323246000Y-158055171D01*
X323270190Y-158033400D01*
X323318571Y-158011628D01*
X323391142Y-158011628D01*
X323439523Y-158033400D01*
X323463714Y-158055171D01*
X323487904Y-158098714D01*
X323487904Y-158272885D01*
X323270190Y-157837457D02*
X323246000Y-157815685D01*
X323221809Y-157772142D01*
X323221809Y-157663285D01*
X323246000Y-157619742D01*
X323270190Y-157597971D01*
X323318571Y-157576200D01*
X323366952Y-157576200D01*
X323439523Y-157597971D01*
X323729809Y-157859228D01*
X323729809Y-157576200D01*
X323729809Y-157140771D02*
X323729809Y-157402028D01*
X323729809Y-157271400D02*
X323221809Y-157271400D01*
X323294380Y-157314942D01*
X323342761Y-157358485D01*
X323366952Y-157402028D01*
X323391142Y-156748885D02*
X323729809Y-156748885D01*
X323197619Y-156857742D02*
X323560476Y-156966600D01*
X323560476Y-156683571D01*
%TO.C,R204*%
X338188371Y-168599809D02*
X338035971Y-168357904D01*
X337927114Y-168599809D02*
X337927114Y-168091809D01*
X338101285Y-168091809D01*
X338144828Y-168116000D01*
X338166600Y-168140190D01*
X338188371Y-168188571D01*
X338188371Y-168261142D01*
X338166600Y-168309523D01*
X338144828Y-168333714D01*
X338101285Y-168357904D01*
X337927114Y-168357904D01*
X338362542Y-168140190D02*
X338384314Y-168116000D01*
X338427857Y-168091809D01*
X338536714Y-168091809D01*
X338580257Y-168116000D01*
X338602028Y-168140190D01*
X338623800Y-168188571D01*
X338623800Y-168236952D01*
X338602028Y-168309523D01*
X338340771Y-168599809D01*
X338623800Y-168599809D01*
X338906828Y-168091809D02*
X338950371Y-168091809D01*
X338993914Y-168116000D01*
X339015685Y-168140190D01*
X339037457Y-168188571D01*
X339059228Y-168285333D01*
X339059228Y-168406285D01*
X339037457Y-168503047D01*
X339015685Y-168551428D01*
X338993914Y-168575619D01*
X338950371Y-168599809D01*
X338906828Y-168599809D01*
X338863285Y-168575619D01*
X338841514Y-168551428D01*
X338819742Y-168503047D01*
X338797971Y-168406285D01*
X338797971Y-168285333D01*
X338819742Y-168188571D01*
X338841514Y-168140190D01*
X338863285Y-168116000D01*
X338906828Y-168091809D01*
X339451114Y-168261142D02*
X339451114Y-168599809D01*
X339342257Y-168067619D02*
X339233400Y-168430476D01*
X339516428Y-168430476D01*
D11*
%TO.C,D104*%
X158890476Y-124547619D02*
X158890476Y-125547619D01*
X158652380Y-125547619D01*
X158509523Y-125500000D01*
X158414285Y-125404761D01*
X158366666Y-125309523D01*
X158319047Y-125119047D01*
X158319047Y-124976190D01*
X158366666Y-124785714D01*
X158414285Y-124690476D01*
X158509523Y-124595238D01*
X158652380Y-124547619D01*
X158890476Y-124547619D01*
X157366666Y-124547619D02*
X157938095Y-124547619D01*
X157652380Y-124547619D02*
X157652380Y-125547619D01*
X157747619Y-125404761D01*
X157842857Y-125309523D01*
X157938095Y-125261904D01*
X156747619Y-125547619D02*
X156652380Y-125547619D01*
X156557142Y-125500000D01*
X156509523Y-125452380D01*
X156461904Y-125357142D01*
X156414285Y-125166666D01*
X156414285Y-124928571D01*
X156461904Y-124738095D01*
X156509523Y-124642857D01*
X156557142Y-124595238D01*
X156652380Y-124547619D01*
X156747619Y-124547619D01*
X156842857Y-124595238D01*
X156890476Y-124642857D01*
X156938095Y-124738095D01*
X156985714Y-124928571D01*
X156985714Y-125166666D01*
X156938095Y-125357142D01*
X156890476Y-125452380D01*
X156842857Y-125500000D01*
X156747619Y-125547619D01*
X155557142Y-125214285D02*
X155557142Y-124547619D01*
X155795238Y-125595238D02*
X156033333Y-124880952D01*
X155414285Y-124880952D01*
X158821190Y-116754166D02*
X158518809Y-116754166D01*
X158881666Y-116572738D02*
X158670000Y-117207738D01*
X158458333Y-116572738D01*
D13*
%TO.C,R213*%
X331229809Y-158511628D02*
X330987904Y-158664028D01*
X331229809Y-158772885D02*
X330721809Y-158772885D01*
X330721809Y-158598714D01*
X330746000Y-158555171D01*
X330770190Y-158533400D01*
X330818571Y-158511628D01*
X330891142Y-158511628D01*
X330939523Y-158533400D01*
X330963714Y-158555171D01*
X330987904Y-158598714D01*
X330987904Y-158772885D01*
X330770190Y-158337457D02*
X330746000Y-158315685D01*
X330721809Y-158272142D01*
X330721809Y-158163285D01*
X330746000Y-158119742D01*
X330770190Y-158097971D01*
X330818571Y-158076200D01*
X330866952Y-158076200D01*
X330939523Y-158097971D01*
X331229809Y-158359228D01*
X331229809Y-158076200D01*
X331229809Y-157640771D02*
X331229809Y-157902028D01*
X331229809Y-157771400D02*
X330721809Y-157771400D01*
X330794380Y-157814942D01*
X330842761Y-157858485D01*
X330866952Y-157902028D01*
X330721809Y-157488371D02*
X330721809Y-157205342D01*
X330915333Y-157357742D01*
X330915333Y-157292428D01*
X330939523Y-157248885D01*
X330963714Y-157227114D01*
X331012095Y-157205342D01*
X331133047Y-157205342D01*
X331181428Y-157227114D01*
X331205619Y-157248885D01*
X331229809Y-157292428D01*
X331229809Y-157423057D01*
X331205619Y-157466600D01*
X331181428Y-157488371D01*
D11*
%TO.C,D106*%
X238890476Y-147027619D02*
X238890476Y-148027619D01*
X238652380Y-148027619D01*
X238509523Y-147980000D01*
X238414285Y-147884761D01*
X238366666Y-147789523D01*
X238319047Y-147599047D01*
X238319047Y-147456190D01*
X238366666Y-147265714D01*
X238414285Y-147170476D01*
X238509523Y-147075238D01*
X238652380Y-147027619D01*
X238890476Y-147027619D01*
X237366666Y-147027619D02*
X237938095Y-147027619D01*
X237652380Y-147027619D02*
X237652380Y-148027619D01*
X237747619Y-147884761D01*
X237842857Y-147789523D01*
X237938095Y-147741904D01*
X236747619Y-148027619D02*
X236652380Y-148027619D01*
X236557142Y-147980000D01*
X236509523Y-147932380D01*
X236461904Y-147837142D01*
X236414285Y-147646666D01*
X236414285Y-147408571D01*
X236461904Y-147218095D01*
X236509523Y-147122857D01*
X236557142Y-147075238D01*
X236652380Y-147027619D01*
X236747619Y-147027619D01*
X236842857Y-147075238D01*
X236890476Y-147122857D01*
X236938095Y-147218095D01*
X236985714Y-147408571D01*
X236985714Y-147646666D01*
X236938095Y-147837142D01*
X236890476Y-147932380D01*
X236842857Y-147980000D01*
X236747619Y-148027619D01*
X235557142Y-148027619D02*
X235747619Y-148027619D01*
X235842857Y-147980000D01*
X235890476Y-147932380D01*
X235985714Y-147789523D01*
X236033333Y-147599047D01*
X236033333Y-147218095D01*
X235985714Y-147122857D01*
X235938095Y-147075238D01*
X235842857Y-147027619D01*
X235652380Y-147027619D01*
X235557142Y-147075238D01*
X235509523Y-147122857D01*
X235461904Y-147218095D01*
X235461904Y-147456190D01*
X235509523Y-147551428D01*
X235557142Y-147599047D01*
X235652380Y-147646666D01*
X235842857Y-147646666D01*
X235938095Y-147599047D01*
X235985714Y-147551428D01*
X236033333Y-147456190D01*
X238821190Y-139234166D02*
X238518809Y-139234166D01*
X238881666Y-139052738D02*
X238670000Y-139687738D01*
X238458333Y-139052738D01*
D13*
%TO.C,R208*%
X325793371Y-173229809D02*
X325640971Y-172987904D01*
X325532114Y-173229809D02*
X325532114Y-172721809D01*
X325706285Y-172721809D01*
X325749828Y-172746000D01*
X325771600Y-172770190D01*
X325793371Y-172818571D01*
X325793371Y-172891142D01*
X325771600Y-172939523D01*
X325749828Y-172963714D01*
X325706285Y-172987904D01*
X325532114Y-172987904D01*
X325967542Y-172770190D02*
X325989314Y-172746000D01*
X326032857Y-172721809D01*
X326141714Y-172721809D01*
X326185257Y-172746000D01*
X326207028Y-172770190D01*
X326228800Y-172818571D01*
X326228800Y-172866952D01*
X326207028Y-172939523D01*
X325945771Y-173229809D01*
X326228800Y-173229809D01*
X326511828Y-172721809D02*
X326555371Y-172721809D01*
X326598914Y-172746000D01*
X326620685Y-172770190D01*
X326642457Y-172818571D01*
X326664228Y-172915333D01*
X326664228Y-173036285D01*
X326642457Y-173133047D01*
X326620685Y-173181428D01*
X326598914Y-173205619D01*
X326555371Y-173229809D01*
X326511828Y-173229809D01*
X326468285Y-173205619D01*
X326446514Y-173181428D01*
X326424742Y-173133047D01*
X326402971Y-173036285D01*
X326402971Y-172915333D01*
X326424742Y-172818571D01*
X326446514Y-172770190D01*
X326468285Y-172746000D01*
X326511828Y-172721809D01*
X326925485Y-172939523D02*
X326881942Y-172915333D01*
X326860171Y-172891142D01*
X326838400Y-172842761D01*
X326838400Y-172818571D01*
X326860171Y-172770190D01*
X326881942Y-172746000D01*
X326925485Y-172721809D01*
X327012571Y-172721809D01*
X327056114Y-172746000D01*
X327077885Y-172770190D01*
X327099657Y-172818571D01*
X327099657Y-172842761D01*
X327077885Y-172891142D01*
X327056114Y-172915333D01*
X327012571Y-172939523D01*
X326925485Y-172939523D01*
X326881942Y-172963714D01*
X326860171Y-172987904D01*
X326838400Y-173036285D01*
X326838400Y-173133047D01*
X326860171Y-173181428D01*
X326881942Y-173205619D01*
X326925485Y-173229809D01*
X327012571Y-173229809D01*
X327056114Y-173205619D01*
X327077885Y-173181428D01*
X327099657Y-173133047D01*
X327099657Y-173036285D01*
X327077885Y-172987904D01*
X327056114Y-172963714D01*
X327012571Y-172939523D01*
D12*
%TO.C,C107*%
X139216666Y-133250000D02*
X139183333Y-133283333D01*
X139083333Y-133316666D01*
X139016666Y-133316666D01*
X138916666Y-133283333D01*
X138850000Y-133216666D01*
X138816666Y-133150000D01*
X138783333Y-133016666D01*
X138783333Y-132916666D01*
X138816666Y-132783333D01*
X138850000Y-132716666D01*
X138916666Y-132650000D01*
X139016666Y-132616666D01*
X139083333Y-132616666D01*
X139183333Y-132650000D01*
X139216666Y-132683333D01*
X139883333Y-133316666D02*
X139483333Y-133316666D01*
X139683333Y-133316666D02*
X139683333Y-132616666D01*
X139616666Y-132716666D01*
X139550000Y-132783333D01*
X139483333Y-132816666D01*
X140316666Y-132616666D02*
X140383333Y-132616666D01*
X140450000Y-132650000D01*
X140483333Y-132683333D01*
X140516666Y-132750000D01*
X140550000Y-132883333D01*
X140550000Y-133050000D01*
X140516666Y-133183333D01*
X140483333Y-133250000D01*
X140450000Y-133283333D01*
X140383333Y-133316666D01*
X140316666Y-133316666D01*
X140250000Y-133283333D01*
X140216666Y-133250000D01*
X140183333Y-133183333D01*
X140150000Y-133050000D01*
X140150000Y-132883333D01*
X140183333Y-132750000D01*
X140216666Y-132683333D01*
X140250000Y-132650000D01*
X140316666Y-132616666D01*
X140783333Y-132616666D02*
X141250000Y-132616666D01*
X140950000Y-133316666D01*
D11*
%TO.C,D114*%
X238890476Y-198247619D02*
X238890476Y-199247619D01*
X238652380Y-199247619D01*
X238509523Y-199200000D01*
X238414285Y-199104761D01*
X238366666Y-199009523D01*
X238319047Y-198819047D01*
X238319047Y-198676190D01*
X238366666Y-198485714D01*
X238414285Y-198390476D01*
X238509523Y-198295238D01*
X238652380Y-198247619D01*
X238890476Y-198247619D01*
X237366666Y-198247619D02*
X237938095Y-198247619D01*
X237652380Y-198247619D02*
X237652380Y-199247619D01*
X237747619Y-199104761D01*
X237842857Y-199009523D01*
X237938095Y-198961904D01*
X236414285Y-198247619D02*
X236985714Y-198247619D01*
X236700000Y-198247619D02*
X236700000Y-199247619D01*
X236795238Y-199104761D01*
X236890476Y-199009523D01*
X236985714Y-198961904D01*
X235557142Y-198914285D02*
X235557142Y-198247619D01*
X235795238Y-199295238D02*
X236033333Y-198580952D01*
X235414285Y-198580952D01*
X238821190Y-190454166D02*
X238518809Y-190454166D01*
X238881666Y-190272738D02*
X238670000Y-190907738D01*
X238458333Y-190272738D01*
D13*
%TO.C,R109*%
X134229809Y-158011628D02*
X133987904Y-158164028D01*
X134229809Y-158272885D02*
X133721809Y-158272885D01*
X133721809Y-158098714D01*
X133746000Y-158055171D01*
X133770190Y-158033400D01*
X133818571Y-158011628D01*
X133891142Y-158011628D01*
X133939523Y-158033400D01*
X133963714Y-158055171D01*
X133987904Y-158098714D01*
X133987904Y-158272885D01*
X134229809Y-157576200D02*
X134229809Y-157837457D01*
X134229809Y-157706828D02*
X133721809Y-157706828D01*
X133794380Y-157750371D01*
X133842761Y-157793914D01*
X133866952Y-157837457D01*
X133721809Y-157293171D02*
X133721809Y-157249628D01*
X133746000Y-157206085D01*
X133770190Y-157184314D01*
X133818571Y-157162542D01*
X133915333Y-157140771D01*
X134036285Y-157140771D01*
X134133047Y-157162542D01*
X134181428Y-157184314D01*
X134205619Y-157206085D01*
X134229809Y-157249628D01*
X134229809Y-157293171D01*
X134205619Y-157336714D01*
X134181428Y-157358485D01*
X134133047Y-157380257D01*
X134036285Y-157402028D01*
X133915333Y-157402028D01*
X133818571Y-157380257D01*
X133770190Y-157358485D01*
X133746000Y-157336714D01*
X133721809Y-157293171D01*
X134229809Y-156923057D02*
X134229809Y-156835971D01*
X134205619Y-156792428D01*
X134181428Y-156770657D01*
X134108857Y-156727114D01*
X134012095Y-156705342D01*
X133818571Y-156705342D01*
X133770190Y-156727114D01*
X133746000Y-156748885D01*
X133721809Y-156792428D01*
X133721809Y-156879514D01*
X133746000Y-156923057D01*
X133770190Y-156944828D01*
X133818571Y-156966600D01*
X133939523Y-156966600D01*
X133987904Y-156944828D01*
X134012095Y-156923057D01*
X134036285Y-156879514D01*
X134036285Y-156792428D01*
X134012095Y-156748885D01*
X133987904Y-156727114D01*
X133939523Y-156705342D01*
D12*
%TO.C,C206*%
X326716666Y-188750000D02*
X326683333Y-188783333D01*
X326583333Y-188816666D01*
X326516666Y-188816666D01*
X326416666Y-188783333D01*
X326350000Y-188716666D01*
X326316666Y-188650000D01*
X326283333Y-188516666D01*
X326283333Y-188416666D01*
X326316666Y-188283333D01*
X326350000Y-188216666D01*
X326416666Y-188150000D01*
X326516666Y-188116666D01*
X326583333Y-188116666D01*
X326683333Y-188150000D01*
X326716666Y-188183333D01*
X326983333Y-188183333D02*
X327016666Y-188150000D01*
X327083333Y-188116666D01*
X327250000Y-188116666D01*
X327316666Y-188150000D01*
X327350000Y-188183333D01*
X327383333Y-188250000D01*
X327383333Y-188316666D01*
X327350000Y-188416666D01*
X326950000Y-188816666D01*
X327383333Y-188816666D01*
X327816666Y-188116666D02*
X327883333Y-188116666D01*
X327950000Y-188150000D01*
X327983333Y-188183333D01*
X328016666Y-188250000D01*
X328050000Y-188383333D01*
X328050000Y-188550000D01*
X328016666Y-188683333D01*
X327983333Y-188750000D01*
X327950000Y-188783333D01*
X327883333Y-188816666D01*
X327816666Y-188816666D01*
X327750000Y-188783333D01*
X327716666Y-188750000D01*
X327683333Y-188683333D01*
X327650000Y-188550000D01*
X327650000Y-188383333D01*
X327683333Y-188250000D01*
X327716666Y-188183333D01*
X327750000Y-188150000D01*
X327816666Y-188116666D01*
X328650000Y-188116666D02*
X328516666Y-188116666D01*
X328450000Y-188150000D01*
X328416666Y-188183333D01*
X328350000Y-188283333D01*
X328316666Y-188416666D01*
X328316666Y-188683333D01*
X328350000Y-188750000D01*
X328383333Y-188783333D01*
X328450000Y-188816666D01*
X328583333Y-188816666D01*
X328650000Y-188783333D01*
X328683333Y-188750000D01*
X328716666Y-188683333D01*
X328716666Y-188516666D01*
X328683333Y-188450000D01*
X328650000Y-188416666D01*
X328583333Y-188383333D01*
X328450000Y-188383333D01*
X328383333Y-188416666D01*
X328350000Y-188450000D01*
X328316666Y-188516666D01*
D11*
%TO.C,D107*%
X198890476Y-147027619D02*
X198890476Y-148027619D01*
X198652380Y-148027619D01*
X198509523Y-147980000D01*
X198414285Y-147884761D01*
X198366666Y-147789523D01*
X198319047Y-147599047D01*
X198319047Y-147456190D01*
X198366666Y-147265714D01*
X198414285Y-147170476D01*
X198509523Y-147075238D01*
X198652380Y-147027619D01*
X198890476Y-147027619D01*
X197366666Y-147027619D02*
X197938095Y-147027619D01*
X197652380Y-147027619D02*
X197652380Y-148027619D01*
X197747619Y-147884761D01*
X197842857Y-147789523D01*
X197938095Y-147741904D01*
X196747619Y-148027619D02*
X196652380Y-148027619D01*
X196557142Y-147980000D01*
X196509523Y-147932380D01*
X196461904Y-147837142D01*
X196414285Y-147646666D01*
X196414285Y-147408571D01*
X196461904Y-147218095D01*
X196509523Y-147122857D01*
X196557142Y-147075238D01*
X196652380Y-147027619D01*
X196747619Y-147027619D01*
X196842857Y-147075238D01*
X196890476Y-147122857D01*
X196938095Y-147218095D01*
X196985714Y-147408571D01*
X196985714Y-147646666D01*
X196938095Y-147837142D01*
X196890476Y-147932380D01*
X196842857Y-147980000D01*
X196747619Y-148027619D01*
X196080952Y-148027619D02*
X195414285Y-148027619D01*
X195842857Y-147027619D01*
X198821190Y-139234166D02*
X198518809Y-139234166D01*
X198881666Y-139052738D02*
X198670000Y-139687738D01*
X198458333Y-139052738D01*
%TO.C,D208*%
X293909523Y-174952380D02*
X293909523Y-173952380D01*
X294147619Y-173952380D01*
X294290476Y-174000000D01*
X294385714Y-174095238D01*
X294433333Y-174190476D01*
X294480952Y-174380952D01*
X294480952Y-174523809D01*
X294433333Y-174714285D01*
X294385714Y-174809523D01*
X294290476Y-174904761D01*
X294147619Y-174952380D01*
X293909523Y-174952380D01*
X294861904Y-174047619D02*
X294909523Y-174000000D01*
X295004761Y-173952380D01*
X295242857Y-173952380D01*
X295338095Y-174000000D01*
X295385714Y-174047619D01*
X295433333Y-174142857D01*
X295433333Y-174238095D01*
X295385714Y-174380952D01*
X294814285Y-174952380D01*
X295433333Y-174952380D01*
X296052380Y-173952380D02*
X296147619Y-173952380D01*
X296242857Y-174000000D01*
X296290476Y-174047619D01*
X296338095Y-174142857D01*
X296385714Y-174333333D01*
X296385714Y-174571428D01*
X296338095Y-174761904D01*
X296290476Y-174857142D01*
X296242857Y-174904761D01*
X296147619Y-174952380D01*
X296052380Y-174952380D01*
X295957142Y-174904761D01*
X295909523Y-174857142D01*
X295861904Y-174761904D01*
X295814285Y-174571428D01*
X295814285Y-174333333D01*
X295861904Y-174142857D01*
X295909523Y-174047619D01*
X295957142Y-174000000D01*
X296052380Y-173952380D01*
X296957142Y-174380952D02*
X296861904Y-174333333D01*
X296814285Y-174285714D01*
X296766666Y-174190476D01*
X296766666Y-174142857D01*
X296814285Y-174047619D01*
X296861904Y-174000000D01*
X296957142Y-173952380D01*
X297147619Y-173952380D01*
X297242857Y-174000000D01*
X297290476Y-174047619D01*
X297338095Y-174142857D01*
X297338095Y-174190476D01*
X297290476Y-174285714D01*
X297242857Y-174333333D01*
X297147619Y-174380952D01*
X296957142Y-174380952D01*
X296861904Y-174428571D01*
X296814285Y-174476190D01*
X296766666Y-174571428D01*
X296766666Y-174761904D01*
X296814285Y-174857142D01*
X296861904Y-174904761D01*
X296957142Y-174952380D01*
X297147619Y-174952380D01*
X297242857Y-174904761D01*
X297290476Y-174857142D01*
X297338095Y-174761904D01*
X297338095Y-174571428D01*
X297290476Y-174476190D01*
X297242857Y-174428571D01*
X297147619Y-174380952D01*
X293978809Y-182745833D02*
X294281190Y-182745833D01*
X293918333Y-182927261D02*
X294130000Y-182292261D01*
X294341666Y-182927261D01*
D13*
%TO.C,R103*%
X114229809Y-154854628D02*
X113987904Y-155007028D01*
X114229809Y-155115885D02*
X113721809Y-155115885D01*
X113721809Y-154941714D01*
X113746000Y-154898171D01*
X113770190Y-154876400D01*
X113818571Y-154854628D01*
X113891142Y-154854628D01*
X113939523Y-154876400D01*
X113963714Y-154898171D01*
X113987904Y-154941714D01*
X113987904Y-155115885D01*
X114229809Y-154419200D02*
X114229809Y-154680457D01*
X114229809Y-154549828D02*
X113721809Y-154549828D01*
X113794380Y-154593371D01*
X113842761Y-154636914D01*
X113866952Y-154680457D01*
X113721809Y-154136171D02*
X113721809Y-154092628D01*
X113746000Y-154049085D01*
X113770190Y-154027314D01*
X113818571Y-154005542D01*
X113915333Y-153983771D01*
X114036285Y-153983771D01*
X114133047Y-154005542D01*
X114181428Y-154027314D01*
X114205619Y-154049085D01*
X114229809Y-154092628D01*
X114229809Y-154136171D01*
X114205619Y-154179714D01*
X114181428Y-154201485D01*
X114133047Y-154223257D01*
X114036285Y-154245028D01*
X113915333Y-154245028D01*
X113818571Y-154223257D01*
X113770190Y-154201485D01*
X113746000Y-154179714D01*
X113721809Y-154136171D01*
X113721809Y-153831371D02*
X113721809Y-153548342D01*
X113915333Y-153700742D01*
X113915333Y-153635428D01*
X113939523Y-153591885D01*
X113963714Y-153570114D01*
X114012095Y-153548342D01*
X114133047Y-153548342D01*
X114181428Y-153570114D01*
X114205619Y-153591885D01*
X114229809Y-153635428D01*
X114229809Y-153766057D01*
X114205619Y-153809600D01*
X114181428Y-153831371D01*
D11*
%TO.C,Q101*%
X130452380Y-163547619D02*
X130357142Y-163500000D01*
X130261904Y-163404761D01*
X130119047Y-163261904D01*
X130023809Y-163214285D01*
X129928571Y-163214285D01*
X129976190Y-163452380D02*
X129880952Y-163404761D01*
X129785714Y-163309523D01*
X129738095Y-163119047D01*
X129738095Y-162785714D01*
X129785714Y-162595238D01*
X129880952Y-162500000D01*
X129976190Y-162452380D01*
X130166666Y-162452380D01*
X130261904Y-162500000D01*
X130357142Y-162595238D01*
X130404761Y-162785714D01*
X130404761Y-163119047D01*
X130357142Y-163309523D01*
X130261904Y-163404761D01*
X130166666Y-163452380D01*
X129976190Y-163452380D01*
X131357142Y-163452380D02*
X130785714Y-163452380D01*
X131071428Y-163452380D02*
X131071428Y-162452380D01*
X130976190Y-162595238D01*
X130880952Y-162690476D01*
X130785714Y-162738095D01*
X131976190Y-162452380D02*
X132071428Y-162452380D01*
X132166666Y-162500000D01*
X132214285Y-162547619D01*
X132261904Y-162642857D01*
X132309523Y-162833333D01*
X132309523Y-163071428D01*
X132261904Y-163261904D01*
X132214285Y-163357142D01*
X132166666Y-163404761D01*
X132071428Y-163452380D01*
X131976190Y-163452380D01*
X131880952Y-163404761D01*
X131833333Y-163357142D01*
X131785714Y-163261904D01*
X131738095Y-163071428D01*
X131738095Y-162833333D01*
X131785714Y-162642857D01*
X131833333Y-162547619D01*
X131880952Y-162500000D01*
X131976190Y-162452380D01*
X133261904Y-163452380D02*
X132690476Y-163452380D01*
X132976190Y-163452380D02*
X132976190Y-162452380D01*
X132880952Y-162595238D01*
X132785714Y-162690476D01*
X132690476Y-162738095D01*
%TO.C,U103*%
X135785714Y-150952380D02*
X135785714Y-151761904D01*
X135833333Y-151857142D01*
X135880952Y-151904761D01*
X135976190Y-151952380D01*
X136166666Y-151952380D01*
X136261904Y-151904761D01*
X136309523Y-151857142D01*
X136357142Y-151761904D01*
X136357142Y-150952380D01*
X137357142Y-151952380D02*
X136785714Y-151952380D01*
X137071428Y-151952380D02*
X137071428Y-150952380D01*
X136976190Y-151095238D01*
X136880952Y-151190476D01*
X136785714Y-151238095D01*
X137976190Y-150952380D02*
X138071428Y-150952380D01*
X138166666Y-151000000D01*
X138214285Y-151047619D01*
X138261904Y-151142857D01*
X138309523Y-151333333D01*
X138309523Y-151571428D01*
X138261904Y-151761904D01*
X138214285Y-151857142D01*
X138166666Y-151904761D01*
X138071428Y-151952380D01*
X137976190Y-151952380D01*
X137880952Y-151904761D01*
X137833333Y-151857142D01*
X137785714Y-151761904D01*
X137738095Y-151571428D01*
X137738095Y-151333333D01*
X137785714Y-151142857D01*
X137833333Y-151047619D01*
X137880952Y-151000000D01*
X137976190Y-150952380D01*
X138642857Y-150952380D02*
X139261904Y-150952380D01*
X138928571Y-151333333D01*
X139071428Y-151333333D01*
X139166666Y-151380952D01*
X139214285Y-151428571D01*
X139261904Y-151523809D01*
X139261904Y-151761904D01*
X139214285Y-151857142D01*
X139166666Y-151904761D01*
X139071428Y-151952380D01*
X138785714Y-151952380D01*
X138690476Y-151904761D01*
X138642857Y-151857142D01*
%TO.C,J106*%
X104964285Y-132902380D02*
X104964285Y-133616666D01*
X104916666Y-133759523D01*
X104821428Y-133854761D01*
X104678571Y-133902380D01*
X104583333Y-133902380D01*
X105964285Y-133902380D02*
X105392857Y-133902380D01*
X105678571Y-133902380D02*
X105678571Y-132902380D01*
X105583333Y-133045238D01*
X105488095Y-133140476D01*
X105392857Y-133188095D01*
X106583333Y-132902380D02*
X106678571Y-132902380D01*
X106773809Y-132950000D01*
X106821428Y-132997619D01*
X106869047Y-133092857D01*
X106916666Y-133283333D01*
X106916666Y-133521428D01*
X106869047Y-133711904D01*
X106821428Y-133807142D01*
X106773809Y-133854761D01*
X106678571Y-133902380D01*
X106583333Y-133902380D01*
X106488095Y-133854761D01*
X106440476Y-133807142D01*
X106392857Y-133711904D01*
X106345238Y-133521428D01*
X106345238Y-133283333D01*
X106392857Y-133092857D01*
X106440476Y-132997619D01*
X106488095Y-132950000D01*
X106583333Y-132902380D01*
X107773809Y-132902380D02*
X107583333Y-132902380D01*
X107488095Y-132950000D01*
X107440476Y-132997619D01*
X107345238Y-133140476D01*
X107297619Y-133330952D01*
X107297619Y-133711904D01*
X107345238Y-133807142D01*
X107392857Y-133854761D01*
X107488095Y-133902380D01*
X107678571Y-133902380D01*
X107773809Y-133854761D01*
X107821428Y-133807142D01*
X107869047Y-133711904D01*
X107869047Y-133473809D01*
X107821428Y-133378571D01*
X107773809Y-133330952D01*
X107678571Y-133283333D01*
X107488095Y-133283333D01*
X107392857Y-133330952D01*
X107345238Y-133378571D01*
X107297619Y-133473809D01*
D13*
%TO.C,R113*%
X130388371Y-155729809D02*
X130235971Y-155487904D01*
X130127114Y-155729809D02*
X130127114Y-155221809D01*
X130301285Y-155221809D01*
X130344828Y-155246000D01*
X130366600Y-155270190D01*
X130388371Y-155318571D01*
X130388371Y-155391142D01*
X130366600Y-155439523D01*
X130344828Y-155463714D01*
X130301285Y-155487904D01*
X130127114Y-155487904D01*
X130823800Y-155729809D02*
X130562542Y-155729809D01*
X130693171Y-155729809D02*
X130693171Y-155221809D01*
X130649628Y-155294380D01*
X130606085Y-155342761D01*
X130562542Y-155366952D01*
X131259228Y-155729809D02*
X130997971Y-155729809D01*
X131128600Y-155729809D02*
X131128600Y-155221809D01*
X131085057Y-155294380D01*
X131041514Y-155342761D01*
X130997971Y-155366952D01*
X131411628Y-155221809D02*
X131694657Y-155221809D01*
X131542257Y-155415333D01*
X131607571Y-155415333D01*
X131651114Y-155439523D01*
X131672885Y-155463714D01*
X131694657Y-155512095D01*
X131694657Y-155633047D01*
X131672885Y-155681428D01*
X131651114Y-155705619D01*
X131607571Y-155729809D01*
X131476942Y-155729809D01*
X131433400Y-155705619D01*
X131411628Y-155681428D01*
D11*
%TO.C,D203*%
X253909523Y-199952380D02*
X253909523Y-198952380D01*
X254147619Y-198952380D01*
X254290476Y-199000000D01*
X254385714Y-199095238D01*
X254433333Y-199190476D01*
X254480952Y-199380952D01*
X254480952Y-199523809D01*
X254433333Y-199714285D01*
X254385714Y-199809523D01*
X254290476Y-199904761D01*
X254147619Y-199952380D01*
X253909523Y-199952380D01*
X254861904Y-199047619D02*
X254909523Y-199000000D01*
X255004761Y-198952380D01*
X255242857Y-198952380D01*
X255338095Y-199000000D01*
X255385714Y-199047619D01*
X255433333Y-199142857D01*
X255433333Y-199238095D01*
X255385714Y-199380952D01*
X254814285Y-199952380D01*
X255433333Y-199952380D01*
X256052380Y-198952380D02*
X256147619Y-198952380D01*
X256242857Y-199000000D01*
X256290476Y-199047619D01*
X256338095Y-199142857D01*
X256385714Y-199333333D01*
X256385714Y-199571428D01*
X256338095Y-199761904D01*
X256290476Y-199857142D01*
X256242857Y-199904761D01*
X256147619Y-199952380D01*
X256052380Y-199952380D01*
X255957142Y-199904761D01*
X255909523Y-199857142D01*
X255861904Y-199761904D01*
X255814285Y-199571428D01*
X255814285Y-199333333D01*
X255861904Y-199142857D01*
X255909523Y-199047619D01*
X255957142Y-199000000D01*
X256052380Y-198952380D01*
X256719047Y-198952380D02*
X257338095Y-198952380D01*
X257004761Y-199333333D01*
X257147619Y-199333333D01*
X257242857Y-199380952D01*
X257290476Y-199428571D01*
X257338095Y-199523809D01*
X257338095Y-199761904D01*
X257290476Y-199857142D01*
X257242857Y-199904761D01*
X257147619Y-199952380D01*
X256861904Y-199952380D01*
X256766666Y-199904761D01*
X256719047Y-199857142D01*
X253978809Y-207745833D02*
X254281190Y-207745833D01*
X253918333Y-207927261D02*
X254130000Y-207292261D01*
X254341666Y-207927261D01*
D12*
%TO.C,C211*%
X329216666Y-177750000D02*
X329183333Y-177783333D01*
X329083333Y-177816666D01*
X329016666Y-177816666D01*
X328916666Y-177783333D01*
X328850000Y-177716666D01*
X328816666Y-177650000D01*
X328783333Y-177516666D01*
X328783333Y-177416666D01*
X328816666Y-177283333D01*
X328850000Y-177216666D01*
X328916666Y-177150000D01*
X329016666Y-177116666D01*
X329083333Y-177116666D01*
X329183333Y-177150000D01*
X329216666Y-177183333D01*
X329483333Y-177183333D02*
X329516666Y-177150000D01*
X329583333Y-177116666D01*
X329750000Y-177116666D01*
X329816666Y-177150000D01*
X329850000Y-177183333D01*
X329883333Y-177250000D01*
X329883333Y-177316666D01*
X329850000Y-177416666D01*
X329450000Y-177816666D01*
X329883333Y-177816666D01*
X330550000Y-177816666D02*
X330150000Y-177816666D01*
X330350000Y-177816666D02*
X330350000Y-177116666D01*
X330283333Y-177216666D01*
X330216666Y-177283333D01*
X330150000Y-177316666D01*
X331216666Y-177816666D02*
X330816666Y-177816666D01*
X331016666Y-177816666D02*
X331016666Y-177116666D01*
X330950000Y-177216666D01*
X330883333Y-177283333D01*
X330816666Y-177316666D01*
D11*
%TO.C,D205*%
X173909523Y-174952380D02*
X173909523Y-173952380D01*
X174147619Y-173952380D01*
X174290476Y-174000000D01*
X174385714Y-174095238D01*
X174433333Y-174190476D01*
X174480952Y-174380952D01*
X174480952Y-174523809D01*
X174433333Y-174714285D01*
X174385714Y-174809523D01*
X174290476Y-174904761D01*
X174147619Y-174952380D01*
X173909523Y-174952380D01*
X174861904Y-174047619D02*
X174909523Y-174000000D01*
X175004761Y-173952380D01*
X175242857Y-173952380D01*
X175338095Y-174000000D01*
X175385714Y-174047619D01*
X175433333Y-174142857D01*
X175433333Y-174238095D01*
X175385714Y-174380952D01*
X174814285Y-174952380D01*
X175433333Y-174952380D01*
X176052380Y-173952380D02*
X176147619Y-173952380D01*
X176242857Y-174000000D01*
X176290476Y-174047619D01*
X176338095Y-174142857D01*
X176385714Y-174333333D01*
X176385714Y-174571428D01*
X176338095Y-174761904D01*
X176290476Y-174857142D01*
X176242857Y-174904761D01*
X176147619Y-174952380D01*
X176052380Y-174952380D01*
X175957142Y-174904761D01*
X175909523Y-174857142D01*
X175861904Y-174761904D01*
X175814285Y-174571428D01*
X175814285Y-174333333D01*
X175861904Y-174142857D01*
X175909523Y-174047619D01*
X175957142Y-174000000D01*
X176052380Y-173952380D01*
X177290476Y-173952380D02*
X176814285Y-173952380D01*
X176766666Y-174428571D01*
X176814285Y-174380952D01*
X176909523Y-174333333D01*
X177147619Y-174333333D01*
X177242857Y-174380952D01*
X177290476Y-174428571D01*
X177338095Y-174523809D01*
X177338095Y-174761904D01*
X177290476Y-174857142D01*
X177242857Y-174904761D01*
X177147619Y-174952380D01*
X176909523Y-174952380D01*
X176814285Y-174904761D01*
X176766666Y-174857142D01*
X173978809Y-182745833D02*
X174281190Y-182745833D01*
X173918333Y-182927261D02*
X174130000Y-182292261D01*
X174341666Y-182927261D01*
%TO.C,D113*%
X278890476Y-198247619D02*
X278890476Y-199247619D01*
X278652380Y-199247619D01*
X278509523Y-199200000D01*
X278414285Y-199104761D01*
X278366666Y-199009523D01*
X278319047Y-198819047D01*
X278319047Y-198676190D01*
X278366666Y-198485714D01*
X278414285Y-198390476D01*
X278509523Y-198295238D01*
X278652380Y-198247619D01*
X278890476Y-198247619D01*
X277366666Y-198247619D02*
X277938095Y-198247619D01*
X277652380Y-198247619D02*
X277652380Y-199247619D01*
X277747619Y-199104761D01*
X277842857Y-199009523D01*
X277938095Y-198961904D01*
X276414285Y-198247619D02*
X276985714Y-198247619D01*
X276700000Y-198247619D02*
X276700000Y-199247619D01*
X276795238Y-199104761D01*
X276890476Y-199009523D01*
X276985714Y-198961904D01*
X276080952Y-199247619D02*
X275461904Y-199247619D01*
X275795238Y-198866666D01*
X275652380Y-198866666D01*
X275557142Y-198819047D01*
X275509523Y-198771428D01*
X275461904Y-198676190D01*
X275461904Y-198438095D01*
X275509523Y-198342857D01*
X275557142Y-198295238D01*
X275652380Y-198247619D01*
X275938095Y-198247619D01*
X276033333Y-198295238D01*
X276080952Y-198342857D01*
X278821190Y-190454166D02*
X278518809Y-190454166D01*
X278881666Y-190272738D02*
X278670000Y-190907738D01*
X278458333Y-190272738D01*
%TO.C,U201*%
X331637980Y-181281979D02*
X331637980Y-182253407D01*
X331695123Y-182367693D01*
X331752265Y-182424836D01*
X331866551Y-182481979D01*
X332095123Y-182481979D01*
X332209408Y-182424836D01*
X332266551Y-182367693D01*
X332323694Y-182253407D01*
X332323694Y-181281979D01*
X332837980Y-181396264D02*
X332895123Y-181339122D01*
X333009408Y-181281979D01*
X333295123Y-181281979D01*
X333409408Y-181339122D01*
X333466551Y-181396264D01*
X333523694Y-181510550D01*
X333523694Y-181624836D01*
X333466551Y-181796264D01*
X332780837Y-182481979D01*
X333523694Y-182481979D01*
X334266551Y-181281979D02*
X334380837Y-181281979D01*
X334495123Y-181339122D01*
X334552265Y-181396264D01*
X334609408Y-181510550D01*
X334666551Y-181739122D01*
X334666551Y-182024836D01*
X334609408Y-182253407D01*
X334552265Y-182367693D01*
X334495123Y-182424836D01*
X334380837Y-182481979D01*
X334266551Y-182481979D01*
X334152265Y-182424836D01*
X334095123Y-182367693D01*
X334037980Y-182253407D01*
X333980837Y-182024836D01*
X333980837Y-181739122D01*
X334037980Y-181510550D01*
X334095123Y-181396264D01*
X334152265Y-181339122D01*
X334266551Y-181281979D01*
X335809408Y-182481979D02*
X335123694Y-182481979D01*
X335466551Y-182481979D02*
X335466551Y-181281979D01*
X335352265Y-181453407D01*
X335237980Y-181567693D01*
X335123694Y-181624836D01*
D12*
%TO.C,C201*%
X326716666Y-180750000D02*
X326683333Y-180783333D01*
X326583333Y-180816666D01*
X326516666Y-180816666D01*
X326416666Y-180783333D01*
X326350000Y-180716666D01*
X326316666Y-180650000D01*
X326283333Y-180516666D01*
X326283333Y-180416666D01*
X326316666Y-180283333D01*
X326350000Y-180216666D01*
X326416666Y-180150000D01*
X326516666Y-180116666D01*
X326583333Y-180116666D01*
X326683333Y-180150000D01*
X326716666Y-180183333D01*
X326983333Y-180183333D02*
X327016666Y-180150000D01*
X327083333Y-180116666D01*
X327250000Y-180116666D01*
X327316666Y-180150000D01*
X327350000Y-180183333D01*
X327383333Y-180250000D01*
X327383333Y-180316666D01*
X327350000Y-180416666D01*
X326950000Y-180816666D01*
X327383333Y-180816666D01*
X327816666Y-180116666D02*
X327883333Y-180116666D01*
X327950000Y-180150000D01*
X327983333Y-180183333D01*
X328016666Y-180250000D01*
X328050000Y-180383333D01*
X328050000Y-180550000D01*
X328016666Y-180683333D01*
X327983333Y-180750000D01*
X327950000Y-180783333D01*
X327883333Y-180816666D01*
X327816666Y-180816666D01*
X327750000Y-180783333D01*
X327716666Y-180750000D01*
X327683333Y-180683333D01*
X327650000Y-180550000D01*
X327650000Y-180383333D01*
X327683333Y-180250000D01*
X327716666Y-180183333D01*
X327750000Y-180150000D01*
X327816666Y-180116666D01*
X328716666Y-180816666D02*
X328316666Y-180816666D01*
X328516666Y-180816666D02*
X328516666Y-180116666D01*
X328450000Y-180216666D01*
X328383333Y-180283333D01*
X328316666Y-180316666D01*
D11*
%TO.C,D210*%
X213909523Y-149952380D02*
X213909523Y-148952380D01*
X214147619Y-148952380D01*
X214290476Y-149000000D01*
X214385714Y-149095238D01*
X214433333Y-149190476D01*
X214480952Y-149380952D01*
X214480952Y-149523809D01*
X214433333Y-149714285D01*
X214385714Y-149809523D01*
X214290476Y-149904761D01*
X214147619Y-149952380D01*
X213909523Y-149952380D01*
X214861904Y-149047619D02*
X214909523Y-149000000D01*
X215004761Y-148952380D01*
X215242857Y-148952380D01*
X215338095Y-149000000D01*
X215385714Y-149047619D01*
X215433333Y-149142857D01*
X215433333Y-149238095D01*
X215385714Y-149380952D01*
X214814285Y-149952380D01*
X215433333Y-149952380D01*
X216385714Y-149952380D02*
X215814285Y-149952380D01*
X216100000Y-149952380D02*
X216100000Y-148952380D01*
X216004761Y-149095238D01*
X215909523Y-149190476D01*
X215814285Y-149238095D01*
X217004761Y-148952380D02*
X217100000Y-148952380D01*
X217195238Y-149000000D01*
X217242857Y-149047619D01*
X217290476Y-149142857D01*
X217338095Y-149333333D01*
X217338095Y-149571428D01*
X217290476Y-149761904D01*
X217242857Y-149857142D01*
X217195238Y-149904761D01*
X217100000Y-149952380D01*
X217004761Y-149952380D01*
X216909523Y-149904761D01*
X216861904Y-149857142D01*
X216814285Y-149761904D01*
X216766666Y-149571428D01*
X216766666Y-149333333D01*
X216814285Y-149142857D01*
X216861904Y-149047619D01*
X216909523Y-149000000D01*
X217004761Y-148952380D01*
X213978809Y-157745833D02*
X214281190Y-157745833D01*
X213918333Y-157927261D02*
X214130000Y-157292261D01*
X214341666Y-157927261D01*
D13*
%TO.C,C204*%
X342181428Y-188011628D02*
X342205619Y-188033400D01*
X342229809Y-188098714D01*
X342229809Y-188142257D01*
X342205619Y-188207571D01*
X342157238Y-188251114D01*
X342108857Y-188272885D01*
X342012095Y-188294657D01*
X341939523Y-188294657D01*
X341842761Y-188272885D01*
X341794380Y-188251114D01*
X341746000Y-188207571D01*
X341721809Y-188142257D01*
X341721809Y-188098714D01*
X341746000Y-188033400D01*
X341770190Y-188011628D01*
X341770190Y-187837457D02*
X341746000Y-187815685D01*
X341721809Y-187772142D01*
X341721809Y-187663285D01*
X341746000Y-187619742D01*
X341770190Y-187597971D01*
X341818571Y-187576200D01*
X341866952Y-187576200D01*
X341939523Y-187597971D01*
X342229809Y-187859228D01*
X342229809Y-187576200D01*
X341721809Y-187293171D02*
X341721809Y-187249628D01*
X341746000Y-187206085D01*
X341770190Y-187184314D01*
X341818571Y-187162542D01*
X341915333Y-187140771D01*
X342036285Y-187140771D01*
X342133047Y-187162542D01*
X342181428Y-187184314D01*
X342205619Y-187206085D01*
X342229809Y-187249628D01*
X342229809Y-187293171D01*
X342205619Y-187336714D01*
X342181428Y-187358485D01*
X342133047Y-187380257D01*
X342036285Y-187402028D01*
X341915333Y-187402028D01*
X341818571Y-187380257D01*
X341770190Y-187358485D01*
X341746000Y-187336714D01*
X341721809Y-187293171D01*
X341891142Y-186748885D02*
X342229809Y-186748885D01*
X341697619Y-186857742D02*
X342060476Y-186966600D01*
X342060476Y-186683571D01*
D11*
%TO.C,D111*%
X198890476Y-173247619D02*
X198890476Y-174247619D01*
X198652380Y-174247619D01*
X198509523Y-174200000D01*
X198414285Y-174104761D01*
X198366666Y-174009523D01*
X198319047Y-173819047D01*
X198319047Y-173676190D01*
X198366666Y-173485714D01*
X198414285Y-173390476D01*
X198509523Y-173295238D01*
X198652380Y-173247619D01*
X198890476Y-173247619D01*
X197366666Y-173247619D02*
X197938095Y-173247619D01*
X197652380Y-173247619D02*
X197652380Y-174247619D01*
X197747619Y-174104761D01*
X197842857Y-174009523D01*
X197938095Y-173961904D01*
X196414285Y-173247619D02*
X196985714Y-173247619D01*
X196700000Y-173247619D02*
X196700000Y-174247619D01*
X196795238Y-174104761D01*
X196890476Y-174009523D01*
X196985714Y-173961904D01*
X195461904Y-173247619D02*
X196033333Y-173247619D01*
X195747619Y-173247619D02*
X195747619Y-174247619D01*
X195842857Y-174104761D01*
X195938095Y-174009523D01*
X196033333Y-173961904D01*
X198821190Y-165454166D02*
X198518809Y-165454166D01*
X198881666Y-165272738D02*
X198670000Y-165907738D01*
X198458333Y-165272738D01*
D12*
%TO.C,C202*%
X322216666Y-181250000D02*
X322183333Y-181283333D01*
X322083333Y-181316666D01*
X322016666Y-181316666D01*
X321916666Y-181283333D01*
X321850000Y-181216666D01*
X321816666Y-181150000D01*
X321783333Y-181016666D01*
X321783333Y-180916666D01*
X321816666Y-180783333D01*
X321850000Y-180716666D01*
X321916666Y-180650000D01*
X322016666Y-180616666D01*
X322083333Y-180616666D01*
X322183333Y-180650000D01*
X322216666Y-180683333D01*
X322483333Y-180683333D02*
X322516666Y-180650000D01*
X322583333Y-180616666D01*
X322750000Y-180616666D01*
X322816666Y-180650000D01*
X322850000Y-180683333D01*
X322883333Y-180750000D01*
X322883333Y-180816666D01*
X322850000Y-180916666D01*
X322450000Y-181316666D01*
X322883333Y-181316666D01*
X323316666Y-180616666D02*
X323383333Y-180616666D01*
X323450000Y-180650000D01*
X323483333Y-180683333D01*
X323516666Y-180750000D01*
X323550000Y-180883333D01*
X323550000Y-181050000D01*
X323516666Y-181183333D01*
X323483333Y-181250000D01*
X323450000Y-181283333D01*
X323383333Y-181316666D01*
X323316666Y-181316666D01*
X323250000Y-181283333D01*
X323216666Y-181250000D01*
X323183333Y-181183333D01*
X323150000Y-181050000D01*
X323150000Y-180883333D01*
X323183333Y-180750000D01*
X323216666Y-180683333D01*
X323250000Y-180650000D01*
X323316666Y-180616666D01*
X323816666Y-180683333D02*
X323850000Y-180650000D01*
X323916666Y-180616666D01*
X324083333Y-180616666D01*
X324150000Y-180650000D01*
X324183333Y-180683333D01*
X324216666Y-180750000D01*
X324216666Y-180816666D01*
X324183333Y-180916666D01*
X323783333Y-181316666D01*
X324216666Y-181316666D01*
D11*
%TO.C,D212*%
X293909523Y-149952380D02*
X293909523Y-148952380D01*
X294147619Y-148952380D01*
X294290476Y-149000000D01*
X294385714Y-149095238D01*
X294433333Y-149190476D01*
X294480952Y-149380952D01*
X294480952Y-149523809D01*
X294433333Y-149714285D01*
X294385714Y-149809523D01*
X294290476Y-149904761D01*
X294147619Y-149952380D01*
X293909523Y-149952380D01*
X294861904Y-149047619D02*
X294909523Y-149000000D01*
X295004761Y-148952380D01*
X295242857Y-148952380D01*
X295338095Y-149000000D01*
X295385714Y-149047619D01*
X295433333Y-149142857D01*
X295433333Y-149238095D01*
X295385714Y-149380952D01*
X294814285Y-149952380D01*
X295433333Y-149952380D01*
X296385714Y-149952380D02*
X295814285Y-149952380D01*
X296100000Y-149952380D02*
X296100000Y-148952380D01*
X296004761Y-149095238D01*
X295909523Y-149190476D01*
X295814285Y-149238095D01*
X296766666Y-149047619D02*
X296814285Y-149000000D01*
X296909523Y-148952380D01*
X297147619Y-148952380D01*
X297242857Y-149000000D01*
X297290476Y-149047619D01*
X297338095Y-149142857D01*
X297338095Y-149238095D01*
X297290476Y-149380952D01*
X296719047Y-149952380D01*
X297338095Y-149952380D01*
X293978809Y-157745833D02*
X294281190Y-157745833D01*
X293918333Y-157927261D02*
X294130000Y-157292261D01*
X294341666Y-157927261D01*
%TO.C,D112*%
X158890476Y-173247619D02*
X158890476Y-174247619D01*
X158652380Y-174247619D01*
X158509523Y-174200000D01*
X158414285Y-174104761D01*
X158366666Y-174009523D01*
X158319047Y-173819047D01*
X158319047Y-173676190D01*
X158366666Y-173485714D01*
X158414285Y-173390476D01*
X158509523Y-173295238D01*
X158652380Y-173247619D01*
X158890476Y-173247619D01*
X157366666Y-173247619D02*
X157938095Y-173247619D01*
X157652380Y-173247619D02*
X157652380Y-174247619D01*
X157747619Y-174104761D01*
X157842857Y-174009523D01*
X157938095Y-173961904D01*
X156414285Y-173247619D02*
X156985714Y-173247619D01*
X156700000Y-173247619D02*
X156700000Y-174247619D01*
X156795238Y-174104761D01*
X156890476Y-174009523D01*
X156985714Y-173961904D01*
X156033333Y-174152380D02*
X155985714Y-174200000D01*
X155890476Y-174247619D01*
X155652380Y-174247619D01*
X155557142Y-174200000D01*
X155509523Y-174152380D01*
X155461904Y-174057142D01*
X155461904Y-173961904D01*
X155509523Y-173819047D01*
X156080952Y-173247619D01*
X155461904Y-173247619D01*
X158821190Y-165454166D02*
X158518809Y-165454166D01*
X158881666Y-165272738D02*
X158670000Y-165907738D01*
X158458333Y-165272738D01*
D12*
%TO.C,C121*%
X120466666Y-143250000D02*
X120433333Y-143283333D01*
X120333333Y-143316666D01*
X120266666Y-143316666D01*
X120166666Y-143283333D01*
X120100000Y-143216666D01*
X120066666Y-143150000D01*
X120033333Y-143016666D01*
X120033333Y-142916666D01*
X120066666Y-142783333D01*
X120100000Y-142716666D01*
X120166666Y-142650000D01*
X120266666Y-142616666D01*
X120333333Y-142616666D01*
X120433333Y-142650000D01*
X120466666Y-142683333D01*
X121133333Y-143316666D02*
X120733333Y-143316666D01*
X120933333Y-143316666D02*
X120933333Y-142616666D01*
X120866666Y-142716666D01*
X120800000Y-142783333D01*
X120733333Y-142816666D01*
X121400000Y-142683333D02*
X121433333Y-142650000D01*
X121500000Y-142616666D01*
X121666666Y-142616666D01*
X121733333Y-142650000D01*
X121766666Y-142683333D01*
X121800000Y-142750000D01*
X121800000Y-142816666D01*
X121766666Y-142916666D01*
X121366666Y-143316666D01*
X121800000Y-143316666D01*
X122466666Y-143316666D02*
X122066666Y-143316666D01*
X122266666Y-143316666D02*
X122266666Y-142616666D01*
X122200000Y-142716666D01*
X122133333Y-142783333D01*
X122066666Y-142816666D01*
D13*
%TO.C,R202*%
X337229809Y-171011628D02*
X336987904Y-171164028D01*
X337229809Y-171272885D02*
X336721809Y-171272885D01*
X336721809Y-171098714D01*
X336746000Y-171055171D01*
X336770190Y-171033400D01*
X336818571Y-171011628D01*
X336891142Y-171011628D01*
X336939523Y-171033400D01*
X336963714Y-171055171D01*
X336987904Y-171098714D01*
X336987904Y-171272885D01*
X336770190Y-170837457D02*
X336746000Y-170815685D01*
X336721809Y-170772142D01*
X336721809Y-170663285D01*
X336746000Y-170619742D01*
X336770190Y-170597971D01*
X336818571Y-170576200D01*
X336866952Y-170576200D01*
X336939523Y-170597971D01*
X337229809Y-170859228D01*
X337229809Y-170576200D01*
X336721809Y-170293171D02*
X336721809Y-170249628D01*
X336746000Y-170206085D01*
X336770190Y-170184314D01*
X336818571Y-170162542D01*
X336915333Y-170140771D01*
X337036285Y-170140771D01*
X337133047Y-170162542D01*
X337181428Y-170184314D01*
X337205619Y-170206085D01*
X337229809Y-170249628D01*
X337229809Y-170293171D01*
X337205619Y-170336714D01*
X337181428Y-170358485D01*
X337133047Y-170380257D01*
X337036285Y-170402028D01*
X336915333Y-170402028D01*
X336818571Y-170380257D01*
X336770190Y-170358485D01*
X336746000Y-170336714D01*
X336721809Y-170293171D01*
X336770190Y-169966600D02*
X336746000Y-169944828D01*
X336721809Y-169901285D01*
X336721809Y-169792428D01*
X336746000Y-169748885D01*
X336770190Y-169727114D01*
X336818571Y-169705342D01*
X336866952Y-169705342D01*
X336939523Y-169727114D01*
X337229809Y-169988371D01*
X337229809Y-169705342D01*
D11*
%TO.C,D206*%
X213909523Y-174952380D02*
X213909523Y-173952380D01*
X214147619Y-173952380D01*
X214290476Y-174000000D01*
X214385714Y-174095238D01*
X214433333Y-174190476D01*
X214480952Y-174380952D01*
X214480952Y-174523809D01*
X214433333Y-174714285D01*
X214385714Y-174809523D01*
X214290476Y-174904761D01*
X214147619Y-174952380D01*
X213909523Y-174952380D01*
X214861904Y-174047619D02*
X214909523Y-174000000D01*
X215004761Y-173952380D01*
X215242857Y-173952380D01*
X215338095Y-174000000D01*
X215385714Y-174047619D01*
X215433333Y-174142857D01*
X215433333Y-174238095D01*
X215385714Y-174380952D01*
X214814285Y-174952380D01*
X215433333Y-174952380D01*
X216052380Y-173952380D02*
X216147619Y-173952380D01*
X216242857Y-174000000D01*
X216290476Y-174047619D01*
X216338095Y-174142857D01*
X216385714Y-174333333D01*
X216385714Y-174571428D01*
X216338095Y-174761904D01*
X216290476Y-174857142D01*
X216242857Y-174904761D01*
X216147619Y-174952380D01*
X216052380Y-174952380D01*
X215957142Y-174904761D01*
X215909523Y-174857142D01*
X215861904Y-174761904D01*
X215814285Y-174571428D01*
X215814285Y-174333333D01*
X215861904Y-174142857D01*
X215909523Y-174047619D01*
X215957142Y-174000000D01*
X216052380Y-173952380D01*
X217242857Y-173952380D02*
X217052380Y-173952380D01*
X216957142Y-174000000D01*
X216909523Y-174047619D01*
X216814285Y-174190476D01*
X216766666Y-174380952D01*
X216766666Y-174761904D01*
X216814285Y-174857142D01*
X216861904Y-174904761D01*
X216957142Y-174952380D01*
X217147619Y-174952380D01*
X217242857Y-174904761D01*
X217290476Y-174857142D01*
X217338095Y-174761904D01*
X217338095Y-174523809D01*
X217290476Y-174428571D01*
X217242857Y-174380952D01*
X217147619Y-174333333D01*
X216957142Y-174333333D01*
X216861904Y-174380952D01*
X216814285Y-174428571D01*
X216766666Y-174523809D01*
X213978809Y-182745833D02*
X214281190Y-182745833D01*
X213918333Y-182927261D02*
X214130000Y-182292261D01*
X214341666Y-182927261D01*
D13*
%TO.C,R206*%
X333229809Y-173511628D02*
X332987904Y-173664028D01*
X333229809Y-173772885D02*
X332721809Y-173772885D01*
X332721809Y-173598714D01*
X332746000Y-173555171D01*
X332770190Y-173533400D01*
X332818571Y-173511628D01*
X332891142Y-173511628D01*
X332939523Y-173533400D01*
X332963714Y-173555171D01*
X332987904Y-173598714D01*
X332987904Y-173772885D01*
X332770190Y-173337457D02*
X332746000Y-173315685D01*
X332721809Y-173272142D01*
X332721809Y-173163285D01*
X332746000Y-173119742D01*
X332770190Y-173097971D01*
X332818571Y-173076200D01*
X332866952Y-173076200D01*
X332939523Y-173097971D01*
X333229809Y-173359228D01*
X333229809Y-173076200D01*
X332721809Y-172793171D02*
X332721809Y-172749628D01*
X332746000Y-172706085D01*
X332770190Y-172684314D01*
X332818571Y-172662542D01*
X332915333Y-172640771D01*
X333036285Y-172640771D01*
X333133047Y-172662542D01*
X333181428Y-172684314D01*
X333205619Y-172706085D01*
X333229809Y-172749628D01*
X333229809Y-172793171D01*
X333205619Y-172836714D01*
X333181428Y-172858485D01*
X333133047Y-172880257D01*
X333036285Y-172902028D01*
X332915333Y-172902028D01*
X332818571Y-172880257D01*
X332770190Y-172858485D01*
X332746000Y-172836714D01*
X332721809Y-172793171D01*
X332721809Y-172248885D02*
X332721809Y-172335971D01*
X332746000Y-172379514D01*
X332770190Y-172401285D01*
X332842761Y-172444828D01*
X332939523Y-172466600D01*
X333133047Y-172466600D01*
X333181428Y-172444828D01*
X333205619Y-172423057D01*
X333229809Y-172379514D01*
X333229809Y-172292428D01*
X333205619Y-172248885D01*
X333181428Y-172227114D01*
X333133047Y-172205342D01*
X333012095Y-172205342D01*
X332963714Y-172227114D01*
X332939523Y-172248885D01*
X332915333Y-172292428D01*
X332915333Y-172379514D01*
X332939523Y-172423057D01*
X332963714Y-172444828D01*
X333012095Y-172466600D01*
%TO.C,R106*%
X120229809Y-148511628D02*
X119987904Y-148664028D01*
X120229809Y-148772885D02*
X119721809Y-148772885D01*
X119721809Y-148598714D01*
X119746000Y-148555171D01*
X119770190Y-148533400D01*
X119818571Y-148511628D01*
X119891142Y-148511628D01*
X119939523Y-148533400D01*
X119963714Y-148555171D01*
X119987904Y-148598714D01*
X119987904Y-148772885D01*
X120229809Y-148076200D02*
X120229809Y-148337457D01*
X120229809Y-148206828D02*
X119721809Y-148206828D01*
X119794380Y-148250371D01*
X119842761Y-148293914D01*
X119866952Y-148337457D01*
X119721809Y-147793171D02*
X119721809Y-147749628D01*
X119746000Y-147706085D01*
X119770190Y-147684314D01*
X119818571Y-147662542D01*
X119915333Y-147640771D01*
X120036285Y-147640771D01*
X120133047Y-147662542D01*
X120181428Y-147684314D01*
X120205619Y-147706085D01*
X120229809Y-147749628D01*
X120229809Y-147793171D01*
X120205619Y-147836714D01*
X120181428Y-147858485D01*
X120133047Y-147880257D01*
X120036285Y-147902028D01*
X119915333Y-147902028D01*
X119818571Y-147880257D01*
X119770190Y-147858485D01*
X119746000Y-147836714D01*
X119721809Y-147793171D01*
X119721809Y-147248885D02*
X119721809Y-147335971D01*
X119746000Y-147379514D01*
X119770190Y-147401285D01*
X119842761Y-147444828D01*
X119939523Y-147466600D01*
X120133047Y-147466600D01*
X120181428Y-147444828D01*
X120205619Y-147423057D01*
X120229809Y-147379514D01*
X120229809Y-147292428D01*
X120205619Y-147248885D01*
X120181428Y-147227114D01*
X120133047Y-147205342D01*
X120012095Y-147205342D01*
X119963714Y-147227114D01*
X119939523Y-147248885D01*
X119915333Y-147292428D01*
X119915333Y-147379514D01*
X119939523Y-147423057D01*
X119963714Y-147444828D01*
X120012095Y-147466600D01*
D11*
%TO.C,D201*%
X173909523Y-199952380D02*
X173909523Y-198952380D01*
X174147619Y-198952380D01*
X174290476Y-199000000D01*
X174385714Y-199095238D01*
X174433333Y-199190476D01*
X174480952Y-199380952D01*
X174480952Y-199523809D01*
X174433333Y-199714285D01*
X174385714Y-199809523D01*
X174290476Y-199904761D01*
X174147619Y-199952380D01*
X173909523Y-199952380D01*
X174861904Y-199047619D02*
X174909523Y-199000000D01*
X175004761Y-198952380D01*
X175242857Y-198952380D01*
X175338095Y-199000000D01*
X175385714Y-199047619D01*
X175433333Y-199142857D01*
X175433333Y-199238095D01*
X175385714Y-199380952D01*
X174814285Y-199952380D01*
X175433333Y-199952380D01*
X176052380Y-198952380D02*
X176147619Y-198952380D01*
X176242857Y-199000000D01*
X176290476Y-199047619D01*
X176338095Y-199142857D01*
X176385714Y-199333333D01*
X176385714Y-199571428D01*
X176338095Y-199761904D01*
X176290476Y-199857142D01*
X176242857Y-199904761D01*
X176147619Y-199952380D01*
X176052380Y-199952380D01*
X175957142Y-199904761D01*
X175909523Y-199857142D01*
X175861904Y-199761904D01*
X175814285Y-199571428D01*
X175814285Y-199333333D01*
X175861904Y-199142857D01*
X175909523Y-199047619D01*
X175957142Y-199000000D01*
X176052380Y-198952380D01*
X177338095Y-199952380D02*
X176766666Y-199952380D01*
X177052380Y-199952380D02*
X177052380Y-198952380D01*
X176957142Y-199095238D01*
X176861904Y-199190476D01*
X176766666Y-199238095D01*
X173978809Y-207745833D02*
X174281190Y-207745833D01*
X173918333Y-207927261D02*
X174130000Y-207292261D01*
X174341666Y-207927261D01*
D12*
%TO.C,C110*%
X128216666Y-118250000D02*
X128183333Y-118283333D01*
X128083333Y-118316666D01*
X128016666Y-118316666D01*
X127916666Y-118283333D01*
X127850000Y-118216666D01*
X127816666Y-118150000D01*
X127783333Y-118016666D01*
X127783333Y-117916666D01*
X127816666Y-117783333D01*
X127850000Y-117716666D01*
X127916666Y-117650000D01*
X128016666Y-117616666D01*
X128083333Y-117616666D01*
X128183333Y-117650000D01*
X128216666Y-117683333D01*
X128883333Y-118316666D02*
X128483333Y-118316666D01*
X128683333Y-118316666D02*
X128683333Y-117616666D01*
X128616666Y-117716666D01*
X128550000Y-117783333D01*
X128483333Y-117816666D01*
X129550000Y-118316666D02*
X129150000Y-118316666D01*
X129350000Y-118316666D02*
X129350000Y-117616666D01*
X129283333Y-117716666D01*
X129216666Y-117783333D01*
X129150000Y-117816666D01*
X129983333Y-117616666D02*
X130050000Y-117616666D01*
X130116666Y-117650000D01*
X130150000Y-117683333D01*
X130183333Y-117750000D01*
X130216666Y-117883333D01*
X130216666Y-118050000D01*
X130183333Y-118183333D01*
X130150000Y-118250000D01*
X130116666Y-118283333D01*
X130050000Y-118316666D01*
X129983333Y-118316666D01*
X129916666Y-118283333D01*
X129883333Y-118250000D01*
X129850000Y-118183333D01*
X129816666Y-118050000D01*
X129816666Y-117883333D01*
X129850000Y-117750000D01*
X129883333Y-117683333D01*
X129916666Y-117650000D01*
X129983333Y-117616666D01*
D13*
%TO.C,R105*%
X120229809Y-154511628D02*
X119987904Y-154664028D01*
X120229809Y-154772885D02*
X119721809Y-154772885D01*
X119721809Y-154598714D01*
X119746000Y-154555171D01*
X119770190Y-154533400D01*
X119818571Y-154511628D01*
X119891142Y-154511628D01*
X119939523Y-154533400D01*
X119963714Y-154555171D01*
X119987904Y-154598714D01*
X119987904Y-154772885D01*
X120229809Y-154076200D02*
X120229809Y-154337457D01*
X120229809Y-154206828D02*
X119721809Y-154206828D01*
X119794380Y-154250371D01*
X119842761Y-154293914D01*
X119866952Y-154337457D01*
X119721809Y-153793171D02*
X119721809Y-153749628D01*
X119746000Y-153706085D01*
X119770190Y-153684314D01*
X119818571Y-153662542D01*
X119915333Y-153640771D01*
X120036285Y-153640771D01*
X120133047Y-153662542D01*
X120181428Y-153684314D01*
X120205619Y-153706085D01*
X120229809Y-153749628D01*
X120229809Y-153793171D01*
X120205619Y-153836714D01*
X120181428Y-153858485D01*
X120133047Y-153880257D01*
X120036285Y-153902028D01*
X119915333Y-153902028D01*
X119818571Y-153880257D01*
X119770190Y-153858485D01*
X119746000Y-153836714D01*
X119721809Y-153793171D01*
X119721809Y-153227114D02*
X119721809Y-153444828D01*
X119963714Y-153466600D01*
X119939523Y-153444828D01*
X119915333Y-153401285D01*
X119915333Y-153292428D01*
X119939523Y-153248885D01*
X119963714Y-153227114D01*
X120012095Y-153205342D01*
X120133047Y-153205342D01*
X120181428Y-153227114D01*
X120205619Y-153248885D01*
X120229809Y-153292428D01*
X120229809Y-153401285D01*
X120205619Y-153444828D01*
X120181428Y-153466600D01*
D11*
%TO.C,D102*%
X238890476Y-124547619D02*
X238890476Y-125547619D01*
X238652380Y-125547619D01*
X238509523Y-125500000D01*
X238414285Y-125404761D01*
X238366666Y-125309523D01*
X238319047Y-125119047D01*
X238319047Y-124976190D01*
X238366666Y-124785714D01*
X238414285Y-124690476D01*
X238509523Y-124595238D01*
X238652380Y-124547619D01*
X238890476Y-124547619D01*
X237366666Y-124547619D02*
X237938095Y-124547619D01*
X237652380Y-124547619D02*
X237652380Y-125547619D01*
X237747619Y-125404761D01*
X237842857Y-125309523D01*
X237938095Y-125261904D01*
X236747619Y-125547619D02*
X236652380Y-125547619D01*
X236557142Y-125500000D01*
X236509523Y-125452380D01*
X236461904Y-125357142D01*
X236414285Y-125166666D01*
X236414285Y-124928571D01*
X236461904Y-124738095D01*
X236509523Y-124642857D01*
X236557142Y-124595238D01*
X236652380Y-124547619D01*
X236747619Y-124547619D01*
X236842857Y-124595238D01*
X236890476Y-124642857D01*
X236938095Y-124738095D01*
X236985714Y-124928571D01*
X236985714Y-125166666D01*
X236938095Y-125357142D01*
X236890476Y-125452380D01*
X236842857Y-125500000D01*
X236747619Y-125547619D01*
X236033333Y-125452380D02*
X235985714Y-125500000D01*
X235890476Y-125547619D01*
X235652380Y-125547619D01*
X235557142Y-125500000D01*
X235509523Y-125452380D01*
X235461904Y-125357142D01*
X235461904Y-125261904D01*
X235509523Y-125119047D01*
X236080952Y-124547619D01*
X235461904Y-124547619D01*
X238821190Y-116754166D02*
X238518809Y-116754166D01*
X238881666Y-116572738D02*
X238670000Y-117207738D01*
X238458333Y-116572738D01*
D14*
%TO.C,C103*%
X115178707Y-137959949D02*
X115202534Y-137983776D01*
X115226362Y-138055259D01*
X115226362Y-138102914D01*
X115202534Y-138174397D01*
X115154879Y-138222052D01*
X115107224Y-138245880D01*
X115011913Y-138269708D01*
X114940430Y-138269708D01*
X114845120Y-138245880D01*
X114797465Y-138222052D01*
X114749810Y-138174397D01*
X114725982Y-138102914D01*
X114725982Y-138055259D01*
X114749810Y-137983776D01*
X114773637Y-137959949D01*
X115226362Y-137483396D02*
X115226362Y-137769328D01*
X115226362Y-137626362D02*
X114725982Y-137626362D01*
X114797465Y-137674017D01*
X114845120Y-137721672D01*
X114868948Y-137769328D01*
X114725982Y-137173637D02*
X114725982Y-137125982D01*
X114749810Y-137078327D01*
X114773637Y-137054499D01*
X114821292Y-137030671D01*
X114916603Y-137006844D01*
X115035741Y-137006844D01*
X115131051Y-137030671D01*
X115178707Y-137054499D01*
X115202534Y-137078327D01*
X115226362Y-137125982D01*
X115226362Y-137173637D01*
X115202534Y-137221292D01*
X115178707Y-137245120D01*
X115131051Y-137268948D01*
X115035741Y-137292775D01*
X114916603Y-137292775D01*
X114821292Y-137268948D01*
X114773637Y-137245120D01*
X114749810Y-137221292D01*
X114725982Y-137173637D01*
X114725982Y-136840050D02*
X114725982Y-136530291D01*
X114916603Y-136697085D01*
X114916603Y-136625602D01*
X114940430Y-136577947D01*
X114964258Y-136554119D01*
X115011913Y-136530291D01*
X115131051Y-136530291D01*
X115178707Y-136554119D01*
X115202534Y-136577947D01*
X115226362Y-136625602D01*
X115226362Y-136768568D01*
X115202534Y-136816223D01*
X115178707Y-136840050D01*
D11*
%TO.C,J103*%
X104197620Y-121464285D02*
X103483334Y-121464285D01*
X103340477Y-121416666D01*
X103245239Y-121321428D01*
X103197620Y-121178571D01*
X103197620Y-121083333D01*
X103197620Y-122464285D02*
X103197620Y-121892857D01*
X103197620Y-122178571D02*
X104197620Y-122178571D01*
X104054762Y-122083333D01*
X103959524Y-121988095D01*
X103911905Y-121892857D01*
X104197620Y-123083333D02*
X104197620Y-123178571D01*
X104150001Y-123273809D01*
X104102381Y-123321428D01*
X104007143Y-123369047D01*
X103816667Y-123416666D01*
X103578572Y-123416666D01*
X103388096Y-123369047D01*
X103292858Y-123321428D01*
X103245239Y-123273809D01*
X103197620Y-123178571D01*
X103197620Y-123083333D01*
X103245239Y-122988095D01*
X103292858Y-122940476D01*
X103388096Y-122892857D01*
X103578572Y-122845238D01*
X103816667Y-122845238D01*
X104007143Y-122892857D01*
X104102381Y-122940476D01*
X104150001Y-122988095D01*
X104197620Y-123083333D01*
X104197620Y-123750000D02*
X104197620Y-124369047D01*
X103816667Y-124035714D01*
X103816667Y-124178571D01*
X103769048Y-124273809D01*
X103721429Y-124321428D01*
X103626191Y-124369047D01*
X103388096Y-124369047D01*
X103292858Y-124321428D01*
X103245239Y-124273809D01*
X103197620Y-124178571D01*
X103197620Y-123892857D01*
X103245239Y-123797619D01*
X103292858Y-123750000D01*
%TO.C,Q201*%
X326452380Y-156547619D02*
X326357142Y-156500000D01*
X326261904Y-156404761D01*
X326119047Y-156261904D01*
X326023809Y-156214285D01*
X325928571Y-156214285D01*
X325976190Y-156452380D02*
X325880952Y-156404761D01*
X325785714Y-156309523D01*
X325738095Y-156119047D01*
X325738095Y-155785714D01*
X325785714Y-155595238D01*
X325880952Y-155500000D01*
X325976190Y-155452380D01*
X326166666Y-155452380D01*
X326261904Y-155500000D01*
X326357142Y-155595238D01*
X326404761Y-155785714D01*
X326404761Y-156119047D01*
X326357142Y-156309523D01*
X326261904Y-156404761D01*
X326166666Y-156452380D01*
X325976190Y-156452380D01*
X326785714Y-155547619D02*
X326833333Y-155500000D01*
X326928571Y-155452380D01*
X327166666Y-155452380D01*
X327261904Y-155500000D01*
X327309523Y-155547619D01*
X327357142Y-155642857D01*
X327357142Y-155738095D01*
X327309523Y-155880952D01*
X326738095Y-156452380D01*
X327357142Y-156452380D01*
X327976190Y-155452380D02*
X328071428Y-155452380D01*
X328166666Y-155500000D01*
X328214285Y-155547619D01*
X328261904Y-155642857D01*
X328309523Y-155833333D01*
X328309523Y-156071428D01*
X328261904Y-156261904D01*
X328214285Y-156357142D01*
X328166666Y-156404761D01*
X328071428Y-156452380D01*
X327976190Y-156452380D01*
X327880952Y-156404761D01*
X327833333Y-156357142D01*
X327785714Y-156261904D01*
X327738095Y-156071428D01*
X327738095Y-155833333D01*
X327785714Y-155642857D01*
X327833333Y-155547619D01*
X327880952Y-155500000D01*
X327976190Y-155452380D01*
X329261904Y-156452380D02*
X328690476Y-156452380D01*
X328976190Y-156452380D02*
X328976190Y-155452380D01*
X328880952Y-155595238D01*
X328785714Y-155690476D01*
X328690476Y-155738095D01*
%TO.C,D103*%
X198890476Y-124547619D02*
X198890476Y-125547619D01*
X198652380Y-125547619D01*
X198509523Y-125500000D01*
X198414285Y-125404761D01*
X198366666Y-125309523D01*
X198319047Y-125119047D01*
X198319047Y-124976190D01*
X198366666Y-124785714D01*
X198414285Y-124690476D01*
X198509523Y-124595238D01*
X198652380Y-124547619D01*
X198890476Y-124547619D01*
X197366666Y-124547619D02*
X197938095Y-124547619D01*
X197652380Y-124547619D02*
X197652380Y-125547619D01*
X197747619Y-125404761D01*
X197842857Y-125309523D01*
X197938095Y-125261904D01*
X196747619Y-125547619D02*
X196652380Y-125547619D01*
X196557142Y-125500000D01*
X196509523Y-125452380D01*
X196461904Y-125357142D01*
X196414285Y-125166666D01*
X196414285Y-124928571D01*
X196461904Y-124738095D01*
X196509523Y-124642857D01*
X196557142Y-124595238D01*
X196652380Y-124547619D01*
X196747619Y-124547619D01*
X196842857Y-124595238D01*
X196890476Y-124642857D01*
X196938095Y-124738095D01*
X196985714Y-124928571D01*
X196985714Y-125166666D01*
X196938095Y-125357142D01*
X196890476Y-125452380D01*
X196842857Y-125500000D01*
X196747619Y-125547619D01*
X196080952Y-125547619D02*
X195461904Y-125547619D01*
X195795238Y-125166666D01*
X195652380Y-125166666D01*
X195557142Y-125119047D01*
X195509523Y-125071428D01*
X195461904Y-124976190D01*
X195461904Y-124738095D01*
X195509523Y-124642857D01*
X195557142Y-124595238D01*
X195652380Y-124547619D01*
X195938095Y-124547619D01*
X196033333Y-124595238D01*
X196080952Y-124642857D01*
X198821190Y-116754166D02*
X198518809Y-116754166D01*
X198881666Y-116572738D02*
X198670000Y-117207738D01*
X198458333Y-116572738D01*
D13*
%TO.C,R107*%
X124988371Y-156229809D02*
X124835971Y-155987904D01*
X124727114Y-156229809D02*
X124727114Y-155721809D01*
X124901285Y-155721809D01*
X124944828Y-155746000D01*
X124966600Y-155770190D01*
X124988371Y-155818571D01*
X124988371Y-155891142D01*
X124966600Y-155939523D01*
X124944828Y-155963714D01*
X124901285Y-155987904D01*
X124727114Y-155987904D01*
X125423800Y-156229809D02*
X125162542Y-156229809D01*
X125293171Y-156229809D02*
X125293171Y-155721809D01*
X125249628Y-155794380D01*
X125206085Y-155842761D01*
X125162542Y-155866952D01*
X125706828Y-155721809D02*
X125750371Y-155721809D01*
X125793914Y-155746000D01*
X125815685Y-155770190D01*
X125837457Y-155818571D01*
X125859228Y-155915333D01*
X125859228Y-156036285D01*
X125837457Y-156133047D01*
X125815685Y-156181428D01*
X125793914Y-156205619D01*
X125750371Y-156229809D01*
X125706828Y-156229809D01*
X125663285Y-156205619D01*
X125641514Y-156181428D01*
X125619742Y-156133047D01*
X125597971Y-156036285D01*
X125597971Y-155915333D01*
X125619742Y-155818571D01*
X125641514Y-155770190D01*
X125663285Y-155746000D01*
X125706828Y-155721809D01*
X126011628Y-155721809D02*
X126316428Y-155721809D01*
X126120485Y-156229809D01*
D11*
%TO.C,D209*%
X173909523Y-149952380D02*
X173909523Y-148952380D01*
X174147619Y-148952380D01*
X174290476Y-149000000D01*
X174385714Y-149095238D01*
X174433333Y-149190476D01*
X174480952Y-149380952D01*
X174480952Y-149523809D01*
X174433333Y-149714285D01*
X174385714Y-149809523D01*
X174290476Y-149904761D01*
X174147619Y-149952380D01*
X173909523Y-149952380D01*
X174861904Y-149047619D02*
X174909523Y-149000000D01*
X175004761Y-148952380D01*
X175242857Y-148952380D01*
X175338095Y-149000000D01*
X175385714Y-149047619D01*
X175433333Y-149142857D01*
X175433333Y-149238095D01*
X175385714Y-149380952D01*
X174814285Y-149952380D01*
X175433333Y-149952380D01*
X176052380Y-148952380D02*
X176147619Y-148952380D01*
X176242857Y-149000000D01*
X176290476Y-149047619D01*
X176338095Y-149142857D01*
X176385714Y-149333333D01*
X176385714Y-149571428D01*
X176338095Y-149761904D01*
X176290476Y-149857142D01*
X176242857Y-149904761D01*
X176147619Y-149952380D01*
X176052380Y-149952380D01*
X175957142Y-149904761D01*
X175909523Y-149857142D01*
X175861904Y-149761904D01*
X175814285Y-149571428D01*
X175814285Y-149333333D01*
X175861904Y-149142857D01*
X175909523Y-149047619D01*
X175957142Y-149000000D01*
X176052380Y-148952380D01*
X176861904Y-149952380D02*
X177052380Y-149952380D01*
X177147619Y-149904761D01*
X177195238Y-149857142D01*
X177290476Y-149714285D01*
X177338095Y-149523809D01*
X177338095Y-149142857D01*
X177290476Y-149047619D01*
X177242857Y-149000000D01*
X177147619Y-148952380D01*
X176957142Y-148952380D01*
X176861904Y-149000000D01*
X176814285Y-149047619D01*
X176766666Y-149142857D01*
X176766666Y-149380952D01*
X176814285Y-149476190D01*
X176861904Y-149523809D01*
X176957142Y-149571428D01*
X177147619Y-149571428D01*
X177242857Y-149523809D01*
X177290476Y-149476190D01*
X177338095Y-149380952D01*
X173978809Y-157745833D02*
X174281190Y-157745833D01*
X173918333Y-157927261D02*
X174130000Y-157292261D01*
X174341666Y-157927261D01*
%TO.C,U203*%
X318785714Y-166452380D02*
X318785714Y-167261904D01*
X318833333Y-167357142D01*
X318880952Y-167404761D01*
X318976190Y-167452380D01*
X319166666Y-167452380D01*
X319261904Y-167404761D01*
X319309523Y-167357142D01*
X319357142Y-167261904D01*
X319357142Y-166452380D01*
X319785714Y-166547619D02*
X319833333Y-166500000D01*
X319928571Y-166452380D01*
X320166666Y-166452380D01*
X320261904Y-166500000D01*
X320309523Y-166547619D01*
X320357142Y-166642857D01*
X320357142Y-166738095D01*
X320309523Y-166880952D01*
X319738095Y-167452380D01*
X320357142Y-167452380D01*
X320976190Y-166452380D02*
X321071428Y-166452380D01*
X321166666Y-166500000D01*
X321214285Y-166547619D01*
X321261904Y-166642857D01*
X321309523Y-166833333D01*
X321309523Y-167071428D01*
X321261904Y-167261904D01*
X321214285Y-167357142D01*
X321166666Y-167404761D01*
X321071428Y-167452380D01*
X320976190Y-167452380D01*
X320880952Y-167404761D01*
X320833333Y-167357142D01*
X320785714Y-167261904D01*
X320738095Y-167071428D01*
X320738095Y-166833333D01*
X320785714Y-166642857D01*
X320833333Y-166547619D01*
X320880952Y-166500000D01*
X320976190Y-166452380D01*
X321642857Y-166452380D02*
X322261904Y-166452380D01*
X321928571Y-166833333D01*
X322071428Y-166833333D01*
X322166666Y-166880952D01*
X322214285Y-166928571D01*
X322261904Y-167023809D01*
X322261904Y-167261904D01*
X322214285Y-167357142D01*
X322166666Y-167404761D01*
X322071428Y-167452380D01*
X321785714Y-167452380D01*
X321690476Y-167404761D01*
X321642857Y-167357142D01*
D13*
%TO.C,C104*%
X114681428Y-134911628D02*
X114705619Y-134933400D01*
X114729809Y-134998714D01*
X114729809Y-135042257D01*
X114705619Y-135107571D01*
X114657238Y-135151114D01*
X114608857Y-135172885D01*
X114512095Y-135194657D01*
X114439523Y-135194657D01*
X114342761Y-135172885D01*
X114294380Y-135151114D01*
X114246000Y-135107571D01*
X114221809Y-135042257D01*
X114221809Y-134998714D01*
X114246000Y-134933400D01*
X114270190Y-134911628D01*
X114729809Y-134476200D02*
X114729809Y-134737457D01*
X114729809Y-134606828D02*
X114221809Y-134606828D01*
X114294380Y-134650371D01*
X114342761Y-134693914D01*
X114366952Y-134737457D01*
X114221809Y-134193171D02*
X114221809Y-134149628D01*
X114246000Y-134106085D01*
X114270190Y-134084314D01*
X114318571Y-134062542D01*
X114415333Y-134040771D01*
X114536285Y-134040771D01*
X114633047Y-134062542D01*
X114681428Y-134084314D01*
X114705619Y-134106085D01*
X114729809Y-134149628D01*
X114729809Y-134193171D01*
X114705619Y-134236714D01*
X114681428Y-134258485D01*
X114633047Y-134280257D01*
X114536285Y-134302028D01*
X114415333Y-134302028D01*
X114318571Y-134280257D01*
X114270190Y-134258485D01*
X114246000Y-134236714D01*
X114221809Y-134193171D01*
X114391142Y-133648885D02*
X114729809Y-133648885D01*
X114197619Y-133757742D02*
X114560476Y-133866600D01*
X114560476Y-133583571D01*
D11*
%TO.C,D207*%
X253909523Y-174952380D02*
X253909523Y-173952380D01*
X254147619Y-173952380D01*
X254290476Y-174000000D01*
X254385714Y-174095238D01*
X254433333Y-174190476D01*
X254480952Y-174380952D01*
X254480952Y-174523809D01*
X254433333Y-174714285D01*
X254385714Y-174809523D01*
X254290476Y-174904761D01*
X254147619Y-174952380D01*
X253909523Y-174952380D01*
X254861904Y-174047619D02*
X254909523Y-174000000D01*
X255004761Y-173952380D01*
X255242857Y-173952380D01*
X255338095Y-174000000D01*
X255385714Y-174047619D01*
X255433333Y-174142857D01*
X255433333Y-174238095D01*
X255385714Y-174380952D01*
X254814285Y-174952380D01*
X255433333Y-174952380D01*
X256052380Y-173952380D02*
X256147619Y-173952380D01*
X256242857Y-174000000D01*
X256290476Y-174047619D01*
X256338095Y-174142857D01*
X256385714Y-174333333D01*
X256385714Y-174571428D01*
X256338095Y-174761904D01*
X256290476Y-174857142D01*
X256242857Y-174904761D01*
X256147619Y-174952380D01*
X256052380Y-174952380D01*
X255957142Y-174904761D01*
X255909523Y-174857142D01*
X255861904Y-174761904D01*
X255814285Y-174571428D01*
X255814285Y-174333333D01*
X255861904Y-174142857D01*
X255909523Y-174047619D01*
X255957142Y-174000000D01*
X256052380Y-173952380D01*
X256719047Y-173952380D02*
X257385714Y-173952380D01*
X256957142Y-174952380D01*
X253978809Y-182745833D02*
X254281190Y-182745833D01*
X253918333Y-182927261D02*
X254130000Y-182292261D01*
X254341666Y-182927261D01*
%TO.C,D115*%
X198890476Y-198247619D02*
X198890476Y-199247619D01*
X198652380Y-199247619D01*
X198509523Y-199200000D01*
X198414285Y-199104761D01*
X198366666Y-199009523D01*
X198319047Y-198819047D01*
X198319047Y-198676190D01*
X198366666Y-198485714D01*
X198414285Y-198390476D01*
X198509523Y-198295238D01*
X198652380Y-198247619D01*
X198890476Y-198247619D01*
X197366666Y-198247619D02*
X197938095Y-198247619D01*
X197652380Y-198247619D02*
X197652380Y-199247619D01*
X197747619Y-199104761D01*
X197842857Y-199009523D01*
X197938095Y-198961904D01*
X196414285Y-198247619D02*
X196985714Y-198247619D01*
X196700000Y-198247619D02*
X196700000Y-199247619D01*
X196795238Y-199104761D01*
X196890476Y-199009523D01*
X196985714Y-198961904D01*
X195509523Y-199247619D02*
X195985714Y-199247619D01*
X196033333Y-198771428D01*
X195985714Y-198819047D01*
X195890476Y-198866666D01*
X195652380Y-198866666D01*
X195557142Y-198819047D01*
X195509523Y-198771428D01*
X195461904Y-198676190D01*
X195461904Y-198438095D01*
X195509523Y-198342857D01*
X195557142Y-198295238D01*
X195652380Y-198247619D01*
X195890476Y-198247619D01*
X195985714Y-198295238D01*
X196033333Y-198342857D01*
X198821190Y-190454166D02*
X198518809Y-190454166D01*
X198881666Y-190272738D02*
X198670000Y-190907738D01*
X198458333Y-190272738D01*
%TO.C,D204*%
X293909523Y-199952380D02*
X293909523Y-198952380D01*
X294147619Y-198952380D01*
X294290476Y-199000000D01*
X294385714Y-199095238D01*
X294433333Y-199190476D01*
X294480952Y-199380952D01*
X294480952Y-199523809D01*
X294433333Y-199714285D01*
X294385714Y-199809523D01*
X294290476Y-199904761D01*
X294147619Y-199952380D01*
X293909523Y-199952380D01*
X294861904Y-199047619D02*
X294909523Y-199000000D01*
X295004761Y-198952380D01*
X295242857Y-198952380D01*
X295338095Y-199000000D01*
X295385714Y-199047619D01*
X295433333Y-199142857D01*
X295433333Y-199238095D01*
X295385714Y-199380952D01*
X294814285Y-199952380D01*
X295433333Y-199952380D01*
X296052380Y-198952380D02*
X296147619Y-198952380D01*
X296242857Y-199000000D01*
X296290476Y-199047619D01*
X296338095Y-199142857D01*
X296385714Y-199333333D01*
X296385714Y-199571428D01*
X296338095Y-199761904D01*
X296290476Y-199857142D01*
X296242857Y-199904761D01*
X296147619Y-199952380D01*
X296052380Y-199952380D01*
X295957142Y-199904761D01*
X295909523Y-199857142D01*
X295861904Y-199761904D01*
X295814285Y-199571428D01*
X295814285Y-199333333D01*
X295861904Y-199142857D01*
X295909523Y-199047619D01*
X295957142Y-199000000D01*
X296052380Y-198952380D01*
X297242857Y-199285714D02*
X297242857Y-199952380D01*
X297004761Y-198904761D02*
X296766666Y-199619047D01*
X297385714Y-199619047D01*
X293978809Y-207745833D02*
X294281190Y-207745833D01*
X293918333Y-207927261D02*
X294130000Y-207292261D01*
X294341666Y-207927261D01*
D13*
%TO.C,R114*%
X137229809Y-148511628D02*
X136987904Y-148664028D01*
X137229809Y-148772885D02*
X136721809Y-148772885D01*
X136721809Y-148598714D01*
X136746000Y-148555171D01*
X136770190Y-148533400D01*
X136818571Y-148511628D01*
X136891142Y-148511628D01*
X136939523Y-148533400D01*
X136963714Y-148555171D01*
X136987904Y-148598714D01*
X136987904Y-148772885D01*
X137229809Y-148076200D02*
X137229809Y-148337457D01*
X137229809Y-148206828D02*
X136721809Y-148206828D01*
X136794380Y-148250371D01*
X136842761Y-148293914D01*
X136866952Y-148337457D01*
X137229809Y-147640771D02*
X137229809Y-147902028D01*
X137229809Y-147771400D02*
X136721809Y-147771400D01*
X136794380Y-147814942D01*
X136842761Y-147858485D01*
X136866952Y-147902028D01*
X136891142Y-147248885D02*
X137229809Y-147248885D01*
X136697619Y-147357742D02*
X137060476Y-147466600D01*
X137060476Y-147183571D01*
D12*
%TO.C,C106*%
X132716666Y-118250000D02*
X132683333Y-118283333D01*
X132583333Y-118316666D01*
X132516666Y-118316666D01*
X132416666Y-118283333D01*
X132350000Y-118216666D01*
X132316666Y-118150000D01*
X132283333Y-118016666D01*
X132283333Y-117916666D01*
X132316666Y-117783333D01*
X132350000Y-117716666D01*
X132416666Y-117650000D01*
X132516666Y-117616666D01*
X132583333Y-117616666D01*
X132683333Y-117650000D01*
X132716666Y-117683333D01*
X133383333Y-118316666D02*
X132983333Y-118316666D01*
X133183333Y-118316666D02*
X133183333Y-117616666D01*
X133116666Y-117716666D01*
X133050000Y-117783333D01*
X132983333Y-117816666D01*
X133816666Y-117616666D02*
X133883333Y-117616666D01*
X133950000Y-117650000D01*
X133983333Y-117683333D01*
X134016666Y-117750000D01*
X134050000Y-117883333D01*
X134050000Y-118050000D01*
X134016666Y-118183333D01*
X133983333Y-118250000D01*
X133950000Y-118283333D01*
X133883333Y-118316666D01*
X133816666Y-118316666D01*
X133750000Y-118283333D01*
X133716666Y-118250000D01*
X133683333Y-118183333D01*
X133650000Y-118050000D01*
X133650000Y-117883333D01*
X133683333Y-117750000D01*
X133716666Y-117683333D01*
X133750000Y-117650000D01*
X133816666Y-117616666D01*
X134650000Y-117616666D02*
X134516666Y-117616666D01*
X134450000Y-117650000D01*
X134416666Y-117683333D01*
X134350000Y-117783333D01*
X134316666Y-117916666D01*
X134316666Y-118183333D01*
X134350000Y-118250000D01*
X134383333Y-118283333D01*
X134450000Y-118316666D01*
X134583333Y-118316666D01*
X134650000Y-118283333D01*
X134683333Y-118250000D01*
X134716666Y-118183333D01*
X134716666Y-118016666D01*
X134683333Y-117950000D01*
X134650000Y-117916666D01*
X134583333Y-117883333D01*
X134450000Y-117883333D01*
X134383333Y-117916666D01*
X134350000Y-117950000D01*
X134316666Y-118016666D01*
D11*
%TO.C,D108*%
X158890476Y-147027619D02*
X158890476Y-148027619D01*
X158652380Y-148027619D01*
X158509523Y-147980000D01*
X158414285Y-147884761D01*
X158366666Y-147789523D01*
X158319047Y-147599047D01*
X158319047Y-147456190D01*
X158366666Y-147265714D01*
X158414285Y-147170476D01*
X158509523Y-147075238D01*
X158652380Y-147027619D01*
X158890476Y-147027619D01*
X157366666Y-147027619D02*
X157938095Y-147027619D01*
X157652380Y-147027619D02*
X157652380Y-148027619D01*
X157747619Y-147884761D01*
X157842857Y-147789523D01*
X157938095Y-147741904D01*
X156747619Y-148027619D02*
X156652380Y-148027619D01*
X156557142Y-147980000D01*
X156509523Y-147932380D01*
X156461904Y-147837142D01*
X156414285Y-147646666D01*
X156414285Y-147408571D01*
X156461904Y-147218095D01*
X156509523Y-147122857D01*
X156557142Y-147075238D01*
X156652380Y-147027619D01*
X156747619Y-147027619D01*
X156842857Y-147075238D01*
X156890476Y-147122857D01*
X156938095Y-147218095D01*
X156985714Y-147408571D01*
X156985714Y-147646666D01*
X156938095Y-147837142D01*
X156890476Y-147932380D01*
X156842857Y-147980000D01*
X156747619Y-148027619D01*
X155842857Y-147599047D02*
X155938095Y-147646666D01*
X155985714Y-147694285D01*
X156033333Y-147789523D01*
X156033333Y-147837142D01*
X155985714Y-147932380D01*
X155938095Y-147980000D01*
X155842857Y-148027619D01*
X155652380Y-148027619D01*
X155557142Y-147980000D01*
X155509523Y-147932380D01*
X155461904Y-147837142D01*
X155461904Y-147789523D01*
X155509523Y-147694285D01*
X155557142Y-147646666D01*
X155652380Y-147599047D01*
X155842857Y-147599047D01*
X155938095Y-147551428D01*
X155985714Y-147503809D01*
X156033333Y-147408571D01*
X156033333Y-147218095D01*
X155985714Y-147122857D01*
X155938095Y-147075238D01*
X155842857Y-147027619D01*
X155652380Y-147027619D01*
X155557142Y-147075238D01*
X155509523Y-147122857D01*
X155461904Y-147218095D01*
X155461904Y-147408571D01*
X155509523Y-147503809D01*
X155557142Y-147551428D01*
X155652380Y-147599047D01*
X158821190Y-139234166D02*
X158518809Y-139234166D01*
X158881666Y-139052738D02*
X158670000Y-139687738D01*
X158458333Y-139052738D01*
D13*
%TO.C,R101*%
X120659809Y-145911628D02*
X120417904Y-146064028D01*
X120659809Y-146172885D02*
X120151809Y-146172885D01*
X120151809Y-145998714D01*
X120176000Y-145955171D01*
X120200190Y-145933400D01*
X120248571Y-145911628D01*
X120321142Y-145911628D01*
X120369523Y-145933400D01*
X120393714Y-145955171D01*
X120417904Y-145998714D01*
X120417904Y-146172885D01*
X120659809Y-145476200D02*
X120659809Y-145737457D01*
X120659809Y-145606828D02*
X120151809Y-145606828D01*
X120224380Y-145650371D01*
X120272761Y-145693914D01*
X120296952Y-145737457D01*
X120151809Y-145193171D02*
X120151809Y-145149628D01*
X120176000Y-145106085D01*
X120200190Y-145084314D01*
X120248571Y-145062542D01*
X120345333Y-145040771D01*
X120466285Y-145040771D01*
X120563047Y-145062542D01*
X120611428Y-145084314D01*
X120635619Y-145106085D01*
X120659809Y-145149628D01*
X120659809Y-145193171D01*
X120635619Y-145236714D01*
X120611428Y-145258485D01*
X120563047Y-145280257D01*
X120466285Y-145302028D01*
X120345333Y-145302028D01*
X120248571Y-145280257D01*
X120200190Y-145258485D01*
X120176000Y-145236714D01*
X120151809Y-145193171D01*
X120659809Y-144605342D02*
X120659809Y-144866600D01*
X120659809Y-144735971D02*
X120151809Y-144735971D01*
X120224380Y-144779514D01*
X120272761Y-144823057D01*
X120296952Y-144866600D01*
D11*
%TO.C,J101*%
X110227380Y-153235714D02*
X110941666Y-153235714D01*
X111084523Y-153283333D01*
X111179761Y-153378571D01*
X111227380Y-153521428D01*
X111227380Y-153616666D01*
X111227380Y-152235714D02*
X111227380Y-152807142D01*
X111227380Y-152521428D02*
X110227380Y-152521428D01*
X110370238Y-152616666D01*
X110465476Y-152711904D01*
X110513095Y-152807142D01*
X110227380Y-151616666D02*
X110227380Y-151521428D01*
X110275000Y-151426190D01*
X110322619Y-151378571D01*
X110417857Y-151330952D01*
X110608333Y-151283333D01*
X110846428Y-151283333D01*
X111036904Y-151330952D01*
X111132142Y-151378571D01*
X111179761Y-151426190D01*
X111227380Y-151521428D01*
X111227380Y-151616666D01*
X111179761Y-151711904D01*
X111132142Y-151759523D01*
X111036904Y-151807142D01*
X110846428Y-151854761D01*
X110608333Y-151854761D01*
X110417857Y-151807142D01*
X110322619Y-151759523D01*
X110275000Y-151711904D01*
X110227380Y-151616666D01*
X111227380Y-150330952D02*
X111227380Y-150902380D01*
X111227380Y-150616666D02*
X110227380Y-150616666D01*
X110370238Y-150711904D01*
X110465476Y-150807142D01*
X110513095Y-150902380D01*
D13*
%TO.C,R111*%
X135729809Y-158011628D02*
X135487904Y-158164028D01*
X135729809Y-158272885D02*
X135221809Y-158272885D01*
X135221809Y-158098714D01*
X135246000Y-158055171D01*
X135270190Y-158033400D01*
X135318571Y-158011628D01*
X135391142Y-158011628D01*
X135439523Y-158033400D01*
X135463714Y-158055171D01*
X135487904Y-158098714D01*
X135487904Y-158272885D01*
X135729809Y-157576200D02*
X135729809Y-157837457D01*
X135729809Y-157706828D02*
X135221809Y-157706828D01*
X135294380Y-157750371D01*
X135342761Y-157793914D01*
X135366952Y-157837457D01*
X135729809Y-157140771D02*
X135729809Y-157402028D01*
X135729809Y-157271400D02*
X135221809Y-157271400D01*
X135294380Y-157314942D01*
X135342761Y-157358485D01*
X135366952Y-157402028D01*
X135729809Y-156705342D02*
X135729809Y-156966600D01*
X135729809Y-156835971D02*
X135221809Y-156835971D01*
X135294380Y-156879514D01*
X135342761Y-156923057D01*
X135366952Y-156966600D01*
D11*
%TO.C,D116*%
X158890476Y-198247619D02*
X158890476Y-199247619D01*
X158652380Y-199247619D01*
X158509523Y-199200000D01*
X158414285Y-199104761D01*
X158366666Y-199009523D01*
X158319047Y-198819047D01*
X158319047Y-198676190D01*
X158366666Y-198485714D01*
X158414285Y-198390476D01*
X158509523Y-198295238D01*
X158652380Y-198247619D01*
X158890476Y-198247619D01*
X157366666Y-198247619D02*
X157938095Y-198247619D01*
X157652380Y-198247619D02*
X157652380Y-199247619D01*
X157747619Y-199104761D01*
X157842857Y-199009523D01*
X157938095Y-198961904D01*
X156414285Y-198247619D02*
X156985714Y-198247619D01*
X156700000Y-198247619D02*
X156700000Y-199247619D01*
X156795238Y-199104761D01*
X156890476Y-199009523D01*
X156985714Y-198961904D01*
X155557142Y-199247619D02*
X155747619Y-199247619D01*
X155842857Y-199200000D01*
X155890476Y-199152380D01*
X155985714Y-199009523D01*
X156033333Y-198819047D01*
X156033333Y-198438095D01*
X155985714Y-198342857D01*
X155938095Y-198295238D01*
X155842857Y-198247619D01*
X155652380Y-198247619D01*
X155557142Y-198295238D01*
X155509523Y-198342857D01*
X155461904Y-198438095D01*
X155461904Y-198676190D01*
X155509523Y-198771428D01*
X155557142Y-198819047D01*
X155652380Y-198866666D01*
X155842857Y-198866666D01*
X155938095Y-198819047D01*
X155985714Y-198771428D01*
X156033333Y-198676190D01*
X158821190Y-190454166D02*
X158518809Y-190454166D01*
X158881666Y-190272738D02*
X158670000Y-190907738D01*
X158458333Y-190272738D01*
%TO.C,D213*%
X173909523Y-124952380D02*
X173909523Y-123952380D01*
X174147619Y-123952380D01*
X174290476Y-124000000D01*
X174385714Y-124095238D01*
X174433333Y-124190476D01*
X174480952Y-124380952D01*
X174480952Y-124523809D01*
X174433333Y-124714285D01*
X174385714Y-124809523D01*
X174290476Y-124904761D01*
X174147619Y-124952380D01*
X173909523Y-124952380D01*
X174861904Y-124047619D02*
X174909523Y-124000000D01*
X175004761Y-123952380D01*
X175242857Y-123952380D01*
X175338095Y-124000000D01*
X175385714Y-124047619D01*
X175433333Y-124142857D01*
X175433333Y-124238095D01*
X175385714Y-124380952D01*
X174814285Y-124952380D01*
X175433333Y-124952380D01*
X176385714Y-124952380D02*
X175814285Y-124952380D01*
X176100000Y-124952380D02*
X176100000Y-123952380D01*
X176004761Y-124095238D01*
X175909523Y-124190476D01*
X175814285Y-124238095D01*
X176719047Y-123952380D02*
X177338095Y-123952380D01*
X177004761Y-124333333D01*
X177147619Y-124333333D01*
X177242857Y-124380952D01*
X177290476Y-124428571D01*
X177338095Y-124523809D01*
X177338095Y-124761904D01*
X177290476Y-124857142D01*
X177242857Y-124904761D01*
X177147619Y-124952380D01*
X176861904Y-124952380D01*
X176766666Y-124904761D01*
X176719047Y-124857142D01*
X173978809Y-132745833D02*
X174281190Y-132745833D01*
X173918333Y-132927261D02*
X174130000Y-132292261D01*
X174341666Y-132927261D01*
D13*
%TO.C,R209*%
X322229809Y-162011628D02*
X321987904Y-162164028D01*
X322229809Y-162272885D02*
X321721809Y-162272885D01*
X321721809Y-162098714D01*
X321746000Y-162055171D01*
X321770190Y-162033400D01*
X321818571Y-162011628D01*
X321891142Y-162011628D01*
X321939523Y-162033400D01*
X321963714Y-162055171D01*
X321987904Y-162098714D01*
X321987904Y-162272885D01*
X321770190Y-161837457D02*
X321746000Y-161815685D01*
X321721809Y-161772142D01*
X321721809Y-161663285D01*
X321746000Y-161619742D01*
X321770190Y-161597971D01*
X321818571Y-161576200D01*
X321866952Y-161576200D01*
X321939523Y-161597971D01*
X322229809Y-161859228D01*
X322229809Y-161576200D01*
X321721809Y-161293171D02*
X321721809Y-161249628D01*
X321746000Y-161206085D01*
X321770190Y-161184314D01*
X321818571Y-161162542D01*
X321915333Y-161140771D01*
X322036285Y-161140771D01*
X322133047Y-161162542D01*
X322181428Y-161184314D01*
X322205619Y-161206085D01*
X322229809Y-161249628D01*
X322229809Y-161293171D01*
X322205619Y-161336714D01*
X322181428Y-161358485D01*
X322133047Y-161380257D01*
X322036285Y-161402028D01*
X321915333Y-161402028D01*
X321818571Y-161380257D01*
X321770190Y-161358485D01*
X321746000Y-161336714D01*
X321721809Y-161293171D01*
X322229809Y-160923057D02*
X322229809Y-160835971D01*
X322205619Y-160792428D01*
X322181428Y-160770657D01*
X322108857Y-160727114D01*
X322012095Y-160705342D01*
X321818571Y-160705342D01*
X321770190Y-160727114D01*
X321746000Y-160748885D01*
X321721809Y-160792428D01*
X321721809Y-160879514D01*
X321746000Y-160923057D01*
X321770190Y-160944828D01*
X321818571Y-160966600D01*
X321939523Y-160966600D01*
X321987904Y-160944828D01*
X322012095Y-160923057D01*
X322036285Y-160879514D01*
X322036285Y-160792428D01*
X322012095Y-160748885D01*
X321987904Y-160727114D01*
X321939523Y-160705342D01*
D12*
%TO.C,C109*%
X137216666Y-118250000D02*
X137183333Y-118283333D01*
X137083333Y-118316666D01*
X137016666Y-118316666D01*
X136916666Y-118283333D01*
X136850000Y-118216666D01*
X136816666Y-118150000D01*
X136783333Y-118016666D01*
X136783333Y-117916666D01*
X136816666Y-117783333D01*
X136850000Y-117716666D01*
X136916666Y-117650000D01*
X137016666Y-117616666D01*
X137083333Y-117616666D01*
X137183333Y-117650000D01*
X137216666Y-117683333D01*
X137883333Y-118316666D02*
X137483333Y-118316666D01*
X137683333Y-118316666D02*
X137683333Y-117616666D01*
X137616666Y-117716666D01*
X137550000Y-117783333D01*
X137483333Y-117816666D01*
X138316666Y-117616666D02*
X138383333Y-117616666D01*
X138450000Y-117650000D01*
X138483333Y-117683333D01*
X138516666Y-117750000D01*
X138550000Y-117883333D01*
X138550000Y-118050000D01*
X138516666Y-118183333D01*
X138483333Y-118250000D01*
X138450000Y-118283333D01*
X138383333Y-118316666D01*
X138316666Y-118316666D01*
X138250000Y-118283333D01*
X138216666Y-118250000D01*
X138183333Y-118183333D01*
X138150000Y-118050000D01*
X138150000Y-117883333D01*
X138183333Y-117750000D01*
X138216666Y-117683333D01*
X138250000Y-117650000D01*
X138316666Y-117616666D01*
X138883333Y-118316666D02*
X139016666Y-118316666D01*
X139083333Y-118283333D01*
X139116666Y-118250000D01*
X139183333Y-118150000D01*
X139216666Y-118016666D01*
X139216666Y-117750000D01*
X139183333Y-117683333D01*
X139150000Y-117650000D01*
X139083333Y-117616666D01*
X138950000Y-117616666D01*
X138883333Y-117650000D01*
X138850000Y-117683333D01*
X138816666Y-117750000D01*
X138816666Y-117916666D01*
X138850000Y-117983333D01*
X138883333Y-118016666D01*
X138950000Y-118050000D01*
X139083333Y-118050000D01*
X139150000Y-118016666D01*
X139183333Y-117983333D01*
X139216666Y-117916666D01*
D11*
%TO.C,REF\u002A\u002A*%
X104266666Y-107752380D02*
X103933333Y-107276190D01*
X103695238Y-107752380D02*
X103695238Y-106752380D01*
X104076190Y-106752380D01*
X104171428Y-106800000D01*
X104219047Y-106847619D01*
X104266666Y-106942857D01*
X104266666Y-107085714D01*
X104219047Y-107180952D01*
X104171428Y-107228571D01*
X104076190Y-107276190D01*
X103695238Y-107276190D01*
X104695238Y-107228571D02*
X105028571Y-107228571D01*
X105171428Y-107752380D02*
X104695238Y-107752380D01*
X104695238Y-106752380D01*
X105171428Y-106752380D01*
X105933333Y-107228571D02*
X105600000Y-107228571D01*
X105600000Y-107752380D02*
X105600000Y-106752380D01*
X106076190Y-106752380D01*
X106600000Y-106752380D02*
X106600000Y-106990476D01*
X106361904Y-106895238D02*
X106600000Y-106990476D01*
X106838095Y-106895238D01*
X106457142Y-107180952D02*
X106600000Y-106990476D01*
X106742857Y-107180952D01*
X107361904Y-106752380D02*
X107361904Y-106990476D01*
X107123809Y-106895238D02*
X107361904Y-106990476D01*
X107600000Y-106895238D01*
X107219047Y-107180952D02*
X107361904Y-106990476D01*
X107504761Y-107180952D01*
D12*
%TO.C,C101*%
X122316665Y-131050000D02*
X122283332Y-131083333D01*
X122183332Y-131116666D01*
X122116665Y-131116666D01*
X122016665Y-131083333D01*
X121949999Y-131016666D01*
X121916665Y-130950000D01*
X121883332Y-130816666D01*
X121883332Y-130716666D01*
X121916665Y-130583333D01*
X121949999Y-130516666D01*
X122016665Y-130450000D01*
X122116665Y-130416666D01*
X122183332Y-130416666D01*
X122283332Y-130450000D01*
X122316665Y-130483333D01*
X122983332Y-131116666D02*
X122583332Y-131116666D01*
X122783332Y-131116666D02*
X122783332Y-130416666D01*
X122716665Y-130516666D01*
X122649999Y-130583333D01*
X122583332Y-130616666D01*
X123416665Y-130416666D02*
X123483332Y-130416666D01*
X123549999Y-130450000D01*
X123583332Y-130483333D01*
X123616665Y-130550000D01*
X123649999Y-130683333D01*
X123649999Y-130850000D01*
X123616665Y-130983333D01*
X123583332Y-131050000D01*
X123549999Y-131083333D01*
X123483332Y-131116666D01*
X123416665Y-131116666D01*
X123349999Y-131083333D01*
X123316665Y-131050000D01*
X123283332Y-130983333D01*
X123249999Y-130850000D01*
X123249999Y-130683333D01*
X123283332Y-130550000D01*
X123316665Y-130483333D01*
X123349999Y-130450000D01*
X123416665Y-130416666D01*
X124316665Y-131116666D02*
X123916665Y-131116666D01*
X124116665Y-131116666D02*
X124116665Y-130416666D01*
X124049999Y-130516666D01*
X123983332Y-130583333D01*
X123916665Y-130616666D01*
D13*
%TO.C,R108*%
X130338371Y-145729809D02*
X130185971Y-145487904D01*
X130077114Y-145729809D02*
X130077114Y-145221809D01*
X130251285Y-145221809D01*
X130294828Y-145246000D01*
X130316600Y-145270190D01*
X130338371Y-145318571D01*
X130338371Y-145391142D01*
X130316600Y-145439523D01*
X130294828Y-145463714D01*
X130251285Y-145487904D01*
X130077114Y-145487904D01*
X130773800Y-145729809D02*
X130512542Y-145729809D01*
X130643171Y-145729809D02*
X130643171Y-145221809D01*
X130599628Y-145294380D01*
X130556085Y-145342761D01*
X130512542Y-145366952D01*
X131056828Y-145221809D02*
X131100371Y-145221809D01*
X131143914Y-145246000D01*
X131165685Y-145270190D01*
X131187457Y-145318571D01*
X131209228Y-145415333D01*
X131209228Y-145536285D01*
X131187457Y-145633047D01*
X131165685Y-145681428D01*
X131143914Y-145705619D01*
X131100371Y-145729809D01*
X131056828Y-145729809D01*
X131013285Y-145705619D01*
X130991514Y-145681428D01*
X130969742Y-145633047D01*
X130947971Y-145536285D01*
X130947971Y-145415333D01*
X130969742Y-145318571D01*
X130991514Y-145270190D01*
X131013285Y-145246000D01*
X131056828Y-145221809D01*
X131470485Y-145439523D02*
X131426942Y-145415333D01*
X131405171Y-145391142D01*
X131383400Y-145342761D01*
X131383400Y-145318571D01*
X131405171Y-145270190D01*
X131426942Y-145246000D01*
X131470485Y-145221809D01*
X131557571Y-145221809D01*
X131601114Y-145246000D01*
X131622885Y-145270190D01*
X131644657Y-145318571D01*
X131644657Y-145342761D01*
X131622885Y-145391142D01*
X131601114Y-145415333D01*
X131557571Y-145439523D01*
X131470485Y-145439523D01*
X131426942Y-145463714D01*
X131405171Y-145487904D01*
X131383400Y-145536285D01*
X131383400Y-145633047D01*
X131405171Y-145681428D01*
X131426942Y-145705619D01*
X131470485Y-145729809D01*
X131557571Y-145729809D01*
X131601114Y-145705619D01*
X131622885Y-145681428D01*
X131644657Y-145633047D01*
X131644657Y-145536285D01*
X131622885Y-145487904D01*
X131601114Y-145463714D01*
X131557571Y-145439523D01*
D14*
%TO.C,C105*%
X124861207Y-152559949D02*
X124885034Y-152583776D01*
X124908862Y-152655259D01*
X124908862Y-152702914D01*
X124885034Y-152774397D01*
X124837379Y-152822052D01*
X124789724Y-152845880D01*
X124694413Y-152869708D01*
X124622930Y-152869708D01*
X124527620Y-152845880D01*
X124479965Y-152822052D01*
X124432310Y-152774397D01*
X124408482Y-152702914D01*
X124408482Y-152655259D01*
X124432310Y-152583776D01*
X124456137Y-152559949D01*
X124908862Y-152083396D02*
X124908862Y-152369328D01*
X124908862Y-152226362D02*
X124408482Y-152226362D01*
X124479965Y-152274017D01*
X124527620Y-152321672D01*
X124551448Y-152369328D01*
X124408482Y-151773637D02*
X124408482Y-151725982D01*
X124432310Y-151678327D01*
X124456137Y-151654499D01*
X124503792Y-151630671D01*
X124599103Y-151606844D01*
X124718241Y-151606844D01*
X124813551Y-151630671D01*
X124861207Y-151654499D01*
X124885034Y-151678327D01*
X124908862Y-151725982D01*
X124908862Y-151773637D01*
X124885034Y-151821292D01*
X124861207Y-151845120D01*
X124813551Y-151868948D01*
X124718241Y-151892775D01*
X124599103Y-151892775D01*
X124503792Y-151868948D01*
X124456137Y-151845120D01*
X124432310Y-151821292D01*
X124408482Y-151773637D01*
X124408482Y-151154119D02*
X124408482Y-151392395D01*
X124646758Y-151416223D01*
X124622930Y-151392395D01*
X124599103Y-151344740D01*
X124599103Y-151225602D01*
X124622930Y-151177947D01*
X124646758Y-151154119D01*
X124694413Y-151130291D01*
X124813551Y-151130291D01*
X124861207Y-151154119D01*
X124885034Y-151177947D01*
X124908862Y-151225602D01*
X124908862Y-151344740D01*
X124885034Y-151392395D01*
X124861207Y-151416223D01*
D12*
%TO.C,C108*%
X135716666Y-133250000D02*
X135683333Y-133283333D01*
X135583333Y-133316666D01*
X135516666Y-133316666D01*
X135416666Y-133283333D01*
X135350000Y-133216666D01*
X135316666Y-133150000D01*
X135283333Y-133016666D01*
X135283333Y-132916666D01*
X135316666Y-132783333D01*
X135350000Y-132716666D01*
X135416666Y-132650000D01*
X135516666Y-132616666D01*
X135583333Y-132616666D01*
X135683333Y-132650000D01*
X135716666Y-132683333D01*
X136383333Y-133316666D02*
X135983333Y-133316666D01*
X136183333Y-133316666D02*
X136183333Y-132616666D01*
X136116666Y-132716666D01*
X136050000Y-132783333D01*
X135983333Y-132816666D01*
X136816666Y-132616666D02*
X136883333Y-132616666D01*
X136950000Y-132650000D01*
X136983333Y-132683333D01*
X137016666Y-132750000D01*
X137050000Y-132883333D01*
X137050000Y-133050000D01*
X137016666Y-133183333D01*
X136983333Y-133250000D01*
X136950000Y-133283333D01*
X136883333Y-133316666D01*
X136816666Y-133316666D01*
X136750000Y-133283333D01*
X136716666Y-133250000D01*
X136683333Y-133183333D01*
X136650000Y-133050000D01*
X136650000Y-132883333D01*
X136683333Y-132750000D01*
X136716666Y-132683333D01*
X136750000Y-132650000D01*
X136816666Y-132616666D01*
X137450000Y-132916666D02*
X137383333Y-132883333D01*
X137350000Y-132850000D01*
X137316666Y-132783333D01*
X137316666Y-132750000D01*
X137350000Y-132683333D01*
X137383333Y-132650000D01*
X137450000Y-132616666D01*
X137583333Y-132616666D01*
X137650000Y-132650000D01*
X137683333Y-132683333D01*
X137716666Y-132750000D01*
X137716666Y-132783333D01*
X137683333Y-132850000D01*
X137650000Y-132883333D01*
X137583333Y-132916666D01*
X137450000Y-132916666D01*
X137383333Y-132950000D01*
X137350000Y-132983333D01*
X137316666Y-133050000D01*
X137316666Y-133183333D01*
X137350000Y-133250000D01*
X137383333Y-133283333D01*
X137450000Y-133316666D01*
X137583333Y-133316666D01*
X137650000Y-133283333D01*
X137683333Y-133250000D01*
X137716666Y-133183333D01*
X137716666Y-133050000D01*
X137683333Y-132983333D01*
X137650000Y-132950000D01*
X137583333Y-132916666D01*
D11*
%TO.C,D211*%
X253909523Y-149952380D02*
X253909523Y-148952380D01*
X254147619Y-148952380D01*
X254290476Y-149000000D01*
X254385714Y-149095238D01*
X254433333Y-149190476D01*
X254480952Y-149380952D01*
X254480952Y-149523809D01*
X254433333Y-149714285D01*
X254385714Y-149809523D01*
X254290476Y-149904761D01*
X254147619Y-149952380D01*
X253909523Y-149952380D01*
X254861904Y-149047619D02*
X254909523Y-149000000D01*
X255004761Y-148952380D01*
X255242857Y-148952380D01*
X255338095Y-149000000D01*
X255385714Y-149047619D01*
X255433333Y-149142857D01*
X255433333Y-149238095D01*
X255385714Y-149380952D01*
X254814285Y-149952380D01*
X255433333Y-149952380D01*
X256385714Y-149952380D02*
X255814285Y-149952380D01*
X256100000Y-149952380D02*
X256100000Y-148952380D01*
X256004761Y-149095238D01*
X255909523Y-149190476D01*
X255814285Y-149238095D01*
X257338095Y-149952380D02*
X256766666Y-149952380D01*
X257052380Y-149952380D02*
X257052380Y-148952380D01*
X256957142Y-149095238D01*
X256861904Y-149190476D01*
X256766666Y-149238095D01*
X253978809Y-157745833D02*
X254281190Y-157745833D01*
X253918333Y-157927261D02*
X254130000Y-157292261D01*
X254341666Y-157927261D01*
D13*
%TO.C,R205*%
X336729809Y-165011628D02*
X336487904Y-165164028D01*
X336729809Y-165272885D02*
X336221809Y-165272885D01*
X336221809Y-165098714D01*
X336246000Y-165055171D01*
X336270190Y-165033400D01*
X336318571Y-165011628D01*
X336391142Y-165011628D01*
X336439523Y-165033400D01*
X336463714Y-165055171D01*
X336487904Y-165098714D01*
X336487904Y-165272885D01*
X336270190Y-164837457D02*
X336246000Y-164815685D01*
X336221809Y-164772142D01*
X336221809Y-164663285D01*
X336246000Y-164619742D01*
X336270190Y-164597971D01*
X336318571Y-164576200D01*
X336366952Y-164576200D01*
X336439523Y-164597971D01*
X336729809Y-164859228D01*
X336729809Y-164576200D01*
X336221809Y-164293171D02*
X336221809Y-164249628D01*
X336246000Y-164206085D01*
X336270190Y-164184314D01*
X336318571Y-164162542D01*
X336415333Y-164140771D01*
X336536285Y-164140771D01*
X336633047Y-164162542D01*
X336681428Y-164184314D01*
X336705619Y-164206085D01*
X336729809Y-164249628D01*
X336729809Y-164293171D01*
X336705619Y-164336714D01*
X336681428Y-164358485D01*
X336633047Y-164380257D01*
X336536285Y-164402028D01*
X336415333Y-164402028D01*
X336318571Y-164380257D01*
X336270190Y-164358485D01*
X336246000Y-164336714D01*
X336221809Y-164293171D01*
X336221809Y-163727114D02*
X336221809Y-163944828D01*
X336463714Y-163966600D01*
X336439523Y-163944828D01*
X336415333Y-163901285D01*
X336415333Y-163792428D01*
X336439523Y-163748885D01*
X336463714Y-163727114D01*
X336512095Y-163705342D01*
X336633047Y-163705342D01*
X336681428Y-163727114D01*
X336705619Y-163748885D01*
X336729809Y-163792428D01*
X336729809Y-163901285D01*
X336705619Y-163944828D01*
X336681428Y-163966600D01*
%TO.C,R104*%
X117088371Y-151159809D02*
X116935971Y-150917904D01*
X116827114Y-151159809D02*
X116827114Y-150651809D01*
X117001285Y-150651809D01*
X117044828Y-150676000D01*
X117066600Y-150700190D01*
X117088371Y-150748571D01*
X117088371Y-150821142D01*
X117066600Y-150869523D01*
X117044828Y-150893714D01*
X117001285Y-150917904D01*
X116827114Y-150917904D01*
X117523800Y-151159809D02*
X117262542Y-151159809D01*
X117393171Y-151159809D02*
X117393171Y-150651809D01*
X117349628Y-150724380D01*
X117306085Y-150772761D01*
X117262542Y-150796952D01*
X117806828Y-150651809D02*
X117850371Y-150651809D01*
X117893914Y-150676000D01*
X117915685Y-150700190D01*
X117937457Y-150748571D01*
X117959228Y-150845333D01*
X117959228Y-150966285D01*
X117937457Y-151063047D01*
X117915685Y-151111428D01*
X117893914Y-151135619D01*
X117850371Y-151159809D01*
X117806828Y-151159809D01*
X117763285Y-151135619D01*
X117741514Y-151111428D01*
X117719742Y-151063047D01*
X117697971Y-150966285D01*
X117697971Y-150845333D01*
X117719742Y-150748571D01*
X117741514Y-150700190D01*
X117763285Y-150676000D01*
X117806828Y-150651809D01*
X118351114Y-150821142D02*
X118351114Y-151159809D01*
X118242257Y-150627619D02*
X118133400Y-150990476D01*
X118416428Y-150990476D01*
D14*
%TO.C,C203*%
X341678707Y-183824949D02*
X341702534Y-183848776D01*
X341726362Y-183920259D01*
X341726362Y-183967914D01*
X341702534Y-184039397D01*
X341654879Y-184087052D01*
X341607224Y-184110880D01*
X341511913Y-184134708D01*
X341440430Y-184134708D01*
X341345120Y-184110880D01*
X341297465Y-184087052D01*
X341249810Y-184039397D01*
X341225982Y-183967914D01*
X341225982Y-183920259D01*
X341249810Y-183848776D01*
X341273637Y-183824949D01*
X341273637Y-183634328D02*
X341249810Y-183610500D01*
X341225982Y-183562845D01*
X341225982Y-183443707D01*
X341249810Y-183396051D01*
X341273637Y-183372224D01*
X341321292Y-183348396D01*
X341368948Y-183348396D01*
X341440430Y-183372224D01*
X341726362Y-183658155D01*
X341726362Y-183348396D01*
X341225982Y-183038637D02*
X341225982Y-182990982D01*
X341249810Y-182943327D01*
X341273637Y-182919499D01*
X341321292Y-182895671D01*
X341416603Y-182871844D01*
X341535741Y-182871844D01*
X341631051Y-182895671D01*
X341678707Y-182919499D01*
X341702534Y-182943327D01*
X341726362Y-182990982D01*
X341726362Y-183038637D01*
X341702534Y-183086292D01*
X341678707Y-183110120D01*
X341631051Y-183133948D01*
X341535741Y-183157775D01*
X341416603Y-183157775D01*
X341321292Y-183133948D01*
X341273637Y-183110120D01*
X341249810Y-183086292D01*
X341225982Y-183038637D01*
X341225982Y-182705050D02*
X341225982Y-182395291D01*
X341416603Y-182562085D01*
X341416603Y-182490602D01*
X341440430Y-182442947D01*
X341464258Y-182419119D01*
X341511913Y-182395291D01*
X341631051Y-182395291D01*
X341678707Y-182419119D01*
X341702534Y-182442947D01*
X341726362Y-182490602D01*
X341726362Y-182633568D01*
X341702534Y-182681223D01*
X341678707Y-182705050D01*
D13*
%TO.C,R211*%
X320229809Y-162011628D02*
X319987904Y-162164028D01*
X320229809Y-162272885D02*
X319721809Y-162272885D01*
X319721809Y-162098714D01*
X319746000Y-162055171D01*
X319770190Y-162033400D01*
X319818571Y-162011628D01*
X319891142Y-162011628D01*
X319939523Y-162033400D01*
X319963714Y-162055171D01*
X319987904Y-162098714D01*
X319987904Y-162272885D01*
X319770190Y-161837457D02*
X319746000Y-161815685D01*
X319721809Y-161772142D01*
X319721809Y-161663285D01*
X319746000Y-161619742D01*
X319770190Y-161597971D01*
X319818571Y-161576200D01*
X319866952Y-161576200D01*
X319939523Y-161597971D01*
X320229809Y-161859228D01*
X320229809Y-161576200D01*
X320229809Y-161140771D02*
X320229809Y-161402028D01*
X320229809Y-161271400D02*
X319721809Y-161271400D01*
X319794380Y-161314942D01*
X319842761Y-161358485D01*
X319866952Y-161402028D01*
X320229809Y-160705342D02*
X320229809Y-160966600D01*
X320229809Y-160835971D02*
X319721809Y-160835971D01*
X319794380Y-160879514D01*
X319842761Y-160923057D01*
X319866952Y-160966600D01*
%TO.C,R212*%
X318729809Y-171111628D02*
X318487904Y-171264028D01*
X318729809Y-171372885D02*
X318221809Y-171372885D01*
X318221809Y-171198714D01*
X318246000Y-171155171D01*
X318270190Y-171133400D01*
X318318571Y-171111628D01*
X318391142Y-171111628D01*
X318439523Y-171133400D01*
X318463714Y-171155171D01*
X318487904Y-171198714D01*
X318487904Y-171372885D01*
X318270190Y-170937457D02*
X318246000Y-170915685D01*
X318221809Y-170872142D01*
X318221809Y-170763285D01*
X318246000Y-170719742D01*
X318270190Y-170697971D01*
X318318571Y-170676200D01*
X318366952Y-170676200D01*
X318439523Y-170697971D01*
X318729809Y-170959228D01*
X318729809Y-170676200D01*
X318729809Y-170240771D02*
X318729809Y-170502028D01*
X318729809Y-170371400D02*
X318221809Y-170371400D01*
X318294380Y-170414942D01*
X318342761Y-170458485D01*
X318366952Y-170502028D01*
X318270190Y-170066600D02*
X318246000Y-170044828D01*
X318221809Y-170001285D01*
X318221809Y-169892428D01*
X318246000Y-169848885D01*
X318270190Y-169827114D01*
X318318571Y-169805342D01*
X318366952Y-169805342D01*
X318439523Y-169827114D01*
X318729809Y-170088371D01*
X318729809Y-169805342D01*
%TO.C,R110*%
X132888371Y-145959809D02*
X132735971Y-145717904D01*
X132627114Y-145959809D02*
X132627114Y-145451809D01*
X132801285Y-145451809D01*
X132844828Y-145476000D01*
X132866600Y-145500190D01*
X132888371Y-145548571D01*
X132888371Y-145621142D01*
X132866600Y-145669523D01*
X132844828Y-145693714D01*
X132801285Y-145717904D01*
X132627114Y-145717904D01*
X133323800Y-145959809D02*
X133062542Y-145959809D01*
X133193171Y-145959809D02*
X133193171Y-145451809D01*
X133149628Y-145524380D01*
X133106085Y-145572761D01*
X133062542Y-145596952D01*
X133759228Y-145959809D02*
X133497971Y-145959809D01*
X133628600Y-145959809D02*
X133628600Y-145451809D01*
X133585057Y-145524380D01*
X133541514Y-145572761D01*
X133497971Y-145596952D01*
X134042257Y-145451809D02*
X134085800Y-145451809D01*
X134129342Y-145476000D01*
X134151114Y-145500190D01*
X134172885Y-145548571D01*
X134194657Y-145645333D01*
X134194657Y-145766285D01*
X134172885Y-145863047D01*
X134151114Y-145911428D01*
X134129342Y-145935619D01*
X134085800Y-145959809D01*
X134042257Y-145959809D01*
X133998714Y-145935619D01*
X133976942Y-145911428D01*
X133955171Y-145863047D01*
X133933400Y-145766285D01*
X133933400Y-145645333D01*
X133955171Y-145548571D01*
X133976942Y-145500190D01*
X133998714Y-145476000D01*
X134042257Y-145451809D01*
D12*
%TO.C,C210*%
X322716666Y-203750000D02*
X322683333Y-203783333D01*
X322583333Y-203816666D01*
X322516666Y-203816666D01*
X322416666Y-203783333D01*
X322350000Y-203716666D01*
X322316666Y-203650000D01*
X322283333Y-203516666D01*
X322283333Y-203416666D01*
X322316666Y-203283333D01*
X322350000Y-203216666D01*
X322416666Y-203150000D01*
X322516666Y-203116666D01*
X322583333Y-203116666D01*
X322683333Y-203150000D01*
X322716666Y-203183333D01*
X322983333Y-203183333D02*
X323016666Y-203150000D01*
X323083333Y-203116666D01*
X323250000Y-203116666D01*
X323316666Y-203150000D01*
X323350000Y-203183333D01*
X323383333Y-203250000D01*
X323383333Y-203316666D01*
X323350000Y-203416666D01*
X322950000Y-203816666D01*
X323383333Y-203816666D01*
X324050000Y-203816666D02*
X323650000Y-203816666D01*
X323850000Y-203816666D02*
X323850000Y-203116666D01*
X323783333Y-203216666D01*
X323716666Y-203283333D01*
X323650000Y-203316666D01*
X324483333Y-203116666D02*
X324550000Y-203116666D01*
X324616666Y-203150000D01*
X324650000Y-203183333D01*
X324683333Y-203250000D01*
X324716666Y-203383333D01*
X324716666Y-203550000D01*
X324683333Y-203683333D01*
X324650000Y-203750000D01*
X324616666Y-203783333D01*
X324550000Y-203816666D01*
X324483333Y-203816666D01*
X324416666Y-203783333D01*
X324383333Y-203750000D01*
X324350000Y-203683333D01*
X324316666Y-203550000D01*
X324316666Y-203383333D01*
X324350000Y-203250000D01*
X324383333Y-203183333D01*
X324416666Y-203150000D01*
X324483333Y-203116666D01*
D11*
%TO.C,D110*%
X238890476Y-173247619D02*
X238890476Y-174247619D01*
X238652380Y-174247619D01*
X238509523Y-174200000D01*
X238414285Y-174104761D01*
X238366666Y-174009523D01*
X238319047Y-173819047D01*
X238319047Y-173676190D01*
X238366666Y-173485714D01*
X238414285Y-173390476D01*
X238509523Y-173295238D01*
X238652380Y-173247619D01*
X238890476Y-173247619D01*
X237366666Y-173247619D02*
X237938095Y-173247619D01*
X237652380Y-173247619D02*
X237652380Y-174247619D01*
X237747619Y-174104761D01*
X237842857Y-174009523D01*
X237938095Y-173961904D01*
X236414285Y-173247619D02*
X236985714Y-173247619D01*
X236700000Y-173247619D02*
X236700000Y-174247619D01*
X236795238Y-174104761D01*
X236890476Y-174009523D01*
X236985714Y-173961904D01*
X235795238Y-174247619D02*
X235700000Y-174247619D01*
X235604761Y-174200000D01*
X235557142Y-174152380D01*
X235509523Y-174057142D01*
X235461904Y-173866666D01*
X235461904Y-173628571D01*
X235509523Y-173438095D01*
X235557142Y-173342857D01*
X235604761Y-173295238D01*
X235700000Y-173247619D01*
X235795238Y-173247619D01*
X235890476Y-173295238D01*
X235938095Y-173342857D01*
X235985714Y-173438095D01*
X236033333Y-173628571D01*
X236033333Y-173866666D01*
X235985714Y-174057142D01*
X235938095Y-174152380D01*
X235890476Y-174200000D01*
X235795238Y-174247619D01*
X238821190Y-165454166D02*
X238518809Y-165454166D01*
X238881666Y-165272738D02*
X238670000Y-165907738D01*
X238458333Y-165272738D01*
%TO.C,J201*%
X317714285Y-180452380D02*
X317714285Y-181166666D01*
X317666666Y-181309523D01*
X317571428Y-181404761D01*
X317428571Y-181452380D01*
X317333333Y-181452380D01*
X318142857Y-180547619D02*
X318190476Y-180500000D01*
X318285714Y-180452380D01*
X318523809Y-180452380D01*
X318619047Y-180500000D01*
X318666666Y-180547619D01*
X318714285Y-180642857D01*
X318714285Y-180738095D01*
X318666666Y-180880952D01*
X318095238Y-181452380D01*
X318714285Y-181452380D01*
X319333333Y-180452380D02*
X319428571Y-180452380D01*
X319523809Y-180500000D01*
X319571428Y-180547619D01*
X319619047Y-180642857D01*
X319666666Y-180833333D01*
X319666666Y-181071428D01*
X319619047Y-181261904D01*
X319571428Y-181357142D01*
X319523809Y-181404761D01*
X319428571Y-181452380D01*
X319333333Y-181452380D01*
X319238095Y-181404761D01*
X319190476Y-181357142D01*
X319142857Y-181261904D01*
X319095238Y-181071428D01*
X319095238Y-180833333D01*
X319142857Y-180642857D01*
X319190476Y-180547619D01*
X319238095Y-180500000D01*
X319333333Y-180452380D01*
X320619047Y-181452380D02*
X320047619Y-181452380D01*
X320333333Y-181452380D02*
X320333333Y-180452380D01*
X320238095Y-180595238D01*
X320142857Y-180690476D01*
X320047619Y-180738095D01*
%TO.C,U102*%
X120885714Y-119852380D02*
X120885714Y-120661904D01*
X120933333Y-120757142D01*
X120980952Y-120804761D01*
X121076190Y-120852380D01*
X121266666Y-120852380D01*
X121361904Y-120804761D01*
X121409523Y-120757142D01*
X121457142Y-120661904D01*
X121457142Y-119852380D01*
X122457142Y-120852380D02*
X121885714Y-120852380D01*
X122171428Y-120852380D02*
X122171428Y-119852380D01*
X122076190Y-119995238D01*
X121980952Y-120090476D01*
X121885714Y-120138095D01*
X123076190Y-119852380D02*
X123171428Y-119852380D01*
X123266666Y-119900000D01*
X123314285Y-119947619D01*
X123361904Y-120042857D01*
X123409523Y-120233333D01*
X123409523Y-120471428D01*
X123361904Y-120661904D01*
X123314285Y-120757142D01*
X123266666Y-120804761D01*
X123171428Y-120852380D01*
X123076190Y-120852380D01*
X122980952Y-120804761D01*
X122933333Y-120757142D01*
X122885714Y-120661904D01*
X122838095Y-120471428D01*
X122838095Y-120233333D01*
X122885714Y-120042857D01*
X122933333Y-119947619D01*
X122980952Y-119900000D01*
X123076190Y-119852380D01*
X123790476Y-119947619D02*
X123838095Y-119900000D01*
X123933333Y-119852380D01*
X124171428Y-119852380D01*
X124266666Y-119900000D01*
X124314285Y-119947619D01*
X124361904Y-120042857D01*
X124361904Y-120138095D01*
X124314285Y-120280952D01*
X123742857Y-120852380D01*
X124361904Y-120852380D01*
%TO.C,D101*%
X278890476Y-124547619D02*
X278890476Y-125547619D01*
X278652380Y-125547619D01*
X278509523Y-125500000D01*
X278414285Y-125404761D01*
X278366666Y-125309523D01*
X278319047Y-125119047D01*
X278319047Y-124976190D01*
X278366666Y-124785714D01*
X278414285Y-124690476D01*
X278509523Y-124595238D01*
X278652380Y-124547619D01*
X278890476Y-124547619D01*
X277366666Y-124547619D02*
X277938095Y-124547619D01*
X277652380Y-124547619D02*
X277652380Y-125547619D01*
X277747619Y-125404761D01*
X277842857Y-125309523D01*
X277938095Y-125261904D01*
X276747619Y-125547619D02*
X276652380Y-125547619D01*
X276557142Y-125500000D01*
X276509523Y-125452380D01*
X276461904Y-125357142D01*
X276414285Y-125166666D01*
X276414285Y-124928571D01*
X276461904Y-124738095D01*
X276509523Y-124642857D01*
X276557142Y-124595238D01*
X276652380Y-124547619D01*
X276747619Y-124547619D01*
X276842857Y-124595238D01*
X276890476Y-124642857D01*
X276938095Y-124738095D01*
X276985714Y-124928571D01*
X276985714Y-125166666D01*
X276938095Y-125357142D01*
X276890476Y-125452380D01*
X276842857Y-125500000D01*
X276747619Y-125547619D01*
X275461904Y-124547619D02*
X276033333Y-124547619D01*
X275747619Y-124547619D02*
X275747619Y-125547619D01*
X275842857Y-125404761D01*
X275938095Y-125309523D01*
X276033333Y-125261904D01*
X278821190Y-116754166D02*
X278518809Y-116754166D01*
X278881666Y-116572738D02*
X278670000Y-117207738D01*
X278458333Y-116572738D01*
%TO.C,D216*%
X293909523Y-124952380D02*
X293909523Y-123952380D01*
X294147619Y-123952380D01*
X294290476Y-124000000D01*
X294385714Y-124095238D01*
X294433333Y-124190476D01*
X294480952Y-124380952D01*
X294480952Y-124523809D01*
X294433333Y-124714285D01*
X294385714Y-124809523D01*
X294290476Y-124904761D01*
X294147619Y-124952380D01*
X293909523Y-124952380D01*
X294861904Y-124047619D02*
X294909523Y-124000000D01*
X295004761Y-123952380D01*
X295242857Y-123952380D01*
X295338095Y-124000000D01*
X295385714Y-124047619D01*
X295433333Y-124142857D01*
X295433333Y-124238095D01*
X295385714Y-124380952D01*
X294814285Y-124952380D01*
X295433333Y-124952380D01*
X296385714Y-124952380D02*
X295814285Y-124952380D01*
X296100000Y-124952380D02*
X296100000Y-123952380D01*
X296004761Y-124095238D01*
X295909523Y-124190476D01*
X295814285Y-124238095D01*
X297242857Y-123952380D02*
X297052380Y-123952380D01*
X296957142Y-124000000D01*
X296909523Y-124047619D01*
X296814285Y-124190476D01*
X296766666Y-124380952D01*
X296766666Y-124761904D01*
X296814285Y-124857142D01*
X296861904Y-124904761D01*
X296957142Y-124952380D01*
X297147619Y-124952380D01*
X297242857Y-124904761D01*
X297290476Y-124857142D01*
X297338095Y-124761904D01*
X297338095Y-124523809D01*
X297290476Y-124428571D01*
X297242857Y-124380952D01*
X297147619Y-124333333D01*
X296957142Y-124333333D01*
X296861904Y-124380952D01*
X296814285Y-124428571D01*
X296766666Y-124523809D01*
X293978809Y-132745833D02*
X294281190Y-132745833D01*
X293918333Y-132927261D02*
X294130000Y-132292261D01*
X294341666Y-132927261D01*
D13*
%TO.C,R207*%
X328859809Y-164311628D02*
X328617904Y-164464028D01*
X328859809Y-164572885D02*
X328351809Y-164572885D01*
X328351809Y-164398714D01*
X328376000Y-164355171D01*
X328400190Y-164333400D01*
X328448571Y-164311628D01*
X328521142Y-164311628D01*
X328569523Y-164333400D01*
X328593714Y-164355171D01*
X328617904Y-164398714D01*
X328617904Y-164572885D01*
X328400190Y-164137457D02*
X328376000Y-164115685D01*
X328351809Y-164072142D01*
X328351809Y-163963285D01*
X328376000Y-163919742D01*
X328400190Y-163897971D01*
X328448571Y-163876200D01*
X328496952Y-163876200D01*
X328569523Y-163897971D01*
X328859809Y-164159228D01*
X328859809Y-163876200D01*
X328351809Y-163593171D02*
X328351809Y-163549628D01*
X328376000Y-163506085D01*
X328400190Y-163484314D01*
X328448571Y-163462542D01*
X328545333Y-163440771D01*
X328666285Y-163440771D01*
X328763047Y-163462542D01*
X328811428Y-163484314D01*
X328835619Y-163506085D01*
X328859809Y-163549628D01*
X328859809Y-163593171D01*
X328835619Y-163636714D01*
X328811428Y-163658485D01*
X328763047Y-163680257D01*
X328666285Y-163702028D01*
X328545333Y-163702028D01*
X328448571Y-163680257D01*
X328400190Y-163658485D01*
X328376000Y-163636714D01*
X328351809Y-163593171D01*
X328351809Y-163288371D02*
X328351809Y-162983571D01*
X328859809Y-163179514D01*
%TO.C,R102*%
X124699809Y-144511628D02*
X124457904Y-144664028D01*
X124699809Y-144772885D02*
X124191809Y-144772885D01*
X124191809Y-144598714D01*
X124216000Y-144555171D01*
X124240190Y-144533400D01*
X124288571Y-144511628D01*
X124361142Y-144511628D01*
X124409523Y-144533400D01*
X124433714Y-144555171D01*
X124457904Y-144598714D01*
X124457904Y-144772885D01*
X124699809Y-144076200D02*
X124699809Y-144337457D01*
X124699809Y-144206828D02*
X124191809Y-144206828D01*
X124264380Y-144250371D01*
X124312761Y-144293914D01*
X124336952Y-144337457D01*
X124191809Y-143793171D02*
X124191809Y-143749628D01*
X124216000Y-143706085D01*
X124240190Y-143684314D01*
X124288571Y-143662542D01*
X124385333Y-143640771D01*
X124506285Y-143640771D01*
X124603047Y-143662542D01*
X124651428Y-143684314D01*
X124675619Y-143706085D01*
X124699809Y-143749628D01*
X124699809Y-143793171D01*
X124675619Y-143836714D01*
X124651428Y-143858485D01*
X124603047Y-143880257D01*
X124506285Y-143902028D01*
X124385333Y-143902028D01*
X124288571Y-143880257D01*
X124240190Y-143858485D01*
X124216000Y-143836714D01*
X124191809Y-143793171D01*
X124240190Y-143466600D02*
X124216000Y-143444828D01*
X124191809Y-143401285D01*
X124191809Y-143292428D01*
X124216000Y-143248885D01*
X124240190Y-143227114D01*
X124288571Y-143205342D01*
X124336952Y-143205342D01*
X124409523Y-143227114D01*
X124699809Y-143488371D01*
X124699809Y-143205342D01*
D11*
%TO.C,D214*%
X213909523Y-124952380D02*
X213909523Y-123952380D01*
X214147619Y-123952380D01*
X214290476Y-124000000D01*
X214385714Y-124095238D01*
X214433333Y-124190476D01*
X214480952Y-124380952D01*
X214480952Y-124523809D01*
X214433333Y-124714285D01*
X214385714Y-124809523D01*
X214290476Y-124904761D01*
X214147619Y-124952380D01*
X213909523Y-124952380D01*
X214861904Y-124047619D02*
X214909523Y-124000000D01*
X215004761Y-123952380D01*
X215242857Y-123952380D01*
X215338095Y-124000000D01*
X215385714Y-124047619D01*
X215433333Y-124142857D01*
X215433333Y-124238095D01*
X215385714Y-124380952D01*
X214814285Y-124952380D01*
X215433333Y-124952380D01*
X216385714Y-124952380D02*
X215814285Y-124952380D01*
X216100000Y-124952380D02*
X216100000Y-123952380D01*
X216004761Y-124095238D01*
X215909523Y-124190476D01*
X215814285Y-124238095D01*
X217242857Y-124285714D02*
X217242857Y-124952380D01*
X217004761Y-123904761D02*
X216766666Y-124619047D01*
X217385714Y-124619047D01*
X213978809Y-132745833D02*
X214281190Y-132745833D01*
X213918333Y-132927261D02*
X214130000Y-132292261D01*
X214341666Y-132927261D01*
%TO.C,D215*%
X253909523Y-124952380D02*
X253909523Y-123952380D01*
X254147619Y-123952380D01*
X254290476Y-124000000D01*
X254385714Y-124095238D01*
X254433333Y-124190476D01*
X254480952Y-124380952D01*
X254480952Y-124523809D01*
X254433333Y-124714285D01*
X254385714Y-124809523D01*
X254290476Y-124904761D01*
X254147619Y-124952380D01*
X253909523Y-124952380D01*
X254861904Y-124047619D02*
X254909523Y-124000000D01*
X255004761Y-123952380D01*
X255242857Y-123952380D01*
X255338095Y-124000000D01*
X255385714Y-124047619D01*
X255433333Y-124142857D01*
X255433333Y-124238095D01*
X255385714Y-124380952D01*
X254814285Y-124952380D01*
X255433333Y-124952380D01*
X256385714Y-124952380D02*
X255814285Y-124952380D01*
X256100000Y-124952380D02*
X256100000Y-123952380D01*
X256004761Y-124095238D01*
X255909523Y-124190476D01*
X255814285Y-124238095D01*
X257290476Y-123952380D02*
X256814285Y-123952380D01*
X256766666Y-124428571D01*
X256814285Y-124380952D01*
X256909523Y-124333333D01*
X257147619Y-124333333D01*
X257242857Y-124380952D01*
X257290476Y-124428571D01*
X257338095Y-124523809D01*
X257338095Y-124761904D01*
X257290476Y-124857142D01*
X257242857Y-124904761D01*
X257147619Y-124952380D01*
X256909523Y-124952380D01*
X256814285Y-124904761D01*
X256766666Y-124857142D01*
X253978809Y-132745833D02*
X254281190Y-132745833D01*
X253918333Y-132927261D02*
X254130000Y-132292261D01*
X254341666Y-132927261D01*
%TO.C,U101*%
X120347732Y-139342857D02*
X120347732Y-140314285D01*
X120404875Y-140428571D01*
X120462017Y-140485714D01*
X120576303Y-140542857D01*
X120804875Y-140542857D01*
X120919160Y-140485714D01*
X120976303Y-140428571D01*
X121033446Y-140314285D01*
X121033446Y-139342857D01*
X122233446Y-140542857D02*
X121547732Y-140542857D01*
X121890589Y-140542857D02*
X121890589Y-139342857D01*
X121776303Y-139514285D01*
X121662017Y-139628571D01*
X121547732Y-139685714D01*
X122976303Y-139342857D02*
X123090589Y-139342857D01*
X123204875Y-139400000D01*
X123262017Y-139457142D01*
X123319160Y-139571428D01*
X123376303Y-139800000D01*
X123376303Y-140085714D01*
X123319160Y-140314285D01*
X123262017Y-140428571D01*
X123204875Y-140485714D01*
X123090589Y-140542857D01*
X122976303Y-140542857D01*
X122862017Y-140485714D01*
X122804875Y-140428571D01*
X122747732Y-140314285D01*
X122690589Y-140085714D01*
X122690589Y-139800000D01*
X122747732Y-139571428D01*
X122804875Y-139457142D01*
X122862017Y-139400000D01*
X122976303Y-139342857D01*
X124519160Y-140542857D02*
X123833446Y-140542857D01*
X124176303Y-140542857D02*
X124176303Y-139342857D01*
X124062017Y-139514285D01*
X123947732Y-139628571D01*
X123833446Y-139685714D01*
%TO.C,REF\u002A\u002A*%
X104266666Y-208952380D02*
X103933333Y-208476190D01*
X103695238Y-208952380D02*
X103695238Y-207952380D01*
X104076190Y-207952380D01*
X104171428Y-208000000D01*
X104219047Y-208047619D01*
X104266666Y-208142857D01*
X104266666Y-208285714D01*
X104219047Y-208380952D01*
X104171428Y-208428571D01*
X104076190Y-208476190D01*
X103695238Y-208476190D01*
X104695238Y-208428571D02*
X105028571Y-208428571D01*
X105171428Y-208952380D02*
X104695238Y-208952380D01*
X104695238Y-207952380D01*
X105171428Y-207952380D01*
X105933333Y-208428571D02*
X105600000Y-208428571D01*
X105600000Y-208952380D02*
X105600000Y-207952380D01*
X106076190Y-207952380D01*
X106600000Y-207952380D02*
X106600000Y-208190476D01*
X106361904Y-208095238D02*
X106600000Y-208190476D01*
X106838095Y-208095238D01*
X106457142Y-208380952D02*
X106600000Y-208190476D01*
X106742857Y-208380952D01*
X107361904Y-207952380D02*
X107361904Y-208190476D01*
X107123809Y-208095238D02*
X107361904Y-208190476D01*
X107600000Y-208095238D01*
X107219047Y-208380952D02*
X107361904Y-208190476D01*
X107504761Y-208380952D01*
%TO.C,D202*%
X213909523Y-199952380D02*
X213909523Y-198952380D01*
X214147619Y-198952380D01*
X214290476Y-199000000D01*
X214385714Y-199095238D01*
X214433333Y-199190476D01*
X214480952Y-199380952D01*
X214480952Y-199523809D01*
X214433333Y-199714285D01*
X214385714Y-199809523D01*
X214290476Y-199904761D01*
X214147619Y-199952380D01*
X213909523Y-199952380D01*
X214861904Y-199047619D02*
X214909523Y-199000000D01*
X215004761Y-198952380D01*
X215242857Y-198952380D01*
X215338095Y-199000000D01*
X215385714Y-199047619D01*
X215433333Y-199142857D01*
X215433333Y-199238095D01*
X215385714Y-199380952D01*
X214814285Y-199952380D01*
X215433333Y-199952380D01*
X216052380Y-198952380D02*
X216147619Y-198952380D01*
X216242857Y-199000000D01*
X216290476Y-199047619D01*
X216338095Y-199142857D01*
X216385714Y-199333333D01*
X216385714Y-199571428D01*
X216338095Y-199761904D01*
X216290476Y-199857142D01*
X216242857Y-199904761D01*
X216147619Y-199952380D01*
X216052380Y-199952380D01*
X215957142Y-199904761D01*
X215909523Y-199857142D01*
X215861904Y-199761904D01*
X215814285Y-199571428D01*
X215814285Y-199333333D01*
X215861904Y-199142857D01*
X215909523Y-199047619D01*
X215957142Y-199000000D01*
X216052380Y-198952380D01*
X216766666Y-199047619D02*
X216814285Y-199000000D01*
X216909523Y-198952380D01*
X217147619Y-198952380D01*
X217242857Y-199000000D01*
X217290476Y-199047619D01*
X217338095Y-199142857D01*
X217338095Y-199238095D01*
X217290476Y-199380952D01*
X216719047Y-199952380D01*
X217338095Y-199952380D01*
X213978809Y-207745833D02*
X214281190Y-207745833D01*
X213918333Y-207927261D02*
X214130000Y-207292261D01*
X214341666Y-207927261D01*
%TO.C,D105*%
X278890476Y-147027619D02*
X278890476Y-148027619D01*
X278652380Y-148027619D01*
X278509523Y-147980000D01*
X278414285Y-147884761D01*
X278366666Y-147789523D01*
X278319047Y-147599047D01*
X278319047Y-147456190D01*
X278366666Y-147265714D01*
X278414285Y-147170476D01*
X278509523Y-147075238D01*
X278652380Y-147027619D01*
X278890476Y-147027619D01*
X277366666Y-147027619D02*
X277938095Y-147027619D01*
X277652380Y-147027619D02*
X277652380Y-148027619D01*
X277747619Y-147884761D01*
X277842857Y-147789523D01*
X277938095Y-147741904D01*
X276747619Y-148027619D02*
X276652380Y-148027619D01*
X276557142Y-147980000D01*
X276509523Y-147932380D01*
X276461904Y-147837142D01*
X276414285Y-147646666D01*
X276414285Y-147408571D01*
X276461904Y-147218095D01*
X276509523Y-147122857D01*
X276557142Y-147075238D01*
X276652380Y-147027619D01*
X276747619Y-147027619D01*
X276842857Y-147075238D01*
X276890476Y-147122857D01*
X276938095Y-147218095D01*
X276985714Y-147408571D01*
X276985714Y-147646666D01*
X276938095Y-147837142D01*
X276890476Y-147932380D01*
X276842857Y-147980000D01*
X276747619Y-148027619D01*
X275509523Y-148027619D02*
X275985714Y-148027619D01*
X276033333Y-147551428D01*
X275985714Y-147599047D01*
X275890476Y-147646666D01*
X275652380Y-147646666D01*
X275557142Y-147599047D01*
X275509523Y-147551428D01*
X275461904Y-147456190D01*
X275461904Y-147218095D01*
X275509523Y-147122857D01*
X275557142Y-147075238D01*
X275652380Y-147027619D01*
X275890476Y-147027619D01*
X275985714Y-147075238D01*
X276033333Y-147122857D01*
X278821190Y-139234166D02*
X278518809Y-139234166D01*
X278881666Y-139052738D02*
X278670000Y-139687738D01*
X278458333Y-139052738D01*
%TO.C,J105*%
X350502380Y-153185714D02*
X351216666Y-153185714D01*
X351359523Y-153233333D01*
X351454761Y-153328571D01*
X351502380Y-153471428D01*
X351502380Y-153566666D01*
X351502380Y-152185714D02*
X351502380Y-152757142D01*
X351502380Y-152471428D02*
X350502380Y-152471428D01*
X350645238Y-152566666D01*
X350740476Y-152661904D01*
X350788095Y-152757142D01*
X350502380Y-151566666D02*
X350502380Y-151471428D01*
X350550000Y-151376190D01*
X350597619Y-151328571D01*
X350692857Y-151280952D01*
X350883333Y-151233333D01*
X351121428Y-151233333D01*
X351311904Y-151280952D01*
X351407142Y-151328571D01*
X351454761Y-151376190D01*
X351502380Y-151471428D01*
X351502380Y-151566666D01*
X351454761Y-151661904D01*
X351407142Y-151709523D01*
X351311904Y-151757142D01*
X351121428Y-151804761D01*
X350883333Y-151804761D01*
X350692857Y-151757142D01*
X350597619Y-151709523D01*
X350550000Y-151661904D01*
X350502380Y-151566666D01*
X350502380Y-150328571D02*
X350502380Y-150804761D01*
X350978571Y-150852380D01*
X350930952Y-150804761D01*
X350883333Y-150709523D01*
X350883333Y-150471428D01*
X350930952Y-150376190D01*
X350978571Y-150328571D01*
X351073809Y-150280952D01*
X351311904Y-150280952D01*
X351407142Y-150328571D01*
X351454761Y-150376190D01*
X351502380Y-150471428D01*
X351502380Y-150709523D01*
X351454761Y-150804761D01*
X351407142Y-150852380D01*
%TO.C,J102*%
X131814285Y-137177380D02*
X131814285Y-137891666D01*
X131766666Y-138034523D01*
X131671428Y-138129761D01*
X131528571Y-138177380D01*
X131433333Y-138177380D01*
X132814285Y-138177380D02*
X132242857Y-138177380D01*
X132528571Y-138177380D02*
X132528571Y-137177380D01*
X132433333Y-137320238D01*
X132338095Y-137415476D01*
X132242857Y-137463095D01*
X133433333Y-137177380D02*
X133528571Y-137177380D01*
X133623809Y-137225000D01*
X133671428Y-137272619D01*
X133719047Y-137367857D01*
X133766666Y-137558333D01*
X133766666Y-137796428D01*
X133719047Y-137986904D01*
X133671428Y-138082142D01*
X133623809Y-138129761D01*
X133528571Y-138177380D01*
X133433333Y-138177380D01*
X133338095Y-138129761D01*
X133290476Y-138082142D01*
X133242857Y-137986904D01*
X133195238Y-137796428D01*
X133195238Y-137558333D01*
X133242857Y-137367857D01*
X133290476Y-137272619D01*
X133338095Y-137225000D01*
X133433333Y-137177380D01*
X134147619Y-137272619D02*
X134195238Y-137225000D01*
X134290476Y-137177380D01*
X134528571Y-137177380D01*
X134623809Y-137225000D01*
X134671428Y-137272619D01*
X134719047Y-137367857D01*
X134719047Y-137463095D01*
X134671428Y-137605952D01*
X134100000Y-138177380D01*
X134719047Y-138177380D01*
D14*
%TO.C,C205*%
X331678707Y-175059949D02*
X331702534Y-175083776D01*
X331726362Y-175155259D01*
X331726362Y-175202914D01*
X331702534Y-175274397D01*
X331654879Y-175322052D01*
X331607224Y-175345880D01*
X331511913Y-175369708D01*
X331440430Y-175369708D01*
X331345120Y-175345880D01*
X331297465Y-175322052D01*
X331249810Y-175274397D01*
X331225982Y-175202914D01*
X331225982Y-175155259D01*
X331249810Y-175083776D01*
X331273637Y-175059949D01*
X331273637Y-174869328D02*
X331249810Y-174845500D01*
X331225982Y-174797845D01*
X331225982Y-174678707D01*
X331249810Y-174631051D01*
X331273637Y-174607224D01*
X331321292Y-174583396D01*
X331368948Y-174583396D01*
X331440430Y-174607224D01*
X331726362Y-174893155D01*
X331726362Y-174583396D01*
X331225982Y-174273637D02*
X331225982Y-174225982D01*
X331249810Y-174178327D01*
X331273637Y-174154499D01*
X331321292Y-174130671D01*
X331416603Y-174106844D01*
X331535741Y-174106844D01*
X331631051Y-174130671D01*
X331678707Y-174154499D01*
X331702534Y-174178327D01*
X331726362Y-174225982D01*
X331726362Y-174273637D01*
X331702534Y-174321292D01*
X331678707Y-174345120D01*
X331631051Y-174368948D01*
X331535741Y-174392775D01*
X331416603Y-174392775D01*
X331321292Y-174368948D01*
X331273637Y-174345120D01*
X331249810Y-174321292D01*
X331225982Y-174273637D01*
X331225982Y-173654119D02*
X331225982Y-173892395D01*
X331464258Y-173916223D01*
X331440430Y-173892395D01*
X331416603Y-173844740D01*
X331416603Y-173725602D01*
X331440430Y-173677947D01*
X331464258Y-173654119D01*
X331511913Y-173630291D01*
X331631051Y-173630291D01*
X331678707Y-173654119D01*
X331702534Y-173677947D01*
X331726362Y-173725602D01*
X331726362Y-173844740D01*
X331702534Y-173892395D01*
X331678707Y-173916223D01*
D13*
%TO.C,R201*%
X336729809Y-173511628D02*
X336487904Y-173664028D01*
X336729809Y-173772885D02*
X336221809Y-173772885D01*
X336221809Y-173598714D01*
X336246000Y-173555171D01*
X336270190Y-173533400D01*
X336318571Y-173511628D01*
X336391142Y-173511628D01*
X336439523Y-173533400D01*
X336463714Y-173555171D01*
X336487904Y-173598714D01*
X336487904Y-173772885D01*
X336270190Y-173337457D02*
X336246000Y-173315685D01*
X336221809Y-173272142D01*
X336221809Y-173163285D01*
X336246000Y-173119742D01*
X336270190Y-173097971D01*
X336318571Y-173076200D01*
X336366952Y-173076200D01*
X336439523Y-173097971D01*
X336729809Y-173359228D01*
X336729809Y-173076200D01*
X336221809Y-172793171D02*
X336221809Y-172749628D01*
X336246000Y-172706085D01*
X336270190Y-172684314D01*
X336318571Y-172662542D01*
X336415333Y-172640771D01*
X336536285Y-172640771D01*
X336633047Y-172662542D01*
X336681428Y-172684314D01*
X336705619Y-172706085D01*
X336729809Y-172749628D01*
X336729809Y-172793171D01*
X336705619Y-172836714D01*
X336681428Y-172858485D01*
X336633047Y-172880257D01*
X336536285Y-172902028D01*
X336415333Y-172902028D01*
X336318571Y-172880257D01*
X336270190Y-172858485D01*
X336246000Y-172836714D01*
X336221809Y-172793171D01*
X336729809Y-172205342D02*
X336729809Y-172466600D01*
X336729809Y-172335971D02*
X336221809Y-172335971D01*
X336294380Y-172379514D01*
X336342761Y-172423057D01*
X336366952Y-172466600D01*
D12*
%TO.C,C102*%
X136716666Y-135250000D02*
X136683333Y-135283333D01*
X136583333Y-135316666D01*
X136516666Y-135316666D01*
X136416666Y-135283333D01*
X136350000Y-135216666D01*
X136316666Y-135150000D01*
X136283333Y-135016666D01*
X136283333Y-134916666D01*
X136316666Y-134783333D01*
X136350000Y-134716666D01*
X136416666Y-134650000D01*
X136516666Y-134616666D01*
X136583333Y-134616666D01*
X136683333Y-134650000D01*
X136716666Y-134683333D01*
X137383333Y-135316666D02*
X136983333Y-135316666D01*
X137183333Y-135316666D02*
X137183333Y-134616666D01*
X137116666Y-134716666D01*
X137050000Y-134783333D01*
X136983333Y-134816666D01*
X137816666Y-134616666D02*
X137883333Y-134616666D01*
X137950000Y-134650000D01*
X137983333Y-134683333D01*
X138016666Y-134750000D01*
X138050000Y-134883333D01*
X138050000Y-135050000D01*
X138016666Y-135183333D01*
X137983333Y-135250000D01*
X137950000Y-135283333D01*
X137883333Y-135316666D01*
X137816666Y-135316666D01*
X137750000Y-135283333D01*
X137716666Y-135250000D01*
X137683333Y-135183333D01*
X137650000Y-135050000D01*
X137650000Y-134883333D01*
X137683333Y-134750000D01*
X137716666Y-134683333D01*
X137750000Y-134650000D01*
X137816666Y-134616666D01*
X138316666Y-134683333D02*
X138350000Y-134650000D01*
X138416666Y-134616666D01*
X138583333Y-134616666D01*
X138650000Y-134650000D01*
X138683333Y-134683333D01*
X138716666Y-134750000D01*
X138716666Y-134816666D01*
X138683333Y-134916666D01*
X138283333Y-135316666D01*
X138716666Y-135316666D01*
D13*
%TO.C,R112*%
X126959809Y-160311628D02*
X126717904Y-160464028D01*
X126959809Y-160572885D02*
X126451809Y-160572885D01*
X126451809Y-160398714D01*
X126476000Y-160355171D01*
X126500190Y-160333400D01*
X126548571Y-160311628D01*
X126621142Y-160311628D01*
X126669523Y-160333400D01*
X126693714Y-160355171D01*
X126717904Y-160398714D01*
X126717904Y-160572885D01*
X126959809Y-159876200D02*
X126959809Y-160137457D01*
X126959809Y-160006828D02*
X126451809Y-160006828D01*
X126524380Y-160050371D01*
X126572761Y-160093914D01*
X126596952Y-160137457D01*
X126959809Y-159440771D02*
X126959809Y-159702028D01*
X126959809Y-159571400D02*
X126451809Y-159571400D01*
X126524380Y-159614942D01*
X126572761Y-159658485D01*
X126596952Y-159702028D01*
X126500190Y-159266600D02*
X126476000Y-159244828D01*
X126451809Y-159201285D01*
X126451809Y-159092428D01*
X126476000Y-159048885D01*
X126500190Y-159027114D01*
X126548571Y-159005342D01*
X126596952Y-159005342D01*
X126669523Y-159027114D01*
X126959809Y-159288371D01*
X126959809Y-159005342D01*
%TO.C,R210*%
X319988371Y-173229809D02*
X319835971Y-172987904D01*
X319727114Y-173229809D02*
X319727114Y-172721809D01*
X319901285Y-172721809D01*
X319944828Y-172746000D01*
X319966600Y-172770190D01*
X319988371Y-172818571D01*
X319988371Y-172891142D01*
X319966600Y-172939523D01*
X319944828Y-172963714D01*
X319901285Y-172987904D01*
X319727114Y-172987904D01*
X320162542Y-172770190D02*
X320184314Y-172746000D01*
X320227857Y-172721809D01*
X320336714Y-172721809D01*
X320380257Y-172746000D01*
X320402028Y-172770190D01*
X320423800Y-172818571D01*
X320423800Y-172866952D01*
X320402028Y-172939523D01*
X320140771Y-173229809D01*
X320423800Y-173229809D01*
X320859228Y-173229809D02*
X320597971Y-173229809D01*
X320728600Y-173229809D02*
X320728600Y-172721809D01*
X320685057Y-172794380D01*
X320641514Y-172842761D01*
X320597971Y-172866952D01*
X321142257Y-172721809D02*
X321185800Y-172721809D01*
X321229342Y-172746000D01*
X321251114Y-172770190D01*
X321272885Y-172818571D01*
X321294657Y-172915333D01*
X321294657Y-173036285D01*
X321272885Y-173133047D01*
X321251114Y-173181428D01*
X321229342Y-173205619D01*
X321185800Y-173229809D01*
X321142257Y-173229809D01*
X321098714Y-173205619D01*
X321076942Y-173181428D01*
X321055171Y-173133047D01*
X321033400Y-173036285D01*
X321033400Y-172915333D01*
X321055171Y-172818571D01*
X321076942Y-172770190D01*
X321098714Y-172746000D01*
X321142257Y-172721809D01*
D12*
%TO.C,C208*%
X326716666Y-203750000D02*
X326683333Y-203783333D01*
X326583333Y-203816666D01*
X326516666Y-203816666D01*
X326416666Y-203783333D01*
X326350000Y-203716666D01*
X326316666Y-203650000D01*
X326283333Y-203516666D01*
X326283333Y-203416666D01*
X326316666Y-203283333D01*
X326350000Y-203216666D01*
X326416666Y-203150000D01*
X326516666Y-203116666D01*
X326583333Y-203116666D01*
X326683333Y-203150000D01*
X326716666Y-203183333D01*
X326983333Y-203183333D02*
X327016666Y-203150000D01*
X327083333Y-203116666D01*
X327250000Y-203116666D01*
X327316666Y-203150000D01*
X327350000Y-203183333D01*
X327383333Y-203250000D01*
X327383333Y-203316666D01*
X327350000Y-203416666D01*
X326950000Y-203816666D01*
X327383333Y-203816666D01*
X327816666Y-203116666D02*
X327883333Y-203116666D01*
X327950000Y-203150000D01*
X327983333Y-203183333D01*
X328016666Y-203250000D01*
X328050000Y-203383333D01*
X328050000Y-203550000D01*
X328016666Y-203683333D01*
X327983333Y-203750000D01*
X327950000Y-203783333D01*
X327883333Y-203816666D01*
X327816666Y-203816666D01*
X327750000Y-203783333D01*
X327716666Y-203750000D01*
X327683333Y-203683333D01*
X327650000Y-203550000D01*
X327650000Y-203383333D01*
X327683333Y-203250000D01*
X327716666Y-203183333D01*
X327750000Y-203150000D01*
X327816666Y-203116666D01*
X328450000Y-203416666D02*
X328383333Y-203383333D01*
X328350000Y-203350000D01*
X328316666Y-203283333D01*
X328316666Y-203250000D01*
X328350000Y-203183333D01*
X328383333Y-203150000D01*
X328450000Y-203116666D01*
X328583333Y-203116666D01*
X328650000Y-203150000D01*
X328683333Y-203183333D01*
X328716666Y-203250000D01*
X328716666Y-203283333D01*
X328683333Y-203350000D01*
X328650000Y-203383333D01*
X328583333Y-203416666D01*
X328450000Y-203416666D01*
X328383333Y-203450000D01*
X328350000Y-203483333D01*
X328316666Y-203550000D01*
X328316666Y-203683333D01*
X328350000Y-203750000D01*
X328383333Y-203783333D01*
X328450000Y-203816666D01*
X328583333Y-203816666D01*
X328650000Y-203783333D01*
X328683333Y-203750000D01*
X328716666Y-203683333D01*
X328716666Y-203550000D01*
X328683333Y-203483333D01*
X328650000Y-203450000D01*
X328583333Y-203416666D01*
%TO.C,C209*%
X318716666Y-188750000D02*
X318683333Y-188783333D01*
X318583333Y-188816666D01*
X318516666Y-188816666D01*
X318416666Y-188783333D01*
X318350000Y-188716666D01*
X318316666Y-188650000D01*
X318283333Y-188516666D01*
X318283333Y-188416666D01*
X318316666Y-188283333D01*
X318350000Y-188216666D01*
X318416666Y-188150000D01*
X318516666Y-188116666D01*
X318583333Y-188116666D01*
X318683333Y-188150000D01*
X318716666Y-188183333D01*
X318983333Y-188183333D02*
X319016666Y-188150000D01*
X319083333Y-188116666D01*
X319250000Y-188116666D01*
X319316666Y-188150000D01*
X319350000Y-188183333D01*
X319383333Y-188250000D01*
X319383333Y-188316666D01*
X319350000Y-188416666D01*
X318950000Y-188816666D01*
X319383333Y-188816666D01*
X319816666Y-188116666D02*
X319883333Y-188116666D01*
X319950000Y-188150000D01*
X319983333Y-188183333D01*
X320016666Y-188250000D01*
X320050000Y-188383333D01*
X320050000Y-188550000D01*
X320016666Y-188683333D01*
X319983333Y-188750000D01*
X319950000Y-188783333D01*
X319883333Y-188816666D01*
X319816666Y-188816666D01*
X319750000Y-188783333D01*
X319716666Y-188750000D01*
X319683333Y-188683333D01*
X319650000Y-188550000D01*
X319650000Y-188383333D01*
X319683333Y-188250000D01*
X319716666Y-188183333D01*
X319750000Y-188150000D01*
X319816666Y-188116666D01*
X320383333Y-188816666D02*
X320516666Y-188816666D01*
X320583333Y-188783333D01*
X320616666Y-188750000D01*
X320683333Y-188650000D01*
X320716666Y-188516666D01*
X320716666Y-188250000D01*
X320683333Y-188183333D01*
X320650000Y-188150000D01*
X320583333Y-188116666D01*
X320450000Y-188116666D01*
X320383333Y-188150000D01*
X320350000Y-188183333D01*
X320316666Y-188250000D01*
X320316666Y-188416666D01*
X320350000Y-188483333D01*
X320383333Y-188516666D01*
X320450000Y-188550000D01*
X320583333Y-188550000D01*
X320650000Y-188516666D01*
X320683333Y-188483333D01*
X320716666Y-188416666D01*
D15*
%TO.C,D109*%
X275500000Y-170300000D02*
X274600000Y-170300000D01*
X275500000Y-170000000D02*
X275500000Y-170300000D01*
X274600000Y-170300000D02*
X274600000Y-169600000D01*
X274600000Y-169600000D02*
X274900000Y-169600000D01*
X279460000Y-170000000D02*
X274940000Y-170000000D01*
X274940000Y-170000000D02*
X274940000Y-166400000D01*
X274940000Y-166400000D02*
X279460000Y-166400000D01*
X279460000Y-166400000D02*
X279460000Y-170000000D01*
%TO.C,J104*%
X350700000Y-115075000D02*
X354600000Y-115075000D01*
X350700000Y-130725000D02*
X354500000Y-130725000D01*
X360600000Y-130725000D02*
X360600000Y-115075000D01*
X358000000Y-130900000D02*
X360600000Y-128400000D01*
X358000000Y-114900000D02*
X360600000Y-117600000D01*
X350700000Y-130725000D02*
X350700000Y-115075000D01*
D16*
%TO.C,C207*%
X322557000Y-189460000D02*
X324843000Y-189460000D01*
X322557000Y-194540000D02*
X324843000Y-194540000D01*
X322557000Y-192889000D02*
X322557000Y-194540000D01*
X322557000Y-191111000D02*
X322557000Y-189460000D01*
X324843000Y-189460000D02*
X324843000Y-191111000D01*
X324843000Y-194540000D02*
X324843000Y-192889000D01*
%TO.C,R203*%
X340165000Y-166757000D02*
X341435000Y-166757000D01*
X340165000Y-169043000D02*
X340165000Y-166757000D01*
X341435000Y-169043000D02*
X340165000Y-169043000D01*
X341435000Y-166757000D02*
X341435000Y-169043000D01*
D15*
%TO.C,U202*%
X337900000Y-199600000D02*
X329100000Y-199600000D01*
X329100000Y-199600000D02*
X329100000Y-191200000D01*
X329100000Y-191200000D02*
X337900000Y-191200000D01*
X337900000Y-191200000D02*
X337900000Y-199600000D01*
D16*
%TO.C,R214*%
X324285000Y-161293000D02*
X323015000Y-161293000D01*
X324285000Y-159007000D02*
X324285000Y-161293000D01*
X323015000Y-159007000D02*
X324285000Y-159007000D01*
X323015000Y-161293000D02*
X323015000Y-159007000D01*
%TO.C,R204*%
X339843000Y-167735000D02*
X337557000Y-167735000D01*
X337557000Y-167735000D02*
X337557000Y-166465000D01*
X337557000Y-166465000D02*
X339843000Y-166465000D01*
X339843000Y-166465000D02*
X339843000Y-167735000D01*
D15*
%TO.C,D104*%
X154600000Y-120900000D02*
X154900000Y-120900000D01*
X155500000Y-121600000D02*
X154600000Y-121600000D01*
X155500000Y-121300000D02*
X155500000Y-121600000D01*
X154600000Y-121600000D02*
X154600000Y-120900000D01*
X159460000Y-121300000D02*
X154940000Y-121300000D01*
X154940000Y-121300000D02*
X154940000Y-117700000D01*
X154940000Y-117700000D02*
X159460000Y-117700000D01*
X159460000Y-117700000D02*
X159460000Y-121300000D01*
D16*
%TO.C,R213*%
X328515000Y-160543000D02*
X328515000Y-158257000D01*
X329785000Y-158257000D02*
X329785000Y-160543000D01*
X328515000Y-158257000D02*
X329785000Y-158257000D01*
X329785000Y-160543000D02*
X328515000Y-160543000D01*
D15*
%TO.C,D106*%
X235500000Y-143780000D02*
X235500000Y-144080000D01*
X234600000Y-143380000D02*
X234900000Y-143380000D01*
X235500000Y-144080000D02*
X234600000Y-144080000D01*
X234600000Y-144080000D02*
X234600000Y-143380000D01*
X239460000Y-143780000D02*
X234940000Y-143780000D01*
X234940000Y-143780000D02*
X234940000Y-140180000D01*
X234940000Y-140180000D02*
X239460000Y-140180000D01*
X239460000Y-140180000D02*
X239460000Y-143780000D01*
D16*
%TO.C,R208*%
X326305000Y-172435000D02*
X324019000Y-172435000D01*
X324019000Y-171165000D02*
X326305000Y-171165000D01*
X326305000Y-171165000D02*
X326305000Y-172435000D01*
X324019000Y-172435000D02*
X324019000Y-171165000D01*
%TO.C,C107*%
X139143000Y-131840000D02*
X136857000Y-131840000D01*
X139143000Y-126760000D02*
X136857000Y-126760000D01*
X139143000Y-128411000D02*
X139143000Y-126760000D01*
X136857000Y-131840000D02*
X136857000Y-130189000D01*
X136857000Y-126760000D02*
X136857000Y-128411000D01*
X139143000Y-130189000D02*
X139143000Y-131840000D01*
D15*
%TO.C,D114*%
X234600000Y-194600000D02*
X234900000Y-194600000D01*
X234600000Y-195300000D02*
X234600000Y-194600000D01*
X235500000Y-195300000D02*
X234600000Y-195300000D01*
X235500000Y-195000000D02*
X235500000Y-195300000D01*
X239460000Y-195000000D02*
X234940000Y-195000000D01*
X234940000Y-195000000D02*
X234940000Y-191400000D01*
X234940000Y-191400000D02*
X239460000Y-191400000D01*
X239460000Y-191400000D02*
X239460000Y-195000000D01*
D16*
%TO.C,R109*%
X134385000Y-153757000D02*
X134385000Y-156043000D01*
X134385000Y-156043000D02*
X133115000Y-156043000D01*
X133115000Y-153757000D02*
X134385000Y-153757000D01*
X133115000Y-156043000D02*
X133115000Y-153757000D01*
%TO.C,C206*%
X325257000Y-194540000D02*
X327543000Y-194540000D01*
X325257000Y-189460000D02*
X327543000Y-189460000D01*
X327543000Y-194540000D02*
X327543000Y-192889000D01*
X325257000Y-192889000D02*
X325257000Y-194540000D01*
X325257000Y-191111000D02*
X325257000Y-189460000D01*
X327543000Y-189460000D02*
X327543000Y-191111000D01*
D15*
%TO.C,D107*%
X194600000Y-144080000D02*
X194600000Y-143380000D01*
X195500000Y-144080000D02*
X194600000Y-144080000D01*
X195500000Y-143780000D02*
X195500000Y-144080000D01*
X194600000Y-143380000D02*
X194900000Y-143380000D01*
X199460000Y-143780000D02*
X194940000Y-143780000D01*
X194940000Y-143780000D02*
X194940000Y-140180000D01*
X194940000Y-140180000D02*
X199460000Y-140180000D01*
X199460000Y-140180000D02*
X199460000Y-143780000D01*
%TO.C,D208*%
X297300000Y-178200000D02*
X297300000Y-177900000D01*
X298200000Y-178600000D02*
X297900000Y-178600000D01*
X297300000Y-177900000D02*
X298200000Y-177900000D01*
X298200000Y-177900000D02*
X298200000Y-178600000D01*
X293340000Y-178200000D02*
X297860000Y-178200000D01*
X297860000Y-178200000D02*
X297860000Y-181800000D01*
X297860000Y-181800000D02*
X293340000Y-181800000D01*
X293340000Y-181800000D02*
X293340000Y-178200000D01*
D16*
%TO.C,R103*%
X114865000Y-154343000D02*
X114865000Y-152057000D01*
X116135000Y-152057000D02*
X116135000Y-154343000D01*
X116135000Y-154343000D02*
X114865000Y-154343000D01*
X114865000Y-152057000D02*
X116135000Y-152057000D01*
D15*
%TO.C,Q101*%
X131460000Y-161380000D02*
X131460000Y-160450000D01*
X131460000Y-158220000D02*
X129300000Y-158220000D01*
X131460000Y-158220000D02*
X131460000Y-159150000D01*
X131460000Y-161380000D02*
X130000000Y-161380000D01*
D11*
%TO.C,U103*%
X131700000Y-152600000D02*
X131700000Y-152950000D01*
X131700000Y-152950000D02*
X129750000Y-152950000D01*
X127400000Y-149000000D02*
X127400000Y-148650000D01*
X127400000Y-152600000D02*
X127400000Y-152950000D01*
X127400000Y-152950000D02*
X129350000Y-152950000D01*
X127400000Y-148500000D02*
X131650000Y-148500000D01*
X131700000Y-149000000D02*
X131700000Y-148600000D01*
D15*
X126391421Y-148400000D02*
G75*
G03*
X126391421Y-148400000I-141421J0D01*
G01*
%TO.C,J106*%
X103200000Y-136800000D02*
X103200000Y-139750000D01*
X110050000Y-135300000D02*
X110050000Y-134550000D01*
X110050000Y-134550000D02*
X108250000Y-134550000D01*
X108250000Y-135300000D02*
X110050000Y-135300000D01*
X110050000Y-136800000D02*
X109300000Y-136800000D01*
X104250000Y-134550000D02*
X102450000Y-134550000D01*
X102150000Y-134250000D02*
X102150000Y-135500000D01*
X102450000Y-135300000D02*
X104250000Y-135300000D01*
X109300000Y-139750000D02*
X106250000Y-139750000D01*
X102450000Y-136800000D02*
X103200000Y-136800000D01*
X105750000Y-134550000D02*
X105750000Y-135300000D01*
X102440000Y-134540000D02*
X102440000Y-140510000D01*
X109300000Y-136800000D02*
X109300000Y-139750000D01*
X102450000Y-134550000D02*
X102450000Y-135300000D01*
X106750000Y-134550000D02*
X105750000Y-134550000D01*
X110060000Y-134540000D02*
X102440000Y-134540000D01*
X104250000Y-135300000D02*
X104250000Y-134550000D01*
X106750000Y-135300000D02*
X106750000Y-134550000D01*
X102440000Y-140510000D02*
X110060000Y-140510000D01*
X103400000Y-134250000D02*
X102150000Y-134250000D01*
X108250000Y-134550000D02*
X108250000Y-135300000D01*
X105750000Y-135300000D02*
X106750000Y-135300000D01*
X103200000Y-139750000D02*
X106250000Y-139750000D01*
X110060000Y-140510000D02*
X110060000Y-134540000D01*
D16*
%TO.C,R113*%
X129757000Y-156465000D02*
X132043000Y-156465000D01*
X132043000Y-157735000D02*
X129757000Y-157735000D01*
X132043000Y-156465000D02*
X132043000Y-157735000D01*
X129757000Y-157735000D02*
X129757000Y-156465000D01*
D15*
%TO.C,D203*%
X258200000Y-203600000D02*
X257900000Y-203600000D01*
X258200000Y-202900000D02*
X258200000Y-203600000D01*
X257300000Y-203200000D02*
X257300000Y-202900000D01*
X257300000Y-202900000D02*
X258200000Y-202900000D01*
X253340000Y-203200000D02*
X257860000Y-203200000D01*
X257860000Y-203200000D02*
X257860000Y-206800000D01*
X257860000Y-206800000D02*
X253340000Y-206800000D01*
X253340000Y-206800000D02*
X253340000Y-203200000D01*
D16*
%TO.C,C211*%
X327757000Y-170760000D02*
X327757000Y-172411000D01*
X330043000Y-175840000D02*
X327757000Y-175840000D01*
X330043000Y-174189000D02*
X330043000Y-175840000D01*
X330043000Y-172411000D02*
X330043000Y-170760000D01*
X330043000Y-170760000D02*
X327757000Y-170760000D01*
X327757000Y-175840000D02*
X327757000Y-174189000D01*
D15*
%TO.C,D205*%
X177300000Y-178200000D02*
X177300000Y-177900000D01*
X178200000Y-177900000D02*
X178200000Y-178600000D01*
X177300000Y-177900000D02*
X178200000Y-177900000D01*
X178200000Y-178600000D02*
X177900000Y-178600000D01*
X173340000Y-178200000D02*
X177860000Y-178200000D01*
X177860000Y-178200000D02*
X177860000Y-181800000D01*
X177860000Y-181800000D02*
X173340000Y-181800000D01*
X173340000Y-181800000D02*
X173340000Y-178200000D01*
%TO.C,D113*%
X274600000Y-195300000D02*
X274600000Y-194600000D01*
X275500000Y-195300000D02*
X274600000Y-195300000D01*
X275500000Y-195000000D02*
X275500000Y-195300000D01*
X274600000Y-194600000D02*
X274900000Y-194600000D01*
X279460000Y-195000000D02*
X274940000Y-195000000D01*
X274940000Y-195000000D02*
X274940000Y-191400000D01*
X274940000Y-191400000D02*
X279460000Y-191400000D01*
X279460000Y-191400000D02*
X279460000Y-195000000D01*
D11*
%TO.C,U201*%
X332679123Y-182955122D02*
X332679123Y-188035122D01*
X332679123Y-188035122D02*
X334711123Y-188035122D01*
X334711123Y-188035122D02*
X334711123Y-182955122D01*
X334711123Y-182955122D02*
X332679123Y-182955122D01*
X339154877Y-188295122D02*
G75*
G03*
X339154877Y-188295122I-259754J0D01*
G01*
D16*
%TO.C,C201*%
X326257000Y-186940000D02*
X328543000Y-186940000D01*
X326257000Y-183511000D02*
X326257000Y-181860000D01*
X326257000Y-181860000D02*
X328543000Y-181860000D01*
X326257000Y-185289000D02*
X326257000Y-186940000D01*
X328543000Y-181860000D02*
X328543000Y-183511000D01*
X328543000Y-186940000D02*
X328543000Y-185289000D01*
D15*
%TO.C,D210*%
X218200000Y-152900000D02*
X218200000Y-153600000D01*
X218200000Y-153600000D02*
X217900000Y-153600000D01*
X217300000Y-152900000D02*
X218200000Y-152900000D01*
X217300000Y-153200000D02*
X217300000Y-152900000D01*
X213340000Y-153200000D02*
X217860000Y-153200000D01*
X217860000Y-153200000D02*
X217860000Y-156800000D01*
X217860000Y-156800000D02*
X213340000Y-156800000D01*
X213340000Y-156800000D02*
X213340000Y-153200000D01*
D16*
%TO.C,C204*%
X338965000Y-185757000D02*
X340235000Y-185757000D01*
X340235000Y-185757000D02*
X340235000Y-188043000D01*
X340235000Y-188043000D02*
X338965000Y-188043000D01*
X338965000Y-188043000D02*
X338965000Y-185757000D01*
D15*
%TO.C,D111*%
X194600000Y-170300000D02*
X194600000Y-169600000D01*
X195500000Y-170000000D02*
X195500000Y-170300000D01*
X195500000Y-170300000D02*
X194600000Y-170300000D01*
X194600000Y-169600000D02*
X194900000Y-169600000D01*
X199460000Y-170000000D02*
X194940000Y-170000000D01*
X194940000Y-170000000D02*
X194940000Y-166400000D01*
X194940000Y-166400000D02*
X199460000Y-166400000D01*
X199460000Y-166400000D02*
X199460000Y-170000000D01*
D16*
%TO.C,C202*%
X323507000Y-183511000D02*
X323507000Y-181860000D01*
X325793000Y-186940000D02*
X325793000Y-185289000D01*
X323507000Y-185289000D02*
X323507000Y-186940000D01*
X323507000Y-181860000D02*
X325793000Y-181860000D01*
X325793000Y-181860000D02*
X325793000Y-183511000D01*
X323507000Y-186940000D02*
X325793000Y-186940000D01*
D15*
%TO.C,D212*%
X297300000Y-152900000D02*
X298200000Y-152900000D01*
X298200000Y-152900000D02*
X298200000Y-153600000D01*
X297300000Y-153200000D02*
X297300000Y-152900000D01*
X298200000Y-153600000D02*
X297900000Y-153600000D01*
X293340000Y-153200000D02*
X297860000Y-153200000D01*
X297860000Y-153200000D02*
X297860000Y-156800000D01*
X297860000Y-156800000D02*
X293340000Y-156800000D01*
X293340000Y-156800000D02*
X293340000Y-153200000D01*
%TO.C,D112*%
X155500000Y-170300000D02*
X154600000Y-170300000D01*
X154600000Y-170300000D02*
X154600000Y-169600000D01*
X154600000Y-169600000D02*
X154900000Y-169600000D01*
X155500000Y-170000000D02*
X155500000Y-170300000D01*
X159460000Y-170000000D02*
X154940000Y-170000000D01*
X154940000Y-170000000D02*
X154940000Y-166400000D01*
X154940000Y-166400000D02*
X159460000Y-166400000D01*
X159460000Y-166400000D02*
X159460000Y-170000000D01*
D16*
%TO.C,C121*%
X126207000Y-142660000D02*
X128493000Y-142660000D01*
X126207000Y-144311000D02*
X126207000Y-142660000D01*
X126207000Y-147740000D02*
X128493000Y-147740000D01*
X126207000Y-146089000D02*
X126207000Y-147740000D01*
X128493000Y-142660000D02*
X128493000Y-144311000D01*
X128493000Y-147740000D02*
X128493000Y-146089000D01*
%TO.C,R202*%
X334165000Y-170643000D02*
X334165000Y-168357000D01*
X335435000Y-168357000D02*
X335435000Y-170643000D01*
X335435000Y-170643000D02*
X334165000Y-170643000D01*
X334165000Y-168357000D02*
X335435000Y-168357000D01*
D15*
%TO.C,D206*%
X217300000Y-178200000D02*
X217300000Y-177900000D01*
X218200000Y-178600000D02*
X217900000Y-178600000D01*
X217300000Y-177900000D02*
X218200000Y-177900000D01*
X218200000Y-177900000D02*
X218200000Y-178600000D01*
X213340000Y-178200000D02*
X217860000Y-178200000D01*
X217860000Y-178200000D02*
X217860000Y-181800000D01*
X217860000Y-181800000D02*
X213340000Y-181800000D01*
X213340000Y-181800000D02*
X213340000Y-178200000D01*
D16*
%TO.C,R206*%
X333735000Y-168357000D02*
X333735000Y-170643000D01*
X332465000Y-170643000D02*
X332465000Y-168357000D01*
X333735000Y-170643000D02*
X332465000Y-170643000D01*
X332465000Y-168357000D02*
X333735000Y-168357000D01*
%TO.C,R106*%
X122335000Y-148257000D02*
X122335000Y-150543000D01*
X121065000Y-148257000D02*
X122335000Y-148257000D01*
X122335000Y-150543000D02*
X121065000Y-150543000D01*
X121065000Y-150543000D02*
X121065000Y-148257000D01*
D15*
%TO.C,D201*%
X177300000Y-202900000D02*
X178200000Y-202900000D01*
X178200000Y-203600000D02*
X177900000Y-203600000D01*
X178200000Y-202900000D02*
X178200000Y-203600000D01*
X177300000Y-203200000D02*
X177300000Y-202900000D01*
X173340000Y-203200000D02*
X177860000Y-203200000D01*
X177860000Y-203200000D02*
X177860000Y-206800000D01*
X177860000Y-206800000D02*
X173340000Y-206800000D01*
X173340000Y-206800000D02*
X173340000Y-203200000D01*
D16*
%TO.C,C110*%
X128457000Y-124540000D02*
X130743000Y-124540000D01*
X128457000Y-121111000D02*
X128457000Y-119460000D01*
X130743000Y-119460000D02*
X130743000Y-121111000D01*
X128457000Y-119460000D02*
X130743000Y-119460000D01*
X130743000Y-124540000D02*
X130743000Y-122889000D01*
X128457000Y-122889000D02*
X128457000Y-124540000D01*
%TO.C,R105*%
X120335000Y-149957000D02*
X120335000Y-152243000D01*
X119065000Y-152243000D02*
X119065000Y-149957000D01*
X119065000Y-149957000D02*
X120335000Y-149957000D01*
X120335000Y-152243000D02*
X119065000Y-152243000D01*
D15*
%TO.C,D102*%
X234600000Y-121600000D02*
X234600000Y-120900000D01*
X235500000Y-121600000D02*
X234600000Y-121600000D01*
X235500000Y-121300000D02*
X235500000Y-121600000D01*
X234600000Y-120900000D02*
X234900000Y-120900000D01*
X239460000Y-121300000D02*
X234940000Y-121300000D01*
X234940000Y-121300000D02*
X234940000Y-117700000D01*
X234940000Y-117700000D02*
X239460000Y-117700000D01*
X239460000Y-117700000D02*
X239460000Y-121300000D01*
D17*
%TO.C,C103*%
X117262000Y-138924000D02*
X115738000Y-138924000D01*
X117262000Y-135876000D02*
X117262000Y-136892000D01*
X115738000Y-136892000D02*
X115738000Y-135876000D01*
X117262000Y-137908000D02*
X117262000Y-138924000D01*
X115738000Y-138924000D02*
X115738000Y-137908000D01*
X115738000Y-135876000D02*
X117262000Y-135876000D01*
X115865000Y-135749000D02*
G75*
G03*
X115865000Y-135749000I-127000J0D01*
G01*
D15*
%TO.C,J103*%
X100550001Y-114925000D02*
X100550001Y-130575000D01*
X103150001Y-114750000D02*
X100550001Y-117250000D01*
X110450001Y-114925000D02*
X110450001Y-130575000D01*
X110450001Y-130575000D02*
X106550001Y-130575000D01*
X103150001Y-130750000D02*
X100550001Y-128050000D01*
X110450001Y-114925000D02*
X106650001Y-114925000D01*
%TO.C,Q201*%
X325640000Y-160980000D02*
X327800000Y-160980000D01*
X325640000Y-157820000D02*
X325640000Y-158750000D01*
X325640000Y-157820000D02*
X327100000Y-157820000D01*
X325640000Y-160980000D02*
X325640000Y-160050000D01*
%TO.C,D103*%
X195500000Y-121300000D02*
X195500000Y-121600000D01*
X195500000Y-121600000D02*
X194600000Y-121600000D01*
X194600000Y-120900000D02*
X194900000Y-120900000D01*
X194600000Y-121600000D02*
X194600000Y-120900000D01*
X199460000Y-121300000D02*
X194940000Y-121300000D01*
X194940000Y-121300000D02*
X194940000Y-117700000D01*
X194940000Y-117700000D02*
X199460000Y-117700000D01*
X199460000Y-117700000D02*
X199460000Y-121300000D01*
D16*
%TO.C,R107*%
X129343000Y-155335000D02*
X127057000Y-155335000D01*
X127057000Y-154065000D02*
X129343000Y-154065000D01*
X127057000Y-155335000D02*
X127057000Y-154065000D01*
X129343000Y-154065000D02*
X129343000Y-155335000D01*
D15*
%TO.C,D209*%
X177300000Y-152900000D02*
X178200000Y-152900000D01*
X178200000Y-152900000D02*
X178200000Y-153600000D01*
X178200000Y-153600000D02*
X177900000Y-153600000D01*
X177300000Y-153200000D02*
X177300000Y-152900000D01*
X173340000Y-153200000D02*
X177860000Y-153200000D01*
X177860000Y-153200000D02*
X177860000Y-156800000D01*
X177860000Y-156800000D02*
X173340000Y-156800000D01*
X173340000Y-156800000D02*
X173340000Y-153200000D01*
D11*
%TO.C,U203*%
X328000000Y-169600000D02*
X328000000Y-169950000D01*
X328000000Y-170100000D02*
X323750000Y-170100000D01*
X323700000Y-166000000D02*
X323700000Y-165650000D01*
X323700000Y-169600000D02*
X323700000Y-170000000D01*
X323700000Y-165650000D02*
X325650000Y-165650000D01*
X328000000Y-165650000D02*
X326050000Y-165650000D01*
X328000000Y-166000000D02*
X328000000Y-165650000D01*
D15*
X329291421Y-170200000D02*
G75*
G03*
X329291421Y-170200000I-141421J0D01*
G01*
D16*
%TO.C,C104*%
X115865000Y-133257000D02*
X117135000Y-133257000D01*
X117135000Y-133257000D02*
X117135000Y-135543000D01*
X115865000Y-135543000D02*
X115865000Y-133257000D01*
X117135000Y-135543000D02*
X115865000Y-135543000D01*
D15*
%TO.C,D207*%
X258200000Y-178600000D02*
X257900000Y-178600000D01*
X258200000Y-177900000D02*
X258200000Y-178600000D01*
X257300000Y-178200000D02*
X257300000Y-177900000D01*
X257300000Y-177900000D02*
X258200000Y-177900000D01*
X253340000Y-178200000D02*
X257860000Y-178200000D01*
X257860000Y-178200000D02*
X257860000Y-181800000D01*
X257860000Y-181800000D02*
X253340000Y-181800000D01*
X253340000Y-181800000D02*
X253340000Y-178200000D01*
%TO.C,D115*%
X194600000Y-195300000D02*
X194600000Y-194600000D01*
X195500000Y-195300000D02*
X194600000Y-195300000D01*
X195500000Y-195000000D02*
X195500000Y-195300000D01*
X194600000Y-194600000D02*
X194900000Y-194600000D01*
X199460000Y-195000000D02*
X194940000Y-195000000D01*
X194940000Y-195000000D02*
X194940000Y-191400000D01*
X194940000Y-191400000D02*
X199460000Y-191400000D01*
X199460000Y-191400000D02*
X199460000Y-195000000D01*
%TO.C,D204*%
X297300000Y-203200000D02*
X297300000Y-202900000D01*
X297300000Y-202900000D02*
X298200000Y-202900000D01*
X298200000Y-202900000D02*
X298200000Y-203600000D01*
X298200000Y-203600000D02*
X297900000Y-203600000D01*
X293340000Y-203200000D02*
X297860000Y-203200000D01*
X297860000Y-203200000D02*
X297860000Y-206800000D01*
X297860000Y-206800000D02*
X293340000Y-206800000D01*
X293340000Y-206800000D02*
X293340000Y-203200000D01*
D16*
%TO.C,R114*%
X136235000Y-146857000D02*
X136235000Y-149143000D01*
X134965000Y-149143000D02*
X134965000Y-146857000D01*
X134965000Y-146857000D02*
X136235000Y-146857000D01*
X136235000Y-149143000D02*
X134965000Y-149143000D01*
%TO.C,C106*%
X131857000Y-122889000D02*
X131857000Y-124540000D01*
X131857000Y-124540000D02*
X134143000Y-124540000D01*
X131857000Y-121111000D02*
X131857000Y-119460000D01*
X131857000Y-119460000D02*
X134143000Y-119460000D01*
X134143000Y-124540000D02*
X134143000Y-122889000D01*
X134143000Y-119460000D02*
X134143000Y-121111000D01*
D15*
%TO.C,D108*%
X155500000Y-143780000D02*
X155500000Y-144080000D01*
X154600000Y-143380000D02*
X154900000Y-143380000D01*
X154600000Y-144080000D02*
X154600000Y-143380000D01*
X155500000Y-144080000D02*
X154600000Y-144080000D01*
X159460000Y-143780000D02*
X154940000Y-143780000D01*
X154940000Y-143780000D02*
X154940000Y-140180000D01*
X154940000Y-140180000D02*
X159460000Y-140180000D01*
X159460000Y-140180000D02*
X159460000Y-143780000D01*
D16*
%TO.C,R101*%
X122335000Y-146543000D02*
X121065000Y-146543000D01*
X121065000Y-144257000D02*
X122335000Y-144257000D01*
X121065000Y-146543000D02*
X121065000Y-144257000D01*
X122335000Y-144257000D02*
X122335000Y-146543000D01*
D15*
%TO.C,J101*%
X109685000Y-144390000D02*
X103715000Y-144390000D01*
X109685000Y-159510000D02*
X109685000Y-144390000D01*
X108925000Y-157700000D02*
X108925000Y-159500000D01*
X104475000Y-145150000D02*
X104475000Y-151950000D01*
X103715000Y-144390000D02*
X103715000Y-159510000D01*
X107425000Y-159500000D02*
X107425000Y-158750000D01*
X109675000Y-156200000D02*
X109675000Y-147700000D01*
X109675000Y-146200000D02*
X109675000Y-144400000D01*
X109975000Y-145350000D02*
X109975000Y-144100000D01*
X104475000Y-158750000D02*
X104475000Y-151950000D01*
X108925000Y-159500000D02*
X109675000Y-159500000D01*
X108925000Y-147700000D02*
X108925000Y-156200000D01*
X109675000Y-157700000D02*
X108925000Y-157700000D01*
X107425000Y-144400000D02*
X107425000Y-145150000D01*
X107425000Y-158750000D02*
X104475000Y-158750000D01*
X109675000Y-159500000D02*
X109675000Y-157700000D01*
X108925000Y-156200000D02*
X109675000Y-156200000D01*
X108925000Y-146200000D02*
X109675000Y-146200000D01*
X109675000Y-147700000D02*
X108925000Y-147700000D01*
X103715000Y-159510000D02*
X109685000Y-159510000D01*
X108925000Y-144400000D02*
X108925000Y-146200000D01*
X107425000Y-145150000D02*
X104475000Y-145150000D01*
X109975000Y-144100000D02*
X108725000Y-144100000D01*
X109675000Y-144400000D02*
X108925000Y-144400000D01*
D16*
%TO.C,R111*%
X134765000Y-156043000D02*
X134765000Y-153757000D01*
X136035000Y-156043000D02*
X134765000Y-156043000D01*
X136035000Y-153757000D02*
X136035000Y-156043000D01*
X134765000Y-153757000D02*
X136035000Y-153757000D01*
D15*
%TO.C,D116*%
X155500000Y-195300000D02*
X154600000Y-195300000D01*
X154600000Y-195300000D02*
X154600000Y-194600000D01*
X155500000Y-195000000D02*
X155500000Y-195300000D01*
X154600000Y-194600000D02*
X154900000Y-194600000D01*
X159460000Y-195000000D02*
X154940000Y-195000000D01*
X154940000Y-195000000D02*
X154940000Y-191400000D01*
X154940000Y-191400000D02*
X159460000Y-191400000D01*
X159460000Y-191400000D02*
X159460000Y-195000000D01*
%TO.C,D213*%
X177300000Y-128200000D02*
X177300000Y-127900000D01*
X178200000Y-128600000D02*
X177900000Y-128600000D01*
X177300000Y-127900000D02*
X178200000Y-127900000D01*
X178200000Y-127900000D02*
X178200000Y-128600000D01*
X173340000Y-128200000D02*
X177860000Y-128200000D01*
X177860000Y-128200000D02*
X177860000Y-131800000D01*
X177860000Y-131800000D02*
X173340000Y-131800000D01*
X173340000Y-131800000D02*
X173340000Y-128200000D01*
D16*
%TO.C,R209*%
X321265000Y-165443000D02*
X321265000Y-163157000D01*
X322535000Y-165443000D02*
X321265000Y-165443000D01*
X321265000Y-163157000D02*
X322535000Y-163157000D01*
X322535000Y-163157000D02*
X322535000Y-165443000D01*
%TO.C,C109*%
X137643000Y-124540000D02*
X137643000Y-122889000D01*
X135357000Y-124540000D02*
X137643000Y-124540000D01*
X135357000Y-122889000D02*
X135357000Y-124540000D01*
X135357000Y-121111000D02*
X135357000Y-119460000D01*
X137643000Y-119460000D02*
X137643000Y-121111000D01*
X135357000Y-119460000D02*
X137643000Y-119460000D01*
%TO.C,C101*%
X128056999Y-135540000D02*
X130342999Y-135540000D01*
X128056999Y-130460000D02*
X130342999Y-130460000D01*
X128056999Y-132111000D02*
X128056999Y-130460000D01*
X128056999Y-133889000D02*
X128056999Y-135540000D01*
X130342999Y-130460000D02*
X130342999Y-132111000D01*
X130342999Y-135540000D02*
X130342999Y-133889000D01*
%TO.C,R108*%
X129707000Y-147635000D02*
X129707000Y-146365000D01*
X131993000Y-147635000D02*
X129707000Y-147635000D01*
X131993000Y-146365000D02*
X131993000Y-147635000D01*
X129707000Y-146365000D02*
X131993000Y-146365000D01*
D17*
%TO.C,C105*%
X125762000Y-149224000D02*
X124238000Y-149224000D01*
X125762000Y-148208000D02*
X125762000Y-149224000D01*
X124238000Y-146176000D02*
X125762000Y-146176000D01*
X125762000Y-146176000D02*
X125762000Y-147192000D01*
X124238000Y-147192000D02*
X124238000Y-146176000D01*
X124238000Y-149224000D02*
X124238000Y-148208000D01*
X125889000Y-149351000D02*
G75*
G03*
X125889000Y-149351000I-127000J0D01*
G01*
D16*
%TO.C,C108*%
X133857000Y-131840000D02*
X133857000Y-130189000D01*
X136143000Y-131840000D02*
X133857000Y-131840000D01*
X133857000Y-126760000D02*
X133857000Y-128411000D01*
X136143000Y-126760000D02*
X133857000Y-126760000D01*
X136143000Y-130189000D02*
X136143000Y-131840000D01*
X136143000Y-128411000D02*
X136143000Y-126760000D01*
D15*
%TO.C,D211*%
X258200000Y-152900000D02*
X258200000Y-153600000D01*
X257300000Y-153200000D02*
X257300000Y-152900000D01*
X257300000Y-152900000D02*
X258200000Y-152900000D01*
X258200000Y-153600000D02*
X257900000Y-153600000D01*
X253340000Y-153200000D02*
X257860000Y-153200000D01*
X257860000Y-153200000D02*
X257860000Y-156800000D01*
X257860000Y-156800000D02*
X253340000Y-156800000D01*
X253340000Y-156800000D02*
X253340000Y-153200000D01*
D16*
%TO.C,R205*%
X335865000Y-166757000D02*
X337135000Y-166757000D01*
X337135000Y-169043000D02*
X335865000Y-169043000D01*
X335865000Y-169043000D02*
X335865000Y-166757000D01*
X337135000Y-166757000D02*
X337135000Y-169043000D01*
%TO.C,R104*%
X116457000Y-151565000D02*
X118743000Y-151565000D01*
X118743000Y-151565000D02*
X118743000Y-152835000D01*
X116457000Y-152835000D02*
X116457000Y-151565000D01*
X118743000Y-152835000D02*
X116457000Y-152835000D01*
D17*
%TO.C,C203*%
X338774500Y-183265000D02*
X338774500Y-182249000D01*
X340298500Y-184281000D02*
X340298500Y-185297000D01*
X340298500Y-182249000D02*
X340298500Y-183265000D01*
X338774500Y-185297000D02*
X338774500Y-184281000D01*
X340298500Y-185297000D02*
X338774500Y-185297000D01*
X338774500Y-182249000D02*
X340298500Y-182249000D01*
X340425500Y-185424000D02*
G75*
G03*
X340425500Y-185424000I-127000J0D01*
G01*
D16*
%TO.C,R211*%
X321035000Y-163157000D02*
X321035000Y-165443000D01*
X319765000Y-163157000D02*
X321035000Y-163157000D01*
X321035000Y-165443000D02*
X319765000Y-165443000D01*
X319765000Y-165443000D02*
X319765000Y-163157000D01*
%TO.C,R212*%
X320835000Y-171743000D02*
X319565000Y-171743000D01*
X319565000Y-171743000D02*
X319565000Y-169457000D01*
X319565000Y-169457000D02*
X320835000Y-169457000D01*
X320835000Y-169457000D02*
X320835000Y-171743000D01*
%TO.C,R110*%
X134543000Y-147635000D02*
X132257000Y-147635000D01*
X134543000Y-146365000D02*
X134543000Y-147635000D01*
X132257000Y-146365000D02*
X134543000Y-146365000D01*
X132257000Y-147635000D02*
X132257000Y-146365000D01*
%TO.C,C210*%
X322557000Y-196460000D02*
X322557000Y-198111000D01*
X324843000Y-196460000D02*
X322557000Y-196460000D01*
X324843000Y-201540000D02*
X322557000Y-201540000D01*
X322557000Y-201540000D02*
X322557000Y-199889000D01*
X324843000Y-198111000D02*
X324843000Y-196460000D01*
X324843000Y-199889000D02*
X324843000Y-201540000D01*
D15*
%TO.C,D110*%
X235500000Y-170000000D02*
X235500000Y-170300000D01*
X234600000Y-170300000D02*
X234600000Y-169600000D01*
X235500000Y-170300000D02*
X234600000Y-170300000D01*
X234600000Y-169600000D02*
X234900000Y-169600000D01*
X239460000Y-170000000D02*
X234940000Y-170000000D01*
X234940000Y-170000000D02*
X234940000Y-166400000D01*
X234940000Y-166400000D02*
X239460000Y-166400000D01*
X239460000Y-166400000D02*
X239460000Y-170000000D01*
%TO.C,J201*%
X324450000Y-178725000D02*
X321400000Y-178725000D01*
X320900000Y-174275000D02*
X321900000Y-174275000D01*
X319400000Y-173525000D02*
X317600000Y-173525000D01*
X321900000Y-174275000D02*
X321900000Y-173525000D01*
X323400000Y-173525000D02*
X323400000Y-174275000D01*
X320900000Y-173525000D02*
X320900000Y-174275000D01*
X317600000Y-173525000D02*
X317600000Y-174275000D01*
X324450000Y-175775000D02*
X324450000Y-178725000D01*
X318550000Y-173225000D02*
X317300000Y-173225000D01*
X325200000Y-173525000D02*
X323400000Y-173525000D01*
X325200000Y-175775000D02*
X324450000Y-175775000D01*
X325200000Y-174275000D02*
X325200000Y-173525000D01*
X317590000Y-179485000D02*
X325210000Y-179485000D01*
X325210000Y-179485000D02*
X325210000Y-173515000D01*
X323400000Y-174275000D02*
X325200000Y-174275000D01*
X318350000Y-178725000D02*
X321400000Y-178725000D01*
X317600000Y-174275000D02*
X319400000Y-174275000D01*
X317300000Y-173225000D02*
X317300000Y-174475000D01*
X318350000Y-175775000D02*
X318350000Y-178725000D01*
X319400000Y-174275000D02*
X319400000Y-173525000D01*
X325210000Y-173515000D02*
X317590000Y-173515000D01*
X321900000Y-173525000D02*
X320900000Y-173525000D01*
X317590000Y-173515000D02*
X317590000Y-179485000D01*
X317600000Y-175775000D02*
X318350000Y-175775000D01*
%TO.C,U102*%
X118200000Y-121400000D02*
X127000000Y-121400000D01*
X127000000Y-121400000D02*
X127000000Y-129800000D01*
X127000000Y-129800000D02*
X118200000Y-129800000D01*
X118200000Y-129800000D02*
X118200000Y-121400000D01*
%TO.C,D101*%
X275500000Y-121600000D02*
X274600000Y-121600000D01*
X274600000Y-121600000D02*
X274600000Y-120900000D01*
X275500000Y-121300000D02*
X275500000Y-121600000D01*
X274600000Y-120900000D02*
X274900000Y-120900000D01*
X279460000Y-121300000D02*
X274940000Y-121300000D01*
X274940000Y-121300000D02*
X274940000Y-117700000D01*
X274940000Y-117700000D02*
X279460000Y-117700000D01*
X279460000Y-117700000D02*
X279460000Y-121300000D01*
%TO.C,D216*%
X297300000Y-128200000D02*
X297300000Y-127900000D01*
X298200000Y-128600000D02*
X297900000Y-128600000D01*
X297300000Y-127900000D02*
X298200000Y-127900000D01*
X298200000Y-127900000D02*
X298200000Y-128600000D01*
X293340000Y-128200000D02*
X297860000Y-128200000D01*
X297860000Y-128200000D02*
X297860000Y-131800000D01*
X297860000Y-131800000D02*
X293340000Y-131800000D01*
X293340000Y-131800000D02*
X293340000Y-128200000D01*
D16*
%TO.C,R207*%
X330535000Y-162657000D02*
X330535000Y-164943000D01*
X330535000Y-164943000D02*
X329265000Y-164943000D01*
X329265000Y-162657000D02*
X330535000Y-162657000D01*
X329265000Y-164943000D02*
X329265000Y-162657000D01*
%TO.C,R102*%
X122565000Y-145819000D02*
X123835000Y-145819000D01*
X122565000Y-148105000D02*
X122565000Y-145819000D01*
X123835000Y-145819000D02*
X123835000Y-148105000D01*
X123835000Y-148105000D02*
X122565000Y-148105000D01*
D15*
%TO.C,D214*%
X217300000Y-127900000D02*
X218200000Y-127900000D01*
X218200000Y-128600000D02*
X217900000Y-128600000D01*
X217300000Y-128200000D02*
X217300000Y-127900000D01*
X218200000Y-127900000D02*
X218200000Y-128600000D01*
X213340000Y-128200000D02*
X217860000Y-128200000D01*
X217860000Y-128200000D02*
X217860000Y-131800000D01*
X217860000Y-131800000D02*
X213340000Y-131800000D01*
X213340000Y-131800000D02*
X213340000Y-128200000D01*
%TO.C,D215*%
X258200000Y-127900000D02*
X258200000Y-128600000D01*
X258200000Y-128600000D02*
X257900000Y-128600000D01*
X257300000Y-127900000D02*
X258200000Y-127900000D01*
X257300000Y-128200000D02*
X257300000Y-127900000D01*
X253340000Y-128200000D02*
X257860000Y-128200000D01*
X257860000Y-128200000D02*
X257860000Y-131800000D01*
X257860000Y-131800000D02*
X253340000Y-131800000D01*
X253340000Y-131800000D02*
X253340000Y-128200000D01*
D11*
%TO.C,U101*%
X121388875Y-138344879D02*
X123420875Y-138344879D01*
X123420875Y-133264879D02*
X121388875Y-133264879D01*
X121388875Y-133264879D02*
X121388875Y-138344879D01*
X123420875Y-138344879D02*
X123420875Y-133264879D01*
X117464629Y-133004879D02*
G75*
G03*
X117464629Y-133004879I-259754J0D01*
G01*
D15*
%TO.C,D202*%
X218200000Y-203600000D02*
X217900000Y-203600000D01*
X218200000Y-202900000D02*
X218200000Y-203600000D01*
X217300000Y-202900000D02*
X218200000Y-202900000D01*
X217300000Y-203200000D02*
X217300000Y-202900000D01*
X213340000Y-203200000D02*
X217860000Y-203200000D01*
X217860000Y-203200000D02*
X217860000Y-206800000D01*
X217860000Y-206800000D02*
X213340000Y-206800000D01*
X213340000Y-206800000D02*
X213340000Y-203200000D01*
%TO.C,D105*%
X275500000Y-144080000D02*
X274600000Y-144080000D01*
X274600000Y-144080000D02*
X274600000Y-143380000D01*
X275500000Y-143780000D02*
X275500000Y-144080000D01*
X274600000Y-143380000D02*
X274900000Y-143380000D01*
X279460000Y-143780000D02*
X274940000Y-143780000D01*
X274940000Y-143780000D02*
X274940000Y-140180000D01*
X274940000Y-140180000D02*
X279460000Y-140180000D01*
X279460000Y-140180000D02*
X279460000Y-143780000D01*
%TO.C,J105*%
X354400000Y-158700000D02*
X357350000Y-158700000D01*
X357350000Y-158700000D02*
X357350000Y-151900000D01*
X357350000Y-145100000D02*
X357350000Y-151900000D01*
X352140000Y-144340000D02*
X352140000Y-159460000D01*
X352140000Y-159460000D02*
X358110000Y-159460000D01*
X352900000Y-157650000D02*
X352150000Y-157650000D01*
X352900000Y-146150000D02*
X352900000Y-144350000D01*
X358110000Y-159460000D02*
X358110000Y-144340000D01*
X352150000Y-157650000D02*
X352150000Y-159450000D01*
X354400000Y-159450000D02*
X354400000Y-158700000D01*
X352900000Y-147650000D02*
X352150000Y-147650000D01*
X351850000Y-158500000D02*
X351850000Y-159750000D01*
X352900000Y-156150000D02*
X352900000Y-147650000D01*
X352150000Y-144350000D02*
X352150000Y-146150000D01*
X354400000Y-144350000D02*
X354400000Y-145100000D01*
X352900000Y-144350000D02*
X352150000Y-144350000D01*
X351850000Y-159750000D02*
X353100000Y-159750000D01*
X358110000Y-144340000D02*
X352140000Y-144340000D01*
X352900000Y-159450000D02*
X352900000Y-157650000D01*
X354400000Y-145100000D02*
X357350000Y-145100000D01*
X352150000Y-156150000D02*
X352900000Y-156150000D01*
X352150000Y-146150000D02*
X352900000Y-146150000D01*
X352150000Y-159450000D02*
X352900000Y-159450000D01*
X352150000Y-147650000D02*
X352150000Y-156150000D01*
%TO.C,J102*%
X130050000Y-144025000D02*
X133100000Y-144025000D01*
X131100000Y-139575000D02*
X131100000Y-138825000D01*
X136900000Y-141075000D02*
X136150000Y-141075000D01*
X129000000Y-138525000D02*
X129000000Y-139775000D01*
X129290000Y-144785000D02*
X136910000Y-144785000D01*
X136910000Y-138815000D02*
X129290000Y-138815000D01*
X133600000Y-139575000D02*
X133600000Y-138825000D01*
X136150000Y-141075000D02*
X136150000Y-144025000D01*
X136900000Y-138825000D02*
X135100000Y-138825000D01*
X130250000Y-138525000D02*
X129000000Y-138525000D01*
X129300000Y-138825000D02*
X129300000Y-139575000D01*
X135100000Y-138825000D02*
X135100000Y-139575000D01*
X133600000Y-138825000D02*
X132600000Y-138825000D01*
X132600000Y-139575000D02*
X133600000Y-139575000D01*
X135100000Y-139575000D02*
X136900000Y-139575000D01*
X131100000Y-138825000D02*
X129300000Y-138825000D01*
X129300000Y-139575000D02*
X131100000Y-139575000D01*
X136910000Y-144785000D02*
X136910000Y-138815000D01*
X136900000Y-139575000D02*
X136900000Y-138825000D01*
X130050000Y-141075000D02*
X130050000Y-144025000D01*
X132600000Y-138825000D02*
X132600000Y-139575000D01*
X129290000Y-138815000D02*
X129290000Y-144785000D01*
X136150000Y-144025000D02*
X133100000Y-144025000D01*
X129300000Y-141075000D02*
X130050000Y-141075000D01*
D17*
%TO.C,C205*%
X332162000Y-169276000D02*
X332162000Y-170292000D01*
X330638000Y-170292000D02*
X330638000Y-169276000D01*
X332162000Y-172324000D02*
X330638000Y-172324000D01*
X332162000Y-171308000D02*
X332162000Y-172324000D01*
X330638000Y-172324000D02*
X330638000Y-171308000D01*
X330638000Y-169276000D02*
X332162000Y-169276000D01*
X330765000Y-169149000D02*
G75*
G03*
X330765000Y-169149000I-127000J0D01*
G01*
D16*
%TO.C,R201*%
X335435000Y-171157000D02*
X335435000Y-173443000D01*
X334165000Y-173443000D02*
X334165000Y-171157000D01*
X334165000Y-171157000D02*
X335435000Y-171157000D01*
X335435000Y-173443000D02*
X334165000Y-173443000D01*
%TO.C,C102*%
X130757000Y-132111000D02*
X130757000Y-130460000D01*
X130757000Y-130460000D02*
X133043000Y-130460000D01*
X133043000Y-135540000D02*
X133043000Y-133889000D01*
X130757000Y-135540000D02*
X133043000Y-135540000D01*
X133043000Y-130460000D02*
X133043000Y-132111000D01*
X130757000Y-133889000D02*
X130757000Y-135540000D01*
%TO.C,R112*%
X128635000Y-158657000D02*
X128635000Y-160943000D01*
X127365000Y-160943000D02*
X127365000Y-158657000D01*
X128635000Y-160943000D02*
X127365000Y-160943000D01*
X127365000Y-158657000D02*
X128635000Y-158657000D01*
%TO.C,R210*%
X321519000Y-172435000D02*
X321519000Y-171165000D01*
X323805000Y-172435000D02*
X321519000Y-172435000D01*
X321519000Y-171165000D02*
X323805000Y-171165000D01*
X323805000Y-171165000D02*
X323805000Y-172435000D01*
%TO.C,C208*%
X325257000Y-201540000D02*
X325257000Y-199889000D01*
X327543000Y-196460000D02*
X325257000Y-196460000D01*
X327543000Y-199889000D02*
X327543000Y-201540000D01*
X327543000Y-201540000D02*
X325257000Y-201540000D01*
X327543000Y-198111000D02*
X327543000Y-196460000D01*
X325257000Y-196460000D02*
X325257000Y-198111000D01*
%TO.C,C209*%
X319757000Y-189460000D02*
X322043000Y-189460000D01*
X319757000Y-194540000D02*
X322043000Y-194540000D01*
X322043000Y-189460000D02*
X322043000Y-191111000D01*
X322043000Y-194540000D02*
X322043000Y-192889000D01*
X319757000Y-191111000D02*
X319757000Y-189460000D01*
X319757000Y-192889000D02*
X319757000Y-194540000D01*
%TD*%
M02*
