%TF.GenerationSoftware,KiCad,Pcbnew,6.0.6-3a73a75311~116~ubuntu20.04.1*%
%TF.CreationDate,2022-07-12T22:33:22+02:00*%
%TF.ProjectId,LEDBoard_template,4c454442-6f61-4726-945f-74656d706c61,rev?*%
%TF.SameCoordinates,Original*%
%TF.FileFunction,Paste,Top*%
%TF.FilePolarity,Positive*%
%FSLAX46Y46*%
G04 Gerber Fmt 4.6, Leading zero omitted, Abs format (unit mm)*
G04 Created by KiCad (PCBNEW 6.0.6-3a73a75311~116~ubuntu20.04.1) date 2022-07-12 22:33:22*
%MOMM*%
%LPD*%
G01*
G04 APERTURE LIST*
G04 Aperture macros list*
%AMRoundRect*
0 Rectangle with rounded corners*
0 $1 Rounding radius*
0 $2 $3 $4 $5 $6 $7 $8 $9 X,Y pos of 4 corners*
0 Add a 4 corners polygon primitive as box body*
4,1,4,$2,$3,$4,$5,$6,$7,$8,$9,$2,$3,0*
0 Add four circle primitives for the rounded corners*
1,1,$1+$1,$2,$3*
1,1,$1+$1,$4,$5*
1,1,$1+$1,$6,$7*
1,1,$1+$1,$8,$9*
0 Add four rect primitives between the rounded corners*
20,1,$1+$1,$2,$3,$4,$5,0*
20,1,$1+$1,$4,$5,$6,$7,0*
20,1,$1+$1,$6,$7,$8,$9,0*
20,1,$1+$1,$8,$9,$2,$3,0*%
G04 Aperture macros list end*
%ADD10R,1.400000X3.300000*%
%ADD11R,0.700000X7.600000*%
%ADD12R,2.032000X1.524000*%
%ADD13R,1.143000X0.635000*%
%ADD14RoundRect,0.637500X0.637500X2.112500X-0.637500X2.112500X-0.637500X-2.112500X0.637500X-2.112500X0*%
%ADD15R,0.635000X1.143000*%
%ADD16R,0.900000X0.800000*%
%ADD17R,0.900000X0.200000*%
%ADD18R,1.150000X1.150000*%
%ADD19R,2.000000X0.600000*%
%ADD20R,1.397000X0.889000*%
%ADD21RoundRect,0.637500X-0.637500X-2.112500X0.637500X-2.112500X0.637500X2.112500X-0.637500X2.112500X0*%
G04 APERTURE END LIST*
D10*
%TO.C,D109*%
X278650000Y-168200000D03*
X275750000Y-168180000D03*
D11*
X277200000Y-168200000D03*
%TD*%
D12*
%TO.C,C207*%
X323700000Y-193651000D03*
X323700000Y-190349000D03*
%TD*%
D13*
%TO.C,R203*%
X340800000Y-167138000D03*
X340800000Y-168662000D03*
%TD*%
D14*
%TO.C,U202*%
X337025000Y-195500000D03*
X329975000Y-195500000D03*
%TD*%
D13*
%TO.C,R214*%
X323650000Y-159388000D03*
X323650000Y-160912000D03*
%TD*%
D15*
%TO.C,R204*%
X339462000Y-167100000D03*
X337938000Y-167100000D03*
%TD*%
D10*
%TO.C,D104*%
X158650000Y-119500000D03*
X155750000Y-119480000D03*
D11*
X157200000Y-119500000D03*
%TD*%
D13*
%TO.C,R213*%
X329150000Y-158638000D03*
X329150000Y-160162000D03*
%TD*%
D10*
%TO.C,D106*%
X238650000Y-141980000D03*
X235750000Y-141960000D03*
D11*
X237200000Y-141980000D03*
%TD*%
D15*
%TO.C,R208*%
X324400000Y-171800000D03*
X325924000Y-171800000D03*
%TD*%
D12*
%TO.C,C107*%
X138000000Y-127649000D03*
X138000000Y-130951000D03*
%TD*%
D10*
%TO.C,D114*%
X238650000Y-193200000D03*
X235750000Y-193180000D03*
D11*
X237200000Y-193200000D03*
%TD*%
D13*
%TO.C,R109*%
X133750000Y-154138000D03*
X133750000Y-155662000D03*
%TD*%
D12*
%TO.C,C206*%
X326400000Y-193651000D03*
X326400000Y-190349000D03*
%TD*%
D10*
%TO.C,D107*%
X198650000Y-141980000D03*
X195750000Y-141960000D03*
D11*
X197200000Y-141980000D03*
%TD*%
D10*
%TO.C,D208*%
X294150000Y-180000000D03*
X297050000Y-180020000D03*
D11*
X295600000Y-180000000D03*
%TD*%
D13*
%TO.C,R103*%
X115500000Y-152438000D03*
X115500000Y-153962000D03*
%TD*%
D16*
%TO.C,Q101*%
X129700000Y-158850000D03*
X129700000Y-160750000D03*
X131700000Y-159800000D03*
%TD*%
D17*
%TO.C,U103*%
X127500000Y-149400000D03*
X127500000Y-149800000D03*
X127500000Y-150200000D03*
X127500000Y-150600000D03*
X127500000Y-151000000D03*
X127500000Y-151400000D03*
X127500000Y-151800000D03*
X127500000Y-152200000D03*
X131600000Y-152200000D03*
X131600000Y-151800000D03*
X131600000Y-151400000D03*
X131600000Y-151000000D03*
X131600000Y-150600000D03*
X131600000Y-150200000D03*
X131600000Y-149800000D03*
X131600000Y-149400000D03*
D18*
X130225000Y-151475000D03*
X128875000Y-150125000D03*
X128875000Y-151475000D03*
X130225000Y-150125000D03*
%TD*%
D15*
%TO.C,R113*%
X131662000Y-157100000D03*
X130138000Y-157100000D03*
%TD*%
D10*
%TO.C,D203*%
X254150000Y-205000000D03*
X257050000Y-205020000D03*
D11*
X255600000Y-205000000D03*
%TD*%
D12*
%TO.C,C211*%
X328900000Y-171649000D03*
X328900000Y-174951000D03*
%TD*%
D10*
%TO.C,D205*%
X174150000Y-180000000D03*
X177050000Y-180020000D03*
D11*
X175600000Y-180000000D03*
%TD*%
D10*
%TO.C,D113*%
X278650000Y-193200000D03*
X275750000Y-193180000D03*
D11*
X277200000Y-193200000D03*
%TD*%
D19*
%TO.C,U201*%
X337070123Y-187400122D03*
X337070123Y-186130122D03*
X337070123Y-184860122D03*
X337070123Y-183590122D03*
X330320123Y-183590122D03*
X330320123Y-184860122D03*
X330320123Y-186130122D03*
X330320123Y-187400122D03*
%TD*%
D12*
%TO.C,C201*%
X327400000Y-186051000D03*
X327400000Y-182749000D03*
%TD*%
D10*
%TO.C,D210*%
X214150000Y-155000000D03*
X217050000Y-155020000D03*
D11*
X215600000Y-155000000D03*
%TD*%
D13*
%TO.C,C204*%
X339600000Y-187662000D03*
X339600000Y-186138000D03*
%TD*%
D10*
%TO.C,D111*%
X198650000Y-168200000D03*
X195750000Y-168180000D03*
D11*
X197200000Y-168200000D03*
%TD*%
D12*
%TO.C,C202*%
X324650000Y-186051000D03*
X324650000Y-182749000D03*
%TD*%
D10*
%TO.C,D212*%
X294150000Y-155000000D03*
X297050000Y-155020000D03*
D11*
X295600000Y-155000000D03*
%TD*%
D10*
%TO.C,D112*%
X158650000Y-168200000D03*
X155750000Y-168180000D03*
D11*
X157200000Y-168200000D03*
%TD*%
D12*
%TO.C,C121*%
X127350000Y-146851000D03*
X127350000Y-143549000D03*
%TD*%
D13*
%TO.C,R202*%
X334800000Y-170262000D03*
X334800000Y-168738000D03*
%TD*%
D10*
%TO.C,D206*%
X214150000Y-180000000D03*
X217050000Y-180020000D03*
D11*
X215600000Y-180000000D03*
%TD*%
D13*
%TO.C,R206*%
X333100000Y-168738000D03*
X333100000Y-170262000D03*
%TD*%
%TO.C,R106*%
X121700000Y-150162000D03*
X121700000Y-148638000D03*
%TD*%
D10*
%TO.C,D201*%
X174150000Y-205000000D03*
X177050000Y-205020000D03*
D11*
X175600000Y-205000000D03*
%TD*%
D12*
%TO.C,C110*%
X129600000Y-123651000D03*
X129600000Y-120349000D03*
%TD*%
D13*
%TO.C,R105*%
X119700000Y-150338000D03*
X119700000Y-151862000D03*
%TD*%
D10*
%TO.C,D102*%
X238650000Y-119500000D03*
X235750000Y-119480000D03*
D11*
X237200000Y-119500000D03*
%TD*%
D20*
%TO.C,C103*%
X116500000Y-136447500D03*
X116500000Y-138352500D03*
%TD*%
D16*
%TO.C,Q201*%
X327400000Y-160350000D03*
X327400000Y-158450000D03*
X325400000Y-159400000D03*
%TD*%
D10*
%TO.C,D103*%
X198650000Y-119500000D03*
X195750000Y-119480000D03*
D11*
X197200000Y-119500000D03*
%TD*%
D15*
%TO.C,R107*%
X127438000Y-154700000D03*
X128962000Y-154700000D03*
%TD*%
D10*
%TO.C,D209*%
X174150000Y-155000000D03*
X177050000Y-155020000D03*
D11*
X175600000Y-155000000D03*
%TD*%
D17*
%TO.C,U203*%
X327900000Y-169200000D03*
X327900000Y-168800000D03*
X327900000Y-168400000D03*
X327900000Y-168000000D03*
X327900000Y-167600000D03*
X327900000Y-167200000D03*
X327900000Y-166800000D03*
X327900000Y-166400000D03*
X323800000Y-166400000D03*
X323800000Y-166800000D03*
X323800000Y-167200000D03*
X323800000Y-167600000D03*
X323800000Y-168000000D03*
X323800000Y-168400000D03*
X323800000Y-168800000D03*
X323800000Y-169200000D03*
D18*
X326525000Y-167125000D03*
X326525000Y-168475000D03*
X325175000Y-168475000D03*
X325175000Y-167125000D03*
%TD*%
D13*
%TO.C,C104*%
X116500000Y-133638000D03*
X116500000Y-135162000D03*
%TD*%
D10*
%TO.C,D207*%
X254150000Y-180000000D03*
X257050000Y-180020000D03*
D11*
X255600000Y-180000000D03*
%TD*%
D10*
%TO.C,D115*%
X198650000Y-193200000D03*
X195750000Y-193180000D03*
D11*
X197200000Y-193200000D03*
%TD*%
D10*
%TO.C,D204*%
X294150000Y-205000000D03*
X297050000Y-205020000D03*
D11*
X295600000Y-205000000D03*
%TD*%
D13*
%TO.C,R114*%
X135600000Y-148762000D03*
X135600000Y-147238000D03*
%TD*%
D12*
%TO.C,C106*%
X133000000Y-123651000D03*
X133000000Y-120349000D03*
%TD*%
D10*
%TO.C,D108*%
X158650000Y-141980000D03*
X155750000Y-141960000D03*
D11*
X157200000Y-141980000D03*
%TD*%
D13*
%TO.C,R101*%
X121700000Y-146162000D03*
X121700000Y-144638000D03*
%TD*%
%TO.C,R111*%
X135400000Y-155662000D03*
X135400000Y-154138000D03*
%TD*%
D10*
%TO.C,D116*%
X158650000Y-193200000D03*
X155750000Y-193180000D03*
D11*
X157200000Y-193200000D03*
%TD*%
D10*
%TO.C,D213*%
X174150000Y-130000000D03*
X177050000Y-130020000D03*
D11*
X175600000Y-130000000D03*
%TD*%
D13*
%TO.C,R209*%
X321900000Y-165062000D03*
X321900000Y-163538000D03*
%TD*%
D12*
%TO.C,C109*%
X136500000Y-123651000D03*
X136500000Y-120349000D03*
%TD*%
%TO.C,C101*%
X129199999Y-134651000D03*
X129199999Y-131349000D03*
%TD*%
D15*
%TO.C,R108*%
X131612000Y-147000000D03*
X130088000Y-147000000D03*
%TD*%
D20*
%TO.C,C105*%
X125000000Y-148652500D03*
X125000000Y-146747500D03*
%TD*%
D12*
%TO.C,C108*%
X135000000Y-127649000D03*
X135000000Y-130951000D03*
%TD*%
D10*
%TO.C,D211*%
X254150000Y-155000000D03*
X257050000Y-155020000D03*
D11*
X255600000Y-155000000D03*
%TD*%
D13*
%TO.C,R205*%
X336500000Y-168662000D03*
X336500000Y-167138000D03*
%TD*%
D15*
%TO.C,R104*%
X116838000Y-152200000D03*
X118362000Y-152200000D03*
%TD*%
D20*
%TO.C,C203*%
X339536500Y-184725500D03*
X339536500Y-182820500D03*
%TD*%
D13*
%TO.C,R211*%
X320400000Y-163538000D03*
X320400000Y-165062000D03*
%TD*%
%TO.C,R212*%
X320200000Y-169838000D03*
X320200000Y-171362000D03*
%TD*%
D15*
%TO.C,R110*%
X132638000Y-147000000D03*
X134162000Y-147000000D03*
%TD*%
D12*
%TO.C,C210*%
X323700000Y-197349000D03*
X323700000Y-200651000D03*
%TD*%
D10*
%TO.C,D110*%
X238650000Y-168200000D03*
X235750000Y-168180000D03*
D11*
X237200000Y-168200000D03*
%TD*%
D21*
%TO.C,U102*%
X119075000Y-125500000D03*
X126125000Y-125500000D03*
%TD*%
D10*
%TO.C,D101*%
X278650000Y-119500000D03*
X275750000Y-119480000D03*
D11*
X277200000Y-119500000D03*
%TD*%
D10*
%TO.C,D216*%
X294150000Y-130000000D03*
X297050000Y-130020000D03*
D11*
X295600000Y-130000000D03*
%TD*%
D13*
%TO.C,R207*%
X329900000Y-164562000D03*
X329900000Y-163038000D03*
%TD*%
%TO.C,R102*%
X123200000Y-146200000D03*
X123200000Y-147724000D03*
%TD*%
D10*
%TO.C,D214*%
X214150000Y-130000000D03*
X217050000Y-130020000D03*
D11*
X215600000Y-130000000D03*
%TD*%
D10*
%TO.C,D215*%
X254150000Y-130000000D03*
X257050000Y-130020000D03*
D11*
X255600000Y-130000000D03*
%TD*%
D19*
%TO.C,U101*%
X119029875Y-133899879D03*
X119029875Y-135169879D03*
X119029875Y-136439879D03*
X119029875Y-137709879D03*
X125779875Y-137709879D03*
X125779875Y-136439879D03*
X125779875Y-135169879D03*
X125779875Y-133899879D03*
%TD*%
D10*
%TO.C,D202*%
X214150000Y-205000000D03*
X217050000Y-205020000D03*
D11*
X215600000Y-205000000D03*
%TD*%
D10*
%TO.C,D105*%
X278650000Y-141980000D03*
X275750000Y-141960000D03*
D11*
X277200000Y-141980000D03*
%TD*%
D20*
%TO.C,C205*%
X331400000Y-169847500D03*
X331400000Y-171752500D03*
%TD*%
D13*
%TO.C,R201*%
X334800000Y-171538000D03*
X334800000Y-173062000D03*
%TD*%
D12*
%TO.C,C102*%
X131900000Y-134651000D03*
X131900000Y-131349000D03*
%TD*%
D13*
%TO.C,R112*%
X128000000Y-160562000D03*
X128000000Y-159038000D03*
%TD*%
D15*
%TO.C,R210*%
X323424000Y-171800000D03*
X321900000Y-171800000D03*
%TD*%
D12*
%TO.C,C208*%
X326400000Y-197349000D03*
X326400000Y-200651000D03*
%TD*%
%TO.C,C209*%
X320900000Y-193651000D03*
X320900000Y-190349000D03*
%TD*%
M02*
