%TF.GenerationSoftware,KiCad,Pcbnew,6.0.6-3a73a75311~116~ubuntu20.04.1*%
%TF.CreationDate,2022-07-12T22:33:22+02:00*%
%TF.ProjectId,LEDBoard_template,4c454442-6f61-4726-945f-74656d706c61,rev?*%
%TF.SameCoordinates,Original*%
%TF.FileFunction,Soldermask,Bot*%
%TF.FilePolarity,Negative*%
%FSLAX46Y46*%
G04 Gerber Fmt 4.6, Leading zero omitted, Abs format (unit mm)*
G04 Created by KiCad (PCBNEW 6.0.6-3a73a75311~116~ubuntu20.04.1) date 2022-07-12 22:33:22*
%MOMM*%
%LPD*%
G01*
G04 APERTURE LIST*
G04 Aperture macros list*
%AMRoundRect*
0 Rectangle with rounded corners*
0 $1 Rounding radius*
0 $2 $3 $4 $5 $6 $7 $8 $9 X,Y pos of 4 corners*
0 Add a 4 corners polygon primitive as box body*
4,1,4,$2,$3,$4,$5,$6,$7,$8,$9,$2,$3,0*
0 Add four circle primitives for the rounded corners*
1,1,$1+$1,$2,$3*
1,1,$1+$1,$4,$5*
1,1,$1+$1,$6,$7*
1,1,$1+$1,$8,$9*
0 Add four rect primitives between the rounded corners*
20,1,$1+$1,$2,$3,$4,$5,0*
20,1,$1+$1,$4,$5,$6,$7,0*
20,1,$1+$1,$6,$7,$8,$9,0*
20,1,$1+$1,$8,$9,$2,$3,0*%
G04 Aperture macros list end*
%ADD10C,5.000000*%
%ADD11C,3.450000*%
%ADD12C,0.650000*%
%ADD13C,1.900000*%
%ADD14C,2.800000*%
%ADD15C,0.675000*%
%ADD16RoundRect,0.250000X-0.600000X-0.750000X0.600000X-0.750000X0.600000X0.750000X-0.600000X0.750000X0*%
%ADD17O,1.700000X2.000000*%
%ADD18RoundRect,0.250000X-0.725000X0.600000X-0.725000X-0.600000X0.725000X-0.600000X0.725000X0.600000X0*%
%ADD19O,1.950000X1.700000*%
%ADD20RoundRect,0.250000X0.725000X-0.600000X0.725000X0.600000X-0.725000X0.600000X-0.725000X-0.600000X0*%
G04 APERTURE END LIST*
D10*
%TO.C,REF\u002A\u002A*%
X355550000Y-110300000D03*
%TD*%
D11*
%TO.C,REF\u002A\u002A*%
X117000000Y-116000000D03*
%TD*%
D12*
%TO.C,D109*%
X277200000Y-167565000D03*
X277200000Y-166930000D03*
%TD*%
D13*
%TO.C,J104*%
X351680000Y-118400000D03*
X351680000Y-121400000D03*
X351680000Y-124400000D03*
X351680000Y-127400000D03*
D14*
X356000000Y-129550000D03*
X356000000Y-116250000D03*
%TD*%
D12*
%TO.C,D104*%
X157200000Y-118230000D03*
X157200000Y-118865000D03*
%TD*%
%TO.C,D106*%
X237200000Y-141345000D03*
X237200000Y-140710000D03*
%TD*%
%TO.C,D114*%
X237200000Y-191930000D03*
X237200000Y-192565000D03*
%TD*%
%TO.C,D107*%
X197200000Y-141345000D03*
X197200000Y-140710000D03*
%TD*%
D10*
%TO.C,REF\u002A\u002A*%
X295600000Y-193200000D03*
%TD*%
D12*
%TO.C,D208*%
X295600000Y-181270000D03*
X295600000Y-180635000D03*
%TD*%
D15*
%TO.C,U103*%
X130225000Y-150125000D03*
X128875000Y-151475000D03*
X130225000Y-151475000D03*
X128875000Y-150125000D03*
%TD*%
D16*
%TO.C,J106*%
X105000000Y-137000000D03*
D17*
X107500000Y-137000000D03*
%TD*%
D12*
%TO.C,D203*%
X255600000Y-206270000D03*
X255600000Y-205635000D03*
%TD*%
D10*
%TO.C,REF\u002A\u002A*%
X355550000Y-211500000D03*
%TD*%
D12*
%TO.C,D205*%
X175600000Y-180635000D03*
X175600000Y-181270000D03*
%TD*%
%TO.C,D113*%
X277200000Y-192565000D03*
X277200000Y-191930000D03*
%TD*%
%TO.C,D210*%
X215600000Y-155635000D03*
X215600000Y-156270000D03*
%TD*%
%TO.C,D111*%
X197200000Y-166930000D03*
X197200000Y-167565000D03*
%TD*%
%TO.C,D212*%
X295600000Y-155635000D03*
X295600000Y-156270000D03*
%TD*%
%TO.C,D112*%
X157200000Y-167565000D03*
X157200000Y-166930000D03*
%TD*%
%TO.C,D206*%
X215600000Y-180635000D03*
X215600000Y-181270000D03*
%TD*%
D10*
%TO.C,REF\u002A\u002A*%
X295600000Y-119500000D03*
%TD*%
D12*
%TO.C,D201*%
X175600000Y-206270000D03*
X175600000Y-205635000D03*
%TD*%
%TO.C,D102*%
X237200000Y-118230000D03*
X237200000Y-118865000D03*
%TD*%
D13*
%TO.C,J103*%
X109470001Y-127250000D03*
X109470001Y-124250000D03*
X109470001Y-121250000D03*
X109470001Y-118250000D03*
D14*
X105150001Y-129400000D03*
X105150001Y-116100000D03*
%TD*%
D12*
%TO.C,D103*%
X197200000Y-118865000D03*
X197200000Y-118230000D03*
%TD*%
D10*
%TO.C,REF\u002A\u002A*%
X157200000Y-205000000D03*
%TD*%
D12*
%TO.C,D209*%
X175600000Y-156270000D03*
X175600000Y-155635000D03*
%TD*%
D15*
%TO.C,U203*%
X326525000Y-167125000D03*
X326525000Y-168475000D03*
X325175000Y-168475000D03*
X325175000Y-167125000D03*
%TD*%
D12*
%TO.C,D207*%
X255600000Y-180635000D03*
X255600000Y-181270000D03*
%TD*%
%TO.C,D115*%
X197200000Y-192565000D03*
X197200000Y-191930000D03*
%TD*%
%TO.C,D204*%
X295600000Y-206270000D03*
X295600000Y-205635000D03*
%TD*%
%TO.C,D108*%
X157200000Y-140710000D03*
X157200000Y-141345000D03*
%TD*%
D18*
%TO.C,J101*%
X107225000Y-146950000D03*
D19*
X107225000Y-149450000D03*
X107225000Y-151950000D03*
X107225000Y-154450000D03*
X107225000Y-156950000D03*
%TD*%
D12*
%TO.C,D116*%
X157200000Y-192565000D03*
X157200000Y-191930000D03*
%TD*%
%TO.C,D213*%
X175600000Y-131270000D03*
X175600000Y-130635000D03*
%TD*%
D10*
%TO.C,REF\u002A\u002A*%
X105600000Y-110300000D03*
%TD*%
D12*
%TO.C,D211*%
X255600000Y-156270000D03*
X255600000Y-155635000D03*
%TD*%
%TO.C,D110*%
X237200000Y-167565000D03*
X237200000Y-166930000D03*
%TD*%
D16*
%TO.C,J201*%
X320150000Y-175975000D03*
D17*
X322650000Y-175975000D03*
%TD*%
D10*
%TO.C,REF\u002A\u002A*%
X157200000Y-130000000D03*
%TD*%
D12*
%TO.C,D101*%
X277200000Y-118865000D03*
X277200000Y-118230000D03*
%TD*%
%TO.C,D216*%
X295600000Y-130635000D03*
X295600000Y-131270000D03*
%TD*%
%TO.C,D214*%
X215600000Y-131270000D03*
X215600000Y-130635000D03*
%TD*%
%TO.C,D215*%
X255600000Y-131270000D03*
X255600000Y-130635000D03*
%TD*%
D10*
%TO.C,REF\u002A\u002A*%
X157200000Y-155000000D03*
%TD*%
%TO.C,REF\u002A\u002A*%
X105600000Y-211500000D03*
%TD*%
%TO.C,REF\u002A\u002A*%
X295650000Y-168200000D03*
%TD*%
D12*
%TO.C,D202*%
X215600000Y-205635000D03*
X215600000Y-206270000D03*
%TD*%
%TO.C,D105*%
X277200000Y-141345000D03*
X277200000Y-140710000D03*
%TD*%
D20*
%TO.C,J105*%
X354600000Y-156900000D03*
D19*
X354600000Y-154400000D03*
X354600000Y-151900000D03*
X354600000Y-149400000D03*
X354600000Y-146900000D03*
%TD*%
D10*
%TO.C,REF\u002A\u002A*%
X157200000Y-180000000D03*
%TD*%
D16*
%TO.C,J102*%
X131850000Y-141275000D03*
D17*
X134350000Y-141275000D03*
%TD*%
D10*
%TO.C,REF\u002A\u002A*%
X295650000Y-142000000D03*
%TD*%
G36*
X277942121Y-117020002D02*
G01*
X277988614Y-117073658D01*
X278000000Y-117126000D01*
X278000000Y-121874000D01*
X277979998Y-121942121D01*
X277926342Y-121988614D01*
X277874000Y-122000000D01*
X153126000Y-122000000D01*
X153057879Y-121979998D01*
X153011386Y-121926342D01*
X153000000Y-121874000D01*
X153000000Y-117126000D01*
X153020002Y-117057879D01*
X153073658Y-117011386D01*
X153126000Y-117000000D01*
X277874000Y-117000000D01*
X277942121Y-117020002D01*
G37*
G36*
X297942121Y-127020002D02*
G01*
X297988614Y-127073658D01*
X298000000Y-127126000D01*
X298000000Y-132874000D01*
X297979998Y-132942121D01*
X297926342Y-132988614D01*
X297874000Y-133000000D01*
X175126000Y-133000000D01*
X175057879Y-132979998D01*
X175011386Y-132926342D01*
X175000000Y-132874000D01*
X175000000Y-127126000D01*
X175020002Y-127057879D01*
X175073658Y-127011386D01*
X175126000Y-127000000D01*
X297874000Y-127000000D01*
X297942121Y-127020002D01*
G37*
G36*
X278942121Y-139020002D02*
G01*
X278988614Y-139073658D01*
X279000000Y-139126000D01*
X279000000Y-144874000D01*
X278979998Y-144942121D01*
X278926342Y-144988614D01*
X278874000Y-145000000D01*
X156126000Y-145000000D01*
X156057879Y-144979998D01*
X156011386Y-144926342D01*
X156000000Y-144874000D01*
X156000000Y-139126000D01*
X156020002Y-139057879D01*
X156073658Y-139011386D01*
X156126000Y-139000000D01*
X278874000Y-139000000D01*
X278942121Y-139020002D01*
G37*
G36*
X296942121Y-152020002D02*
G01*
X296988614Y-152073658D01*
X297000000Y-152126000D01*
X297000000Y-157874000D01*
X296979998Y-157942121D01*
X296926342Y-157988614D01*
X296874000Y-158000000D01*
X174126000Y-158000000D01*
X174057879Y-157979998D01*
X174011386Y-157926342D01*
X174000000Y-157874000D01*
X174000000Y-152126000D01*
X174020002Y-152057879D01*
X174073658Y-152011386D01*
X174126000Y-152000000D01*
X296874000Y-152000000D01*
X296942121Y-152020002D01*
G37*
G36*
X278942121Y-165020002D02*
G01*
X278988614Y-165073658D01*
X279000000Y-165126000D01*
X279000000Y-170874000D01*
X278979998Y-170942121D01*
X278926342Y-170988614D01*
X278874000Y-171000000D01*
X156126000Y-171000000D01*
X156057879Y-170979998D01*
X156011386Y-170926342D01*
X156000000Y-170874000D01*
X156000000Y-165126000D01*
X156020002Y-165057879D01*
X156073658Y-165011386D01*
X156126000Y-165000000D01*
X278874000Y-165000000D01*
X278942121Y-165020002D01*
G37*
G36*
X296942121Y-177020002D02*
G01*
X296988614Y-177073658D01*
X297000000Y-177126000D01*
X297000000Y-182874000D01*
X296979998Y-182942121D01*
X296926342Y-182988614D01*
X296874000Y-183000000D01*
X174126000Y-183000000D01*
X174057879Y-182979998D01*
X174011386Y-182926342D01*
X174000000Y-182874000D01*
X174000000Y-177126000D01*
X174020002Y-177057879D01*
X174073658Y-177011386D01*
X174126000Y-177000000D01*
X296874000Y-177000000D01*
X296942121Y-177020002D01*
G37*
G36*
X278942121Y-190020002D02*
G01*
X278988614Y-190073658D01*
X279000000Y-190126000D01*
X279000000Y-195874000D01*
X278979998Y-195942121D01*
X278926342Y-195988614D01*
X278874000Y-196000000D01*
X156126000Y-196000000D01*
X156057879Y-195979998D01*
X156011386Y-195926342D01*
X156000000Y-195874000D01*
X156000000Y-190126000D01*
X156020002Y-190057879D01*
X156073658Y-190011386D01*
X156126000Y-190000000D01*
X278874000Y-190000000D01*
X278942121Y-190020002D01*
G37*
G36*
X296942121Y-202020002D02*
G01*
X296988614Y-202073658D01*
X297000000Y-202126000D01*
X297000000Y-207874000D01*
X296979998Y-207942121D01*
X296926342Y-207988614D01*
X296874000Y-208000000D01*
X174126000Y-208000000D01*
X174057879Y-207979998D01*
X174011386Y-207926342D01*
X174000000Y-207874000D01*
X174000000Y-202126000D01*
X174020002Y-202057879D01*
X174073658Y-202011386D01*
X174126000Y-202000000D01*
X296874000Y-202000000D01*
X296942121Y-202020002D01*
G37*
M02*
