M48
; DRILL file {KiCad 6.0.6-3a73a75311~116~ubuntu20.04.1} date mar. 12 juil. 2022 22:33:25
; FORMAT={3:3/ absolute / metric / suppress leading zeros}
; #@! TF.CreationDate,2022-07-12T22:33:25+02:00
; #@! TF.GenerationSoftware,Kicad,Pcbnew,6.0.6-3a73a75311~116~ubuntu20.04.1
; #@! TF.FileFunction,Plated,1,4,PTH
FMAT,2
METRIC,TZ
; #@! TA.AperFunction,Plated,PTH,ComponentDrill
T1C0.254
; #@! TA.AperFunction,Plated,PTH,ComponentDrill
T2C0.300
; #@! TA.AperFunction,Plated,PTH,ViaDrill
T3C0.400
; #@! TA.AperFunction,Plated,PTH,ComponentDrill
T4C0.950
; #@! TA.AperFunction,Plated,PTH,ComponentDrill
T5C1.000
; #@! TA.AperFunction,Plated,PTH,ComponentDrill
T6C1.100
; #@! TA.AperFunction,Plated,PTH,ComponentDrill
T7C2.410
; #@! TA.AperFunction,Plated,PTH,ComponentDrill
T8C3.200
%
G90
G05
T1
X157200Y-118230
X157200Y-118865
X157200Y-119500
X157200Y-120135
X157200Y-120770
X157200Y-140710
X157200Y-141345
X157200Y-141980
X157200Y-142615
X157200Y-143250
X157200Y-166930
X157200Y-167565
X157200Y-168200
X157200Y-168835
X157200Y-169470
X157200Y-191930
X157200Y-192565
X157200Y-193200
X157200Y-193835
X157200Y-194470
X175600Y-128730
X175600Y-129365
X175600Y-130000
X175600Y-130635
X175600Y-131270
X175600Y-153730
X175600Y-154365
X175600Y-155000
X175600Y-155635
X175600Y-156270
X175600Y-178730
X175600Y-179365
X175600Y-180000
X175600Y-180635
X175600Y-181270
X175600Y-203730
X175600Y-204365
X175600Y-205000
X175600Y-205635
X175600Y-206270
X197200Y-118230
X197200Y-118865
X197200Y-119500
X197200Y-120135
X197200Y-120770
X197200Y-140710
X197200Y-141345
X197200Y-141980
X197200Y-142615
X197200Y-143250
X197200Y-166930
X197200Y-167565
X197200Y-168200
X197200Y-168835
X197200Y-169470
X197200Y-191930
X197200Y-192565
X197200Y-193200
X197200Y-193835
X197200Y-194470
X215600Y-128730
X215600Y-129365
X215600Y-130000
X215600Y-130635
X215600Y-131270
X215600Y-153730
X215600Y-154365
X215600Y-155000
X215600Y-155635
X215600Y-156270
X215600Y-178730
X215600Y-179365
X215600Y-180000
X215600Y-180635
X215600Y-181270
X215600Y-203730
X215600Y-204365
X215600Y-205000
X215600Y-205635
X215600Y-206270
X237200Y-118230
X237200Y-118865
X237200Y-119500
X237200Y-120135
X237200Y-120770
X237200Y-140710
X237200Y-141345
X237200Y-141980
X237200Y-142615
X237200Y-143250
X237200Y-166930
X237200Y-167565
X237200Y-168200
X237200Y-168835
X237200Y-169470
X237200Y-191930
X237200Y-192565
X237200Y-193200
X237200Y-193835
X237200Y-194470
X255600Y-128730
X255600Y-129365
X255600Y-130000
X255600Y-130635
X255600Y-131270
X255600Y-153730
X255600Y-154365
X255600Y-155000
X255600Y-155635
X255600Y-156270
X255600Y-178730
X255600Y-179365
X255600Y-180000
X255600Y-180635
X255600Y-181270
X255600Y-203730
X255600Y-204365
X255600Y-205000
X255600Y-205635
X255600Y-206270
X277200Y-118230
X277200Y-118865
X277200Y-119500
X277200Y-120135
X277200Y-120770
X277200Y-140710
X277200Y-141345
X277200Y-141980
X277200Y-142615
X277200Y-143250
X277200Y-166930
X277200Y-167565
X277200Y-168200
X277200Y-168835
X277200Y-169470
X277200Y-191930
X277200Y-192565
X277200Y-193200
X277200Y-193835
X277200Y-194470
X295600Y-128730
X295600Y-129365
X295600Y-130000
X295600Y-130635
X295600Y-131270
X295600Y-153730
X295600Y-154365
X295600Y-155000
X295600Y-155635
X295600Y-156270
X295600Y-178730
X295600Y-179365
X295600Y-180000
X295600Y-180635
X295600Y-181270
X295600Y-203730
X295600Y-204365
X295600Y-205000
X295600Y-205635
X295600Y-206270
T2
X128875Y-150125
X128875Y-151475
X130225Y-150125
X130225Y-151475
X325175Y-167125
X325175Y-168475
X326525Y-167125
X326525Y-168475
T3
X114400Y-152400
X119000Y-138900
X122850Y-150950
X123200Y-145200
X123600Y-148700
X125600Y-150800
X129200Y-147000
X129200Y-157100
X132400Y-157100
X133600Y-126000
X133600Y-134800
X133600Y-149800
X133700Y-148500
X134400Y-134200
X134400Y-135400
X134600Y-125000
X135100Y-126000
X135400Y-156800
X135600Y-146400
X136100Y-125000
X136600Y-126000
X137600Y-125000
X138600Y-124000
X138600Y-126000
X172100Y-153000
X172100Y-154500
X172100Y-156000
X172100Y-157500
X172600Y-127500
X172600Y-129000
X172600Y-130500
X172600Y-132000
X172600Y-177500
X172600Y-179000
X172600Y-180500
X172600Y-182000
X172600Y-202500
X172600Y-204000
X172600Y-205500
X172600Y-207000
X280840Y-139780
X280850Y-141200
X280850Y-142350
X280850Y-143800
X280900Y-117340
X280900Y-118630
X280900Y-119990
X280900Y-121330
X280950Y-166000
X280960Y-167170
X280960Y-168450
X280960Y-169800
X280970Y-192540
X280970Y-193970
X280970Y-195450
X280980Y-191060
X319100Y-194900
X319100Y-196400
X319100Y-197900
X320400Y-162800
X320600Y-194900
X320600Y-196400
X320600Y-197900
X321200Y-185400
X321200Y-186600
X321650Y-169800
X321800Y-168800
X322100Y-194900
X322100Y-196400
X322100Y-197900
X322200Y-159600
X322400Y-170600
X322600Y-185400
X322600Y-186600
X324400Y-161800
X327200Y-171800
X329800Y-169800
X330400Y-167550
X332000Y-167800
X333400Y-171550
X350800Y-156400
X352200Y-198800
X354400Y-169400
T4
X107225Y-146950
X107225Y-149450
X107225Y-151950
X107225Y-154450
X107225Y-156950
X354600Y-146900
X354600Y-149400
X354600Y-151900
X354600Y-154400
X354600Y-156900
T5
X105000Y-137000
X107500Y-137000
X131850Y-141275
X134350Y-141275
X320150Y-175975
X322650Y-175975
T6
X109470Y-118250
X109470Y-121250
X109470Y-124250
X109470Y-127250
X351680Y-118400
X351680Y-121400
X351680Y-124400
X351680Y-127400
T7
X105150Y-116100
X105150Y-129400
X356000Y-116250
X356000Y-129550
T8
X105600Y-110300
X105600Y-211500
X157200Y-130000
X157200Y-155000
X157200Y-180000
X157200Y-205000
X295600Y-119500
X295600Y-193200
X295650Y-142000
X295650Y-168200
X355550Y-110300
X355550Y-211500
T0
M30
